<?xml version="1.0" encoding="utf-8" standalone="no"?>
<!DOCTYPE svg PUBLIC "-//W3C//DTD SVG 1.1//EN"
  "http://www.w3.org/Graphics/SVG/1.1/DTD/svg11.dtd">
<svg xmlns:xlink="http://www.w3.org/1999/xlink" width="897.528125pt" height="226.194375pt" viewBox="0 0 897.528125 226.194375" xmlns="http://www.w3.org/2000/svg" version="1.1">
 <metadata>
  <rdf:RDF xmlns:dc="http://purl.org/dc/elements/1.1/" xmlns:cc="http://creativecommons.org/ns#" xmlns:rdf="http://www.w3.org/1999/02/22-rdf-syntax-ns#">
   <cc:Work>
    <dc:type rdf:resource="http://purl.org/dc/dcmitype/StillImage"/>
    <dc:date>2024-02-07T12:56:43.544615</dc:date>
    <dc:format>image/svg+xml</dc:format>
    <dc:creator>
     <cc:Agent>
      <dc:title>Matplotlib v3.7.1, https://matplotlib.org/</dc:title>
     </cc:Agent>
    </dc:creator>
   </cc:Work>
  </rdf:RDF>
 </metadata>
 <defs>
  <style type="text/css">*{stroke-linejoin: round; stroke-linecap: butt}</style>
 </defs>
 <g id="figure_1">
  <g id="patch_1">
   <path d="M 0 226.194375 
L 897.528125 226.194375 
L 897.528125 0 
L 0 0 
z
" style="fill: #ffffff"/>
  </g>
  <g id="axes_1">
   <g id="patch_2">
    <path d="M 53.328125 188.638125 
L 433.78267 188.638125 
L 433.78267 22.318125 
L 53.328125 22.318125 
z
" style="fill: #ffffff"/>
   </g>
   <g id="PolyCollection_1">
    <defs>
     <path id="m6e5dbeb2da" d="M 53.328125 -39.433321 
L 53.328125 -37.55625 
L 59.776507 -37.55625 
L 66.224889 -37.55625 
L 72.673271 -37.55625 
L 79.121654 -37.55625 
L 85.570036 -37.55625 
L 92.018418 -37.55625 
L 98.4668 -37.55625 
L 104.915182 -37.55625 
L 111.363564 -37.55625 
L 117.811946 -37.55625 
L 124.260328 -37.55625 
L 130.708711 -37.55625 
L 137.157093 -37.55625 
L 143.605475 -37.55625 
L 150.053857 -37.55625 
L 156.502239 -37.55625 
L 162.950621 -37.55625 
L 169.399003 -37.55625 
L 175.847385 -37.55625 
L 182.295768 -37.55625 
L 188.74415 -37.55625 
L 195.192532 -37.55625 
L 201.640914 -37.55625 
L 208.089296 -37.55625 
L 214.537678 -37.55625 
L 220.98606 -37.55625 
L 227.434442 -37.55625 
L 233.882825 -37.55625 
L 240.331207 -37.55625 
L 246.779589 -37.55625 
L 253.227971 -37.55625 
L 259.676353 -37.55625 
L 266.124735 -37.55625 
L 272.573117 -37.55625 
L 279.021499 -37.55625 
L 285.469882 -37.55625 
L 291.918264 -37.55625 
L 298.366646 -37.55625 
L 304.815028 -37.55625 
L 311.26341 -37.55625 
L 317.711792 -37.55625 
L 324.160174 -37.55625 
L 330.608556 -37.55625 
L 337.056939 -37.55625 
L 343.505321 -37.55625 
L 349.953703 -37.55625 
L 356.402085 -37.55625 
L 362.850467 -37.55625 
L 369.298849 -37.55625 
L 375.747231 -37.55625 
L 382.195613 -37.55625 
L 388.643996 -37.55625 
L 395.092378 -37.55625 
L 401.54076 -37.55625 
L 407.989142 -37.55625 
L 414.437524 -37.55625 
L 420.885906 -37.55625 
L 427.334288 -37.55625 
L 433.78267 -37.55625 
L 433.78267 -195.95625 
L 433.78267 -195.95625 
L 427.334288 -193.636474 
L 420.885906 -190.59066 
L 414.437524 -188.253176 
L 407.989142 -185.384445 
L 401.54076 -182.781337 
L 395.092378 -180.036563 
L 388.643996 -177.663662 
L 382.195613 -174.635557 
L 375.747231 -172.298072 
L 369.298849 -169.482466 
L 362.850467 -166.950191 
L 356.402085 -164.063751 
L 349.953703 -161.673142 
L 343.505321 -158.768995 
L 337.056939 -156.342969 
L 330.608556 -153.545071 
L 324.160174 -151.06592 
L 317.711792 -148.179481 
L 311.26341 -145.841996 
L 304.815028 -142.867016 
L 298.366646 -140.618072 
L 291.918264 -137.536843 
L 285.469882 -135.199358 
L 279.021499 -132.224377 
L 272.573117 -129.745227 
L 266.124735 -126.947329 
L 259.676353 -124.503595 
L 253.227971 -121.652572 
L 246.779589 -119.155713 
L 240.331207 -116.428648 
L 233.882825 -113.790124 
L 227.434442 -111.04535 
L 220.98606 -108.548491 
L 214.537678 -105.591219 
L 208.089296 -103.271443 
L 201.640914 -100.367295 
L 195.192532 -98.012102 
L 188.74415 -95.019414 
L 182.295768 -92.664221 
L 175.847385 -89.813198 
L 169.399003 -87.316339 
L 162.950621 -84.359067 
L 156.502239 -81.915333 
L 150.053857 -79.188268 
L 143.605475 -76.762242 
L 137.157093 -73.769554 
L 130.708711 -71.432069 
L 124.260328 -68.43938 
L 117.811946 -66.066479 
L 111.363564 -63.162332 
L 104.915182 -60.718598 
L 98.4668 -57.920699 
L 92.018418 -55.388424 
L 85.570036 -52.501985 
L 79.121654 -50.288458 
L 72.673271 -47.100979 
L 66.224889 -44.745786 
L 59.776507 -41.859347 
L 53.328125 -39.433321 
z
" style="stroke: #1f77b4"/>
    </defs>
    <g clip-path="url(#p51f8a8c74e)">
     <use xlink:href="#m6e5dbeb2da" x="0" y="226.194375" style="fill: #1f77b4; stroke: #1f77b4"/>
    </g>
   </g>
   <g id="matplotlib.axis_1">
    <g id="xtick_1">
     <g id="line2d_1">
      <path d="M 53.328125 188.638125 
L 53.328125 22.318125 
" clip-path="url(#p51f8a8c74e)" style="fill: none; stroke: #b0b0b0; stroke-width: 0.8; stroke-linecap: square"/>
     </g>
     <g id="line2d_2">
      <defs>
       <path id="me7cbe296d4" d="M 0 0 
L 0 3.5 
" style="stroke: #000000; stroke-width: 0.8"/>
      </defs>
      <g>
       <use xlink:href="#me7cbe296d4" x="53.328125" y="188.638125" style="stroke: #000000; stroke-width: 0.8"/>
      </g>
     </g>
     <g id="text_1">
      <!-- 0 -->
      <g transform="translate(50.146875 203.236563) scale(0.1 -0.1)">
       <defs>
        <path id="DejaVuSans-30" d="M 2034 4250 
Q 1547 4250 1301 3770 
Q 1056 3291 1056 2328 
Q 1056 1369 1301 889 
Q 1547 409 2034 409 
Q 2525 409 2770 889 
Q 3016 1369 3016 2328 
Q 3016 3291 2770 3770 
Q 2525 4250 2034 4250 
z
M 2034 4750 
Q 2819 4750 3233 4129 
Q 3647 3509 3647 2328 
Q 3647 1150 3233 529 
Q 2819 -91 2034 -91 
Q 1250 -91 836 529 
Q 422 1150 422 2328 
Q 422 3509 836 4129 
Q 1250 4750 2034 4750 
z
" transform="scale(0.015625)"/>
       </defs>
       <use xlink:href="#DejaVuSans-30"/>
      </g>
     </g>
    </g>
    <g id="xtick_2">
     <g id="line2d_3">
      <path d="M 96.317339 188.638125 
L 96.317339 22.318125 
" clip-path="url(#p51f8a8c74e)" style="fill: none; stroke: #b0b0b0; stroke-width: 0.8; stroke-linecap: square"/>
     </g>
     <g id="line2d_4">
      <g>
       <use xlink:href="#me7cbe296d4" x="96.317339" y="188.638125" style="stroke: #000000; stroke-width: 0.8"/>
      </g>
     </g>
     <g id="text_2">
      <!-- 100 -->
      <g transform="translate(86.773589 203.236563) scale(0.1 -0.1)">
       <defs>
        <path id="DejaVuSans-31" d="M 794 531 
L 1825 531 
L 1825 4091 
L 703 3866 
L 703 4441 
L 1819 4666 
L 2450 4666 
L 2450 531 
L 3481 531 
L 3481 0 
L 794 0 
L 794 531 
z
" transform="scale(0.015625)"/>
       </defs>
       <use xlink:href="#DejaVuSans-31"/>
       <use xlink:href="#DejaVuSans-30" x="63.623047"/>
       <use xlink:href="#DejaVuSans-30" x="127.246094"/>
      </g>
     </g>
    </g>
    <g id="xtick_3">
     <g id="line2d_5">
      <path d="M 139.306553 188.638125 
L 139.306553 22.318125 
" clip-path="url(#p51f8a8c74e)" style="fill: none; stroke: #b0b0b0; stroke-width: 0.8; stroke-linecap: square"/>
     </g>
     <g id="line2d_6">
      <g>
       <use xlink:href="#me7cbe296d4" x="139.306553" y="188.638125" style="stroke: #000000; stroke-width: 0.8"/>
      </g>
     </g>
     <g id="text_3">
      <!-- 200 -->
      <g transform="translate(129.762803 203.236563) scale(0.1 -0.1)">
       <defs>
        <path id="DejaVuSans-32" d="M 1228 531 
L 3431 531 
L 3431 0 
L 469 0 
L 469 531 
Q 828 903 1448 1529 
Q 2069 2156 2228 2338 
Q 2531 2678 2651 2914 
Q 2772 3150 2772 3378 
Q 2772 3750 2511 3984 
Q 2250 4219 1831 4219 
Q 1534 4219 1204 4116 
Q 875 4013 500 3803 
L 500 4441 
Q 881 4594 1212 4672 
Q 1544 4750 1819 4750 
Q 2544 4750 2975 4387 
Q 3406 4025 3406 3419 
Q 3406 3131 3298 2873 
Q 3191 2616 2906 2266 
Q 2828 2175 2409 1742 
Q 1991 1309 1228 531 
z
" transform="scale(0.015625)"/>
       </defs>
       <use xlink:href="#DejaVuSans-32"/>
       <use xlink:href="#DejaVuSans-30" x="63.623047"/>
       <use xlink:href="#DejaVuSans-30" x="127.246094"/>
      </g>
     </g>
    </g>
    <g id="xtick_4">
     <g id="line2d_7">
      <path d="M 182.295768 188.638125 
L 182.295768 22.318125 
" clip-path="url(#p51f8a8c74e)" style="fill: none; stroke: #b0b0b0; stroke-width: 0.8; stroke-linecap: square"/>
     </g>
     <g id="line2d_8">
      <g>
       <use xlink:href="#me7cbe296d4" x="182.295768" y="188.638125" style="stroke: #000000; stroke-width: 0.8"/>
      </g>
     </g>
     <g id="text_4">
      <!-- 300 -->
      <g transform="translate(172.752018 203.236563) scale(0.1 -0.1)">
       <defs>
        <path id="DejaVuSans-33" d="M 2597 2516 
Q 3050 2419 3304 2112 
Q 3559 1806 3559 1356 
Q 3559 666 3084 287 
Q 2609 -91 1734 -91 
Q 1441 -91 1130 -33 
Q 819 25 488 141 
L 488 750 
Q 750 597 1062 519 
Q 1375 441 1716 441 
Q 2309 441 2620 675 
Q 2931 909 2931 1356 
Q 2931 1769 2642 2001 
Q 2353 2234 1838 2234 
L 1294 2234 
L 1294 2753 
L 1863 2753 
Q 2328 2753 2575 2939 
Q 2822 3125 2822 3475 
Q 2822 3834 2567 4026 
Q 2313 4219 1838 4219 
Q 1578 4219 1281 4162 
Q 984 4106 628 3988 
L 628 4550 
Q 988 4650 1302 4700 
Q 1616 4750 1894 4750 
Q 2613 4750 3031 4423 
Q 3450 4097 3450 3541 
Q 3450 3153 3228 2886 
Q 3006 2619 2597 2516 
z
" transform="scale(0.015625)"/>
       </defs>
       <use xlink:href="#DejaVuSans-33"/>
       <use xlink:href="#DejaVuSans-30" x="63.623047"/>
       <use xlink:href="#DejaVuSans-30" x="127.246094"/>
      </g>
     </g>
    </g>
    <g id="xtick_5">
     <g id="line2d_9">
      <path d="M 225.284982 188.638125 
L 225.284982 22.318125 
" clip-path="url(#p51f8a8c74e)" style="fill: none; stroke: #b0b0b0; stroke-width: 0.8; stroke-linecap: square"/>
     </g>
     <g id="line2d_10">
      <g>
       <use xlink:href="#me7cbe296d4" x="225.284982" y="188.638125" style="stroke: #000000; stroke-width: 0.8"/>
      </g>
     </g>
     <g id="text_5">
      <!-- 400 -->
      <g transform="translate(215.741232 203.236563) scale(0.1 -0.1)">
       <defs>
        <path id="DejaVuSans-34" d="M 2419 4116 
L 825 1625 
L 2419 1625 
L 2419 4116 
z
M 2253 4666 
L 3047 4666 
L 3047 1625 
L 3713 1625 
L 3713 1100 
L 3047 1100 
L 3047 0 
L 2419 0 
L 2419 1100 
L 313 1100 
L 313 1709 
L 2253 4666 
z
" transform="scale(0.015625)"/>
       </defs>
       <use xlink:href="#DejaVuSans-34"/>
       <use xlink:href="#DejaVuSans-30" x="63.623047"/>
       <use xlink:href="#DejaVuSans-30" x="127.246094"/>
      </g>
     </g>
    </g>
    <g id="xtick_6">
     <g id="line2d_11">
      <path d="M 268.274196 188.638125 
L 268.274196 22.318125 
" clip-path="url(#p51f8a8c74e)" style="fill: none; stroke: #b0b0b0; stroke-width: 0.8; stroke-linecap: square"/>
     </g>
     <g id="line2d_12">
      <g>
       <use xlink:href="#me7cbe296d4" x="268.274196" y="188.638125" style="stroke: #000000; stroke-width: 0.8"/>
      </g>
     </g>
     <g id="text_6">
      <!-- 500 -->
      <g transform="translate(258.730446 203.236563) scale(0.1 -0.1)">
       <defs>
        <path id="DejaVuSans-35" d="M 691 4666 
L 3169 4666 
L 3169 4134 
L 1269 4134 
L 1269 2991 
Q 1406 3038 1543 3061 
Q 1681 3084 1819 3084 
Q 2600 3084 3056 2656 
Q 3513 2228 3513 1497 
Q 3513 744 3044 326 
Q 2575 -91 1722 -91 
Q 1428 -91 1123 -41 
Q 819 9 494 109 
L 494 744 
Q 775 591 1075 516 
Q 1375 441 1709 441 
Q 2250 441 2565 725 
Q 2881 1009 2881 1497 
Q 2881 1984 2565 2268 
Q 2250 2553 1709 2553 
Q 1456 2553 1204 2497 
Q 953 2441 691 2322 
L 691 4666 
z
" transform="scale(0.015625)"/>
       </defs>
       <use xlink:href="#DejaVuSans-35"/>
       <use xlink:href="#DejaVuSans-30" x="63.623047"/>
       <use xlink:href="#DejaVuSans-30" x="127.246094"/>
      </g>
     </g>
    </g>
    <g id="xtick_7">
     <g id="line2d_13">
      <path d="M 311.26341 188.638125 
L 311.26341 22.318125 
" clip-path="url(#p51f8a8c74e)" style="fill: none; stroke: #b0b0b0; stroke-width: 0.8; stroke-linecap: square"/>
     </g>
     <g id="line2d_14">
      <g>
       <use xlink:href="#me7cbe296d4" x="311.26341" y="188.638125" style="stroke: #000000; stroke-width: 0.8"/>
      </g>
     </g>
     <g id="text_7">
      <!-- 600 -->
      <g transform="translate(301.71966 203.236563) scale(0.1 -0.1)">
       <defs>
        <path id="DejaVuSans-36" d="M 2113 2584 
Q 1688 2584 1439 2293 
Q 1191 2003 1191 1497 
Q 1191 994 1439 701 
Q 1688 409 2113 409 
Q 2538 409 2786 701 
Q 3034 994 3034 1497 
Q 3034 2003 2786 2293 
Q 2538 2584 2113 2584 
z
M 3366 4563 
L 3366 3988 
Q 3128 4100 2886 4159 
Q 2644 4219 2406 4219 
Q 1781 4219 1451 3797 
Q 1122 3375 1075 2522 
Q 1259 2794 1537 2939 
Q 1816 3084 2150 3084 
Q 2853 3084 3261 2657 
Q 3669 2231 3669 1497 
Q 3669 778 3244 343 
Q 2819 -91 2113 -91 
Q 1303 -91 875 529 
Q 447 1150 447 2328 
Q 447 3434 972 4092 
Q 1497 4750 2381 4750 
Q 2619 4750 2861 4703 
Q 3103 4656 3366 4563 
z
" transform="scale(0.015625)"/>
       </defs>
       <use xlink:href="#DejaVuSans-36"/>
       <use xlink:href="#DejaVuSans-30" x="63.623047"/>
       <use xlink:href="#DejaVuSans-30" x="127.246094"/>
      </g>
     </g>
    </g>
    <g id="xtick_8">
     <g id="line2d_15">
      <path d="M 354.252624 188.638125 
L 354.252624 22.318125 
" clip-path="url(#p51f8a8c74e)" style="fill: none; stroke: #b0b0b0; stroke-width: 0.8; stroke-linecap: square"/>
     </g>
     <g id="line2d_16">
      <g>
       <use xlink:href="#me7cbe296d4" x="354.252624" y="188.638125" style="stroke: #000000; stroke-width: 0.8"/>
      </g>
     </g>
     <g id="text_8">
      <!-- 700 -->
      <g transform="translate(344.708874 203.236563) scale(0.1 -0.1)">
       <defs>
        <path id="DejaVuSans-37" d="M 525 4666 
L 3525 4666 
L 3525 4397 
L 1831 0 
L 1172 0 
L 2766 4134 
L 525 4134 
L 525 4666 
z
" transform="scale(0.015625)"/>
       </defs>
       <use xlink:href="#DejaVuSans-37"/>
       <use xlink:href="#DejaVuSans-30" x="63.623047"/>
       <use xlink:href="#DejaVuSans-30" x="127.246094"/>
      </g>
     </g>
    </g>
    <g id="xtick_9">
     <g id="line2d_17">
      <path d="M 397.241838 188.638125 
L 397.241838 22.318125 
" clip-path="url(#p51f8a8c74e)" style="fill: none; stroke: #b0b0b0; stroke-width: 0.8; stroke-linecap: square"/>
     </g>
     <g id="line2d_18">
      <g>
       <use xlink:href="#me7cbe296d4" x="397.241838" y="188.638125" style="stroke: #000000; stroke-width: 0.8"/>
      </g>
     </g>
     <g id="text_9">
      <!-- 800 -->
      <g transform="translate(387.698088 203.236563) scale(0.1 -0.1)">
       <defs>
        <path id="DejaVuSans-38" d="M 2034 2216 
Q 1584 2216 1326 1975 
Q 1069 1734 1069 1313 
Q 1069 891 1326 650 
Q 1584 409 2034 409 
Q 2484 409 2743 651 
Q 3003 894 3003 1313 
Q 3003 1734 2745 1975 
Q 2488 2216 2034 2216 
z
M 1403 2484 
Q 997 2584 770 2862 
Q 544 3141 544 3541 
Q 544 4100 942 4425 
Q 1341 4750 2034 4750 
Q 2731 4750 3128 4425 
Q 3525 4100 3525 3541 
Q 3525 3141 3298 2862 
Q 3072 2584 2669 2484 
Q 3125 2378 3379 2068 
Q 3634 1759 3634 1313 
Q 3634 634 3220 271 
Q 2806 -91 2034 -91 
Q 1263 -91 848 271 
Q 434 634 434 1313 
Q 434 1759 690 2068 
Q 947 2378 1403 2484 
z
M 1172 3481 
Q 1172 3119 1398 2916 
Q 1625 2713 2034 2713 
Q 2441 2713 2670 2916 
Q 2900 3119 2900 3481 
Q 2900 3844 2670 4047 
Q 2441 4250 2034 4250 
Q 1625 4250 1398 4047 
Q 1172 3844 1172 3481 
z
" transform="scale(0.015625)"/>
       </defs>
       <use xlink:href="#DejaVuSans-38"/>
       <use xlink:href="#DejaVuSans-30" x="63.623047"/>
       <use xlink:href="#DejaVuSans-30" x="127.246094"/>
      </g>
     </g>
    </g>
    <g id="text_10">
     <!-- Time in seconds -->
     <g transform="translate(203.148366 216.914688) scale(0.1 -0.1)">
      <defs>
       <path id="DejaVuSans-54" d="M -19 4666 
L 3928 4666 
L 3928 4134 
L 2272 4134 
L 2272 0 
L 1638 0 
L 1638 4134 
L -19 4134 
L -19 4666 
z
" transform="scale(0.015625)"/>
       <path id="DejaVuSans-69" d="M 603 3500 
L 1178 3500 
L 1178 0 
L 603 0 
L 603 3500 
z
M 603 4863 
L 1178 4863 
L 1178 4134 
L 603 4134 
L 603 4863 
z
" transform="scale(0.015625)"/>
       <path id="DejaVuSans-6d" d="M 3328 2828 
Q 3544 3216 3844 3400 
Q 4144 3584 4550 3584 
Q 5097 3584 5394 3201 
Q 5691 2819 5691 2113 
L 5691 0 
L 5113 0 
L 5113 2094 
Q 5113 2597 4934 2840 
Q 4756 3084 4391 3084 
Q 3944 3084 3684 2787 
Q 3425 2491 3425 1978 
L 3425 0 
L 2847 0 
L 2847 2094 
Q 2847 2600 2669 2842 
Q 2491 3084 2119 3084 
Q 1678 3084 1418 2786 
Q 1159 2488 1159 1978 
L 1159 0 
L 581 0 
L 581 3500 
L 1159 3500 
L 1159 2956 
Q 1356 3278 1631 3431 
Q 1906 3584 2284 3584 
Q 2666 3584 2933 3390 
Q 3200 3197 3328 2828 
z
" transform="scale(0.015625)"/>
       <path id="DejaVuSans-65" d="M 3597 1894 
L 3597 1613 
L 953 1613 
Q 991 1019 1311 708 
Q 1631 397 2203 397 
Q 2534 397 2845 478 
Q 3156 559 3463 722 
L 3463 178 
Q 3153 47 2828 -22 
Q 2503 -91 2169 -91 
Q 1331 -91 842 396 
Q 353 884 353 1716 
Q 353 2575 817 3079 
Q 1281 3584 2069 3584 
Q 2775 3584 3186 3129 
Q 3597 2675 3597 1894 
z
M 3022 2063 
Q 3016 2534 2758 2815 
Q 2500 3097 2075 3097 
Q 1594 3097 1305 2825 
Q 1016 2553 972 2059 
L 3022 2063 
z
" transform="scale(0.015625)"/>
       <path id="DejaVuSans-20" transform="scale(0.015625)"/>
       <path id="DejaVuSans-6e" d="M 3513 2113 
L 3513 0 
L 2938 0 
L 2938 2094 
Q 2938 2591 2744 2837 
Q 2550 3084 2163 3084 
Q 1697 3084 1428 2787 
Q 1159 2491 1159 1978 
L 1159 0 
L 581 0 
L 581 3500 
L 1159 3500 
L 1159 2956 
Q 1366 3272 1645 3428 
Q 1925 3584 2291 3584 
Q 2894 3584 3203 3211 
Q 3513 2838 3513 2113 
z
" transform="scale(0.015625)"/>
       <path id="DejaVuSans-73" d="M 2834 3397 
L 2834 2853 
Q 2591 2978 2328 3040 
Q 2066 3103 1784 3103 
Q 1356 3103 1142 2972 
Q 928 2841 928 2578 
Q 928 2378 1081 2264 
Q 1234 2150 1697 2047 
L 1894 2003 
Q 2506 1872 2764 1633 
Q 3022 1394 3022 966 
Q 3022 478 2636 193 
Q 2250 -91 1575 -91 
Q 1294 -91 989 -36 
Q 684 19 347 128 
L 347 722 
Q 666 556 975 473 
Q 1284 391 1588 391 
Q 1994 391 2212 530 
Q 2431 669 2431 922 
Q 2431 1156 2273 1281 
Q 2116 1406 1581 1522 
L 1381 1569 
Q 847 1681 609 1914 
Q 372 2147 372 2553 
Q 372 3047 722 3315 
Q 1072 3584 1716 3584 
Q 2034 3584 2315 3537 
Q 2597 3491 2834 3397 
z
" transform="scale(0.015625)"/>
       <path id="DejaVuSans-63" d="M 3122 3366 
L 3122 2828 
Q 2878 2963 2633 3030 
Q 2388 3097 2138 3097 
Q 1578 3097 1268 2742 
Q 959 2388 959 1747 
Q 959 1106 1268 751 
Q 1578 397 2138 397 
Q 2388 397 2633 464 
Q 2878 531 3122 666 
L 3122 134 
Q 2881 22 2623 -34 
Q 2366 -91 2075 -91 
Q 1284 -91 818 406 
Q 353 903 353 1747 
Q 353 2603 823 3093 
Q 1294 3584 2113 3584 
Q 2378 3584 2631 3529 
Q 2884 3475 3122 3366 
z
" transform="scale(0.015625)"/>
       <path id="DejaVuSans-6f" d="M 1959 3097 
Q 1497 3097 1228 2736 
Q 959 2375 959 1747 
Q 959 1119 1226 758 
Q 1494 397 1959 397 
Q 2419 397 2687 759 
Q 2956 1122 2956 1747 
Q 2956 2369 2687 2733 
Q 2419 3097 1959 3097 
z
M 1959 3584 
Q 2709 3584 3137 3096 
Q 3566 2609 3566 1747 
Q 3566 888 3137 398 
Q 2709 -91 1959 -91 
Q 1206 -91 779 398 
Q 353 888 353 1747 
Q 353 2609 779 3096 
Q 1206 3584 1959 3584 
z
" transform="scale(0.015625)"/>
       <path id="DejaVuSans-64" d="M 2906 2969 
L 2906 4863 
L 3481 4863 
L 3481 0 
L 2906 0 
L 2906 525 
Q 2725 213 2448 61 
Q 2172 -91 1784 -91 
Q 1150 -91 751 415 
Q 353 922 353 1747 
Q 353 2572 751 3078 
Q 1150 3584 1784 3584 
Q 2172 3584 2448 3432 
Q 2725 3281 2906 2969 
z
M 947 1747 
Q 947 1113 1208 752 
Q 1469 391 1925 391 
Q 2381 391 2643 752 
Q 2906 1113 2906 1747 
Q 2906 2381 2643 2742 
Q 2381 3103 1925 3103 
Q 1469 3103 1208 2742 
Q 947 2381 947 1747 
z
" transform="scale(0.015625)"/>
      </defs>
      <use xlink:href="#DejaVuSans-54"/>
      <use xlink:href="#DejaVuSans-69" x="57.958984"/>
      <use xlink:href="#DejaVuSans-6d" x="85.742188"/>
      <use xlink:href="#DejaVuSans-65" x="183.154297"/>
      <use xlink:href="#DejaVuSans-20" x="244.677734"/>
      <use xlink:href="#DejaVuSans-69" x="276.464844"/>
      <use xlink:href="#DejaVuSans-6e" x="304.248047"/>
      <use xlink:href="#DejaVuSans-20" x="367.626953"/>
      <use xlink:href="#DejaVuSans-73" x="399.414062"/>
      <use xlink:href="#DejaVuSans-65" x="451.513672"/>
      <use xlink:href="#DejaVuSans-63" x="513.037109"/>
      <use xlink:href="#DejaVuSans-6f" x="568.017578"/>
      <use xlink:href="#DejaVuSans-6e" x="629.199219"/>
      <use xlink:href="#DejaVuSans-64" x="692.578125"/>
      <use xlink:href="#DejaVuSans-73" x="756.054688"/>
     </g>
    </g>
   </g>
   <g id="matplotlib.axis_2">
    <g id="ytick_1">
     <g id="line2d_19">
      <path d="M 53.328125 188.638125 
L 433.78267 188.638125 
" clip-path="url(#p51f8a8c74e)" style="fill: none; stroke: #b0b0b0; stroke-width: 0.8; stroke-linecap: square"/>
     </g>
     <g id="line2d_20">
      <defs>
       <path id="m7808196c26" d="M 0 0 
L -3.5 0 
" style="stroke: #000000; stroke-width: 0.8"/>
      </defs>
      <g>
       <use xlink:href="#m7808196c26" x="53.328125" y="188.638125" style="stroke: #000000; stroke-width: 0.8"/>
      </g>
     </g>
     <g id="text_11">
      <!-- 0 -->
      <g transform="translate(39.965625 192.437344) scale(0.1 -0.1)">
       <use xlink:href="#DejaVuSans-30"/>
      </g>
     </g>
    </g>
    <g id="ytick_2">
     <g id="line2d_21">
      <path d="M 53.328125 153.221691 
L 433.78267 153.221691 
" clip-path="url(#p51f8a8c74e)" style="fill: none; stroke: #b0b0b0; stroke-width: 0.8; stroke-linecap: square"/>
     </g>
     <g id="line2d_22">
      <g>
       <use xlink:href="#m7808196c26" x="53.328125" y="153.221691" style="stroke: #000000; stroke-width: 0.8"/>
      </g>
     </g>
     <g id="text_12">
      <!-- 2000 -->
      <g transform="translate(20.878125 157.02091) scale(0.1 -0.1)">
       <use xlink:href="#DejaVuSans-32"/>
       <use xlink:href="#DejaVuSans-30" x="63.623047"/>
       <use xlink:href="#DejaVuSans-30" x="127.246094"/>
       <use xlink:href="#DejaVuSans-30" x="190.869141"/>
      </g>
     </g>
    </g>
    <g id="ytick_3">
     <g id="line2d_23">
      <path d="M 53.328125 117.805257 
L 433.78267 117.805257 
" clip-path="url(#p51f8a8c74e)" style="fill: none; stroke: #b0b0b0; stroke-width: 0.8; stroke-linecap: square"/>
     </g>
     <g id="line2d_24">
      <g>
       <use xlink:href="#m7808196c26" x="53.328125" y="117.805257" style="stroke: #000000; stroke-width: 0.8"/>
      </g>
     </g>
     <g id="text_13">
      <!-- 4000 -->
      <g transform="translate(20.878125 121.604476) scale(0.1 -0.1)">
       <use xlink:href="#DejaVuSans-34"/>
       <use xlink:href="#DejaVuSans-30" x="63.623047"/>
       <use xlink:href="#DejaVuSans-30" x="127.246094"/>
       <use xlink:href="#DejaVuSans-30" x="190.869141"/>
      </g>
     </g>
    </g>
    <g id="ytick_4">
     <g id="line2d_25">
      <path d="M 53.328125 82.388824 
L 433.78267 82.388824 
" clip-path="url(#p51f8a8c74e)" style="fill: none; stroke: #b0b0b0; stroke-width: 0.8; stroke-linecap: square"/>
     </g>
     <g id="line2d_26">
      <g>
       <use xlink:href="#m7808196c26" x="53.328125" y="82.388824" style="stroke: #000000; stroke-width: 0.8"/>
      </g>
     </g>
     <g id="text_14">
      <!-- 6000 -->
      <g transform="translate(20.878125 86.188042) scale(0.1 -0.1)">
       <use xlink:href="#DejaVuSans-36"/>
       <use xlink:href="#DejaVuSans-30" x="63.623047"/>
       <use xlink:href="#DejaVuSans-30" x="127.246094"/>
       <use xlink:href="#DejaVuSans-30" x="190.869141"/>
      </g>
     </g>
    </g>
    <g id="ytick_5">
     <g id="line2d_27">
      <path d="M 53.328125 46.97239 
L 433.78267 46.97239 
" clip-path="url(#p51f8a8c74e)" style="fill: none; stroke: #b0b0b0; stroke-width: 0.8; stroke-linecap: square"/>
     </g>
     <g id="line2d_28">
      <g>
       <use xlink:href="#m7808196c26" x="53.328125" y="46.97239" style="stroke: #000000; stroke-width: 0.8"/>
      </g>
     </g>
     <g id="text_15">
      <!-- 8000 -->
      <g transform="translate(20.878125 50.771609) scale(0.1 -0.1)">
       <use xlink:href="#DejaVuSans-38"/>
       <use xlink:href="#DejaVuSans-30" x="63.623047"/>
       <use xlink:href="#DejaVuSans-30" x="127.246094"/>
       <use xlink:href="#DejaVuSans-30" x="190.869141"/>
      </g>
     </g>
    </g>
    <g id="text_16">
     <!-- count -->
     <g transform="translate(14.798438 119.584375) rotate(-90) scale(0.1 -0.1)">
      <defs>
       <path id="DejaVuSans-75" d="M 544 1381 
L 544 3500 
L 1119 3500 
L 1119 1403 
Q 1119 906 1312 657 
Q 1506 409 1894 409 
Q 2359 409 2629 706 
Q 2900 1003 2900 1516 
L 2900 3500 
L 3475 3500 
L 3475 0 
L 2900 0 
L 2900 538 
Q 2691 219 2414 64 
Q 2138 -91 1772 -91 
Q 1169 -91 856 284 
Q 544 659 544 1381 
z
M 1991 3584 
L 1991 3584 
z
" transform="scale(0.015625)"/>
       <path id="DejaVuSans-74" d="M 1172 4494 
L 1172 3500 
L 2356 3500 
L 2356 3053 
L 1172 3053 
L 1172 1153 
Q 1172 725 1289 603 
Q 1406 481 1766 481 
L 2356 481 
L 2356 0 
L 1766 0 
Q 1100 0 847 248 
Q 594 497 594 1153 
L 594 3053 
L 172 3053 
L 172 3500 
L 594 3500 
L 594 4494 
L 1172 4494 
z
" transform="scale(0.015625)"/>
      </defs>
      <use xlink:href="#DejaVuSans-63"/>
      <use xlink:href="#DejaVuSans-6f" x="54.980469"/>
      <use xlink:href="#DejaVuSans-75" x="116.162109"/>
      <use xlink:href="#DejaVuSans-6e" x="179.541016"/>
      <use xlink:href="#DejaVuSans-74" x="242.919922"/>
     </g>
    </g>
   </g>
   <g id="line2d_29">
    <path d="M 53.328125 186.761054 
L 59.776507 184.335028 
L 66.224889 181.448589 
L 72.673271 179.093396 
L 79.121654 175.905917 
L 85.570036 173.69239 
L 92.018418 170.805951 
L 98.4668 168.273676 
L 104.915182 165.475777 
L 111.363564 163.032043 
L 117.811946 160.127896 
L 124.260328 157.754995 
L 130.708711 154.762306 
L 137.157093 152.424821 
L 143.605475 149.432133 
L 150.053857 147.006107 
L 156.502239 144.279042 
L 162.950621 141.835308 
L 169.399003 138.878036 
L 175.847385 136.381177 
L 182.295768 133.530154 
L 188.74415 131.174961 
L 195.192532 128.182273 
L 201.640914 125.82708 
L 208.089296 122.922932 
L 214.537678 120.603156 
L 220.98606 117.645884 
L 227.434442 115.149025 
L 233.882825 112.404251 
L 240.331207 109.765727 
L 246.779589 107.038662 
L 253.227971 104.541803 
L 259.676353 101.69078 
L 266.124735 99.247046 
L 272.573117 96.449148 
L 279.021499 93.969998 
L 285.469882 90.995017 
L 291.918264 88.657532 
L 298.366646 85.576303 
L 304.815028 83.327359 
L 311.26341 80.352379 
L 317.711792 78.014894 
L 324.160174 75.128455 
L 330.608556 72.649304 
L 337.056939 69.851406 
L 343.505321 67.42538 
L 349.953703 64.521233 
L 356.402085 62.130624 
L 362.850467 59.244184 
L 369.298849 56.711909 
L 375.747231 53.896303 
L 382.195613 51.558818 
L 388.643996 48.530713 
L 395.092378 46.157812 
L 401.54076 43.413038 
L 407.989142 40.80993 
L 414.437524 37.941199 
L 420.885906 35.603715 
L 427.334288 32.557901 
L 433.78267 30.238125 
" clip-path="url(#p51f8a8c74e)" style="fill: none; stroke: #1f77b4; stroke-width: 1.5; stroke-linecap: square"/>
   </g>
   <g id="patch_3">
    <path d="M 53.328125 188.638125 
L 53.328125 22.318125 
" style="fill: none; stroke: #000000; stroke-width: 0.8; stroke-linejoin: miter; stroke-linecap: square"/>
   </g>
   <g id="patch_4">
    <path d="M 433.78267 188.638125 
L 433.78267 22.318125 
" style="fill: none; stroke: #000000; stroke-width: 0.8; stroke-linejoin: miter; stroke-linecap: square"/>
   </g>
   <g id="patch_5">
    <path d="M 53.328125 188.638125 
L 433.78267 188.638125 
" style="fill: none; stroke: #000000; stroke-width: 0.8; stroke-linejoin: miter; stroke-linecap: square"/>
   </g>
   <g id="patch_6">
    <path d="M 53.328125 22.318125 
L 433.78267 22.318125 
" style="fill: none; stroke: #000000; stroke-width: 0.8; stroke-linejoin: miter; stroke-linecap: square"/>
   </g>
   <g id="text_17">
    <!-- Website Count -->
    <g transform="translate(199.912898 16.318125) scale(0.12 -0.12)">
     <defs>
      <path id="DejaVuSans-57" d="M 213 4666 
L 850 4666 
L 1831 722 
L 2809 4666 
L 3519 4666 
L 4500 722 
L 5478 4666 
L 6119 4666 
L 4947 0 
L 4153 0 
L 3169 4050 
L 2175 0 
L 1381 0 
L 213 4666 
z
" transform="scale(0.015625)"/>
      <path id="DejaVuSans-62" d="M 3116 1747 
Q 3116 2381 2855 2742 
Q 2594 3103 2138 3103 
Q 1681 3103 1420 2742 
Q 1159 2381 1159 1747 
Q 1159 1113 1420 752 
Q 1681 391 2138 391 
Q 2594 391 2855 752 
Q 3116 1113 3116 1747 
z
M 1159 2969 
Q 1341 3281 1617 3432 
Q 1894 3584 2278 3584 
Q 2916 3584 3314 3078 
Q 3713 2572 3713 1747 
Q 3713 922 3314 415 
Q 2916 -91 2278 -91 
Q 1894 -91 1617 61 
Q 1341 213 1159 525 
L 1159 0 
L 581 0 
L 581 4863 
L 1159 4863 
L 1159 2969 
z
" transform="scale(0.015625)"/>
      <path id="DejaVuSans-43" d="M 4122 4306 
L 4122 3641 
Q 3803 3938 3442 4084 
Q 3081 4231 2675 4231 
Q 1875 4231 1450 3742 
Q 1025 3253 1025 2328 
Q 1025 1406 1450 917 
Q 1875 428 2675 428 
Q 3081 428 3442 575 
Q 3803 722 4122 1019 
L 4122 359 
Q 3791 134 3420 21 
Q 3050 -91 2638 -91 
Q 1578 -91 968 557 
Q 359 1206 359 2328 
Q 359 3453 968 4101 
Q 1578 4750 2638 4750 
Q 3056 4750 3426 4639 
Q 3797 4528 4122 4306 
z
" transform="scale(0.015625)"/>
     </defs>
     <use xlink:href="#DejaVuSans-57"/>
     <use xlink:href="#DejaVuSans-65" x="93.001953"/>
     <use xlink:href="#DejaVuSans-62" x="154.525391"/>
     <use xlink:href="#DejaVuSans-73" x="218.001953"/>
     <use xlink:href="#DejaVuSans-69" x="270.101562"/>
     <use xlink:href="#DejaVuSans-74" x="297.884766"/>
     <use xlink:href="#DejaVuSans-65" x="337.09375"/>
     <use xlink:href="#DejaVuSans-20" x="398.617188"/>
     <use xlink:href="#DejaVuSans-43" x="430.404297"/>
     <use xlink:href="#DejaVuSans-6f" x="500.228516"/>
     <use xlink:href="#DejaVuSans-75" x="561.410156"/>
     <use xlink:href="#DejaVuSans-6e" x="624.789062"/>
     <use xlink:href="#DejaVuSans-74" x="688.167969"/>
    </g>
   </g>
  </g>
  <g id="axes_2">
   <g id="patch_7">
    <path d="M 509.87358 188.638125 
L 890.328125 188.638125 
L 890.328125 22.318125 
L 509.87358 22.318125 
z
" style="fill: #ffffff"/>
   </g>
   <g id="PolyCollection_2">
    <defs>
     <path id="m3f5a3b7ca3" d="M 509.87358 -38.405018 
L 509.87358 -37.55625 
L 516.433141 -37.55625 
L 522.992702 -37.55625 
L 529.552263 -37.55625 
L 536.111824 -37.55625 
L 542.671385 -37.55625 
L 549.230946 -37.55625 
L 555.790507 -37.55625 
L 562.350069 -37.55625 
L 568.90963 -37.55625 
L 575.469191 -37.55625 
L 582.028752 -37.55625 
L 588.588313 -37.55625 
L 595.147874 -37.55625 
L 601.707435 -37.55625 
L 608.266996 -37.55625 
L 614.826558 -37.55625 
L 621.386119 -37.55625 
L 627.94568 -37.55625 
L 634.505241 -37.55625 
L 641.064802 -37.55625 
L 647.624363 -37.55625 
L 654.183924 -37.55625 
L 660.743486 -37.55625 
L 667.303047 -37.55625 
L 673.862608 -37.55625 
L 680.422169 -37.55625 
L 686.98173 -37.55625 
L 693.541291 -37.55625 
L 700.100852 -37.55625 
L 706.660413 -37.55625 
L 713.219975 -37.55625 
L 719.779536 -37.55625 
L 726.339097 -37.55625 
L 732.898658 -37.55625 
L 739.458219 -37.55625 
L 746.01778 -37.55625 
L 752.577341 -37.55625 
L 759.136902 -37.55625 
L 765.696464 -37.55625 
L 772.256025 -37.55625 
L 778.815586 -37.55625 
L 785.375147 -37.55625 
L 791.934708 -37.55625 
L 798.494269 -37.55625 
L 805.05383 -37.55625 
L 811.613391 -37.55625 
L 818.172953 -37.55625 
L 824.732514 -37.55625 
L 831.292075 -37.55625 
L 837.851636 -37.55625 
L 844.411197 -37.55625 
L 850.970758 -37.55625 
L 857.530319 -37.55625 
L 864.08988 -37.55625 
L 870.649442 -37.55625 
L 877.209003 -37.55625 
L 883.768564 -37.55625 
L 890.328125 -37.55625 
L 890.328125 -39.590932 
L 890.328125 -39.590932 
L 883.768564 -39.590932 
L 877.209003 -39.590932 
L 870.649442 -39.590932 
L 864.08988 -39.590932 
L 857.530319 -39.590932 
L 850.970758 -39.590932 
L 844.411197 -39.590932 
L 837.851636 -39.590932 
L 831.292075 -39.590932 
L 824.732514 -39.590932 
L 818.172953 -39.590932 
L 811.613391 -39.590932 
L 805.05383 -39.590932 
L 798.494269 -39.590932 
L 791.934708 -39.592154 
L 785.375147 -39.590932 
L 778.815586 -39.590932 
L 772.256025 -39.590932 
L 765.696464 -39.590932 
L 759.136902 -39.590932 
L 752.577341 -39.590932 
L 746.01778 -39.590932 
L 739.458219 -39.590932 
L 732.898658 -39.590932 
L 726.339097 -39.590932 
L 719.779536 -39.590932 
L 713.219975 -39.590932 
L 706.660413 -39.590932 
L 700.100852 -39.590932 
L 693.541291 -39.590932 
L 686.98173 -39.590932 
L 680.422169 -39.590932 
L 673.862608 -39.590932 
L 667.303047 -39.590932 
L 660.743486 -39.590932 
L 654.183924 -39.590932 
L 647.624363 -39.590932 
L 641.064802 -39.590932 
L 634.505241 -39.590932 
L 627.94568 -39.590932 
L 621.386119 -39.590932 
L 614.826558 -39.590932 
L 608.266996 -39.590932 
L 601.707435 -39.590932 
L 595.147874 -39.590932 
L 588.588313 -39.590932 
L 582.028752 -39.590932 
L 575.469191 -39.590932 
L 568.90963 -39.590932 
L 562.350069 -39.590932 
L 555.790507 -39.590932 
L 549.230946 -39.590932 
L 542.671385 -39.590932 
L 536.111824 -39.590932 
L 529.552263 -39.590932 
L 522.992702 -39.590932 
L 516.433141 -38.913688 
L 509.87358 -38.405018 
z
" style="stroke: #1f77b4"/>
    </defs>
    <g clip-path="url(#pfe0558ddfc)">
     <use xlink:href="#m3f5a3b7ca3" x="0" y="226.194375" style="fill: #1f77b4; stroke: #1f77b4"/>
    </g>
   </g>
   <g id="PolyCollection_3">
    <defs>
     <path id="mba8705b958" d="M 509.87358 -44.616699 
L 509.87358 -38.405018 
L 516.433141 -38.913688 
L 522.992702 -39.590932 
L 529.552263 -39.590932 
L 536.111824 -39.590932 
L 542.671385 -39.590932 
L 549.230946 -39.590932 
L 555.790507 -39.590932 
L 562.350069 -39.590932 
L 568.90963 -39.590932 
L 575.469191 -39.590932 
L 582.028752 -39.590932 
L 588.588313 -39.590932 
L 595.147874 -39.590932 
L 601.707435 -39.590932 
L 608.266996 -39.590932 
L 614.826558 -39.590932 
L 621.386119 -39.590932 
L 627.94568 -39.590932 
L 634.505241 -39.590932 
L 641.064802 -39.590932 
L 647.624363 -39.590932 
L 654.183924 -39.590932 
L 660.743486 -39.590932 
L 667.303047 -39.590932 
L 673.862608 -39.590932 
L 680.422169 -39.590932 
L 686.98173 -39.590932 
L 693.541291 -39.590932 
L 700.100852 -39.590932 
L 706.660413 -39.590932 
L 713.219975 -39.590932 
L 719.779536 -39.590932 
L 726.339097 -39.590932 
L 732.898658 -39.590932 
L 739.458219 -39.590932 
L 746.01778 -39.590932 
L 752.577341 -39.590932 
L 759.136902 -39.590932 
L 765.696464 -39.590932 
L 772.256025 -39.590932 
L 778.815586 -39.590932 
L 785.375147 -39.590932 
L 791.934708 -39.592154 
L 798.494269 -39.590932 
L 805.05383 -39.590932 
L 811.613391 -39.590932 
L 818.172953 -39.590932 
L 824.732514 -39.590932 
L 831.292075 -39.590932 
L 837.851636 -39.590932 
L 844.411197 -39.590932 
L 850.970758 -39.590932 
L 857.530319 -39.590932 
L 864.08988 -39.590932 
L 870.649442 -39.590932 
L 877.209003 -39.590932 
L 883.768564 -39.590932 
L 890.328125 -39.590932 
L 890.328125 -51.799025 
L 890.328125 -51.799025 
L 883.768564 -51.799025 
L 877.209003 -51.799025 
L 870.649442 -51.799025 
L 864.08988 -51.799025 
L 857.530319 -51.799025 
L 850.970758 -51.799025 
L 844.411197 -51.799025 
L 837.851636 -51.799025 
L 831.292075 -51.799025 
L 824.732514 -51.799025 
L 818.172953 -51.799025 
L 811.613391 -51.799025 
L 805.05383 -51.799025 
L 798.494269 -51.799025 
L 791.934708 -51.807575 
L 785.375147 -51.799025 
L 778.815586 -51.799025 
L 772.256025 -51.799025 
L 765.696464 -51.799025 
L 759.136902 -51.799025 
L 752.577341 -51.799025 
L 746.01778 -51.799025 
L 739.458219 -51.799025 
L 732.898658 -51.799025 
L 726.339097 -51.799025 
L 719.779536 -51.799025 
L 713.219975 -51.799025 
L 706.660413 -51.799025 
L 700.100852 -51.799025 
L 693.541291 -51.799025 
L 686.98173 -51.799025 
L 680.422169 -51.799025 
L 673.862608 -51.799025 
L 667.303047 -51.799025 
L 660.743486 -51.799025 
L 654.183924 -51.799025 
L 647.624363 -51.799025 
L 641.064802 -51.799025 
L 634.505241 -51.799025 
L 627.94568 -51.799025 
L 621.386119 -51.799025 
L 614.826558 -51.799025 
L 608.266996 -51.799025 
L 601.707435 -51.799025 
L 595.147874 -51.799025 
L 588.588313 -51.799025 
L 582.028752 -51.799025 
L 575.469191 -51.799025 
L 568.90963 -51.799025 
L 562.350069 -51.799025 
L 555.790507 -51.799025 
L 549.230946 -51.799025 
L 542.671385 -51.799025 
L 536.111824 -51.799025 
L 529.552263 -51.799025 
L 522.992702 -51.799025 
L 516.433141 -48.177392 
L 509.87358 -44.616699 
z
" style="stroke: #ff7f0e"/>
    </defs>
    <g clip-path="url(#pfe0558ddfc)">
     <use xlink:href="#mba8705b958" x="0" y="226.194375" style="fill: #ff7f0e; stroke: #ff7f0e"/>
    </g>
   </g>
   <g id="PolyCollection_4">
    <defs>
     <path id="me295664dd6" d="M 509.87358 -44.616699 
L 509.87358 -44.616699 
L 516.433141 -48.177392 
L 522.992702 -51.799025 
L 529.552263 -51.799025 
L 536.111824 -51.799025 
L 542.671385 -51.799025 
L 549.230946 -51.799025 
L 555.790507 -51.799025 
L 562.350069 -51.799025 
L 568.90963 -51.799025 
L 575.469191 -51.799025 
L 582.028752 -51.799025 
L 588.588313 -51.799025 
L 595.147874 -51.799025 
L 601.707435 -51.799025 
L 608.266996 -51.799025 
L 614.826558 -51.799025 
L 621.386119 -51.799025 
L 627.94568 -51.799025 
L 634.505241 -51.799025 
L 641.064802 -51.799025 
L 647.624363 -51.799025 
L 654.183924 -51.799025 
L 660.743486 -51.799025 
L 667.303047 -51.799025 
L 673.862608 -51.799025 
L 680.422169 -51.799025 
L 686.98173 -51.799025 
L 693.541291 -51.799025 
L 700.100852 -51.799025 
L 706.660413 -51.799025 
L 713.219975 -51.799025 
L 719.779536 -51.799025 
L 726.339097 -51.799025 
L 732.898658 -51.799025 
L 739.458219 -51.799025 
L 746.01778 -51.799025 
L 752.577341 -51.799025 
L 759.136902 -51.799025 
L 765.696464 -51.799025 
L 772.256025 -51.799025 
L 778.815586 -51.799025 
L 785.375147 -51.799025 
L 791.934708 -51.807575 
L 798.494269 -51.799025 
L 805.05383 -51.799025 
L 811.613391 -51.799025 
L 818.172953 -51.799025 
L 824.732514 -51.799025 
L 831.292075 -51.799025 
L 837.851636 -51.799025 
L 844.411197 -51.799025 
L 850.970758 -51.799025 
L 857.530319 -51.799025 
L 864.08988 -51.799025 
L 870.649442 -51.799025 
L 877.209003 -51.799025 
L 883.768564 -51.799025 
L 890.328125 -51.799025 
L 890.328125 -195.95625 
L 890.328125 -195.95625 
L 883.768564 -193.148389 
L 877.209003 -190.849198 
L 870.649442 -187.288504 
L 864.08988 -185.884574 
L 857.530319 -183.076712 
L 850.970758 -180.716481 
L 844.411197 -177.094747 
L 837.851636 -175.996019 
L 831.292075 -172.903302 
L 824.732514 -170.726192 
L 818.172953 -166.758562 
L 811.613391 -165.436019 
L 805.05383 -162.445036 
L 798.494269 -160.390007 
L 791.934708 -156.69733 
L 785.375147 -155.364342 
L 778.815586 -152.454747 
L 772.256025 -150.297984 
L 765.696464 -146.493129 
L 759.136902 -145.251973 
L 752.577341 -142.423764 
L 746.01778 -140.185614 
L 739.458219 -136.360412 
L 732.898658 -134.875094 
L 726.339097 -132.067233 
L 719.779536 -129.849429 
L 713.219975 -126.125961 
L 706.660413 -124.762724 
L 700.100852 -122.158331 
L 693.541291 -119.879487 
L 686.98173 -116.135672 
L 680.422169 -114.772435 
L 673.862608 -111.984921 
L 667.303047 -109.787464 
L 660.743486 -106.002955 
L 654.183924 -104.37521 
L 647.624363 -101.587695 
L 641.064802 -99.471626 
L 634.505241 -95.870238 
L 627.94568 -94.26284 
L 621.386119 -91.577059 
L 614.826558 -89.542377 
L 608.266996 -85.717175 
L 601.707435 -84.170816 
L 595.147874 -81.505383 
L 588.588313 -79.450354 
L 582.028752 -75.543764 
L 575.469191 -73.916019 
L 568.90963 -71.209892 
L 562.350069 -69.17521 
L 555.790507 -65.350007 
L 549.230946 -63.459151 
L 542.671385 -60.868313 
L 536.111824 -58.008404 
L 529.552263 -54.150321 
L 522.992702 -51.799025 
L 516.433141 -48.177392 
L 509.87358 -44.616699 
z
" style="stroke: #2ca02c"/>
    </defs>
    <g clip-path="url(#pfe0558ddfc)">
     <use xlink:href="#me295664dd6" x="0" y="226.194375" style="fill: #2ca02c; stroke: #2ca02c"/>
    </g>
   </g>
   <g id="matplotlib.axis_3">
    <g id="xtick_10">
     <g id="line2d_30">
      <path d="M 509.87358 188.638125 
L 509.87358 22.318125 
" clip-path="url(#pfe0558ddfc)" style="fill: none; stroke: #b0b0b0; stroke-width: 0.8; stroke-linecap: square"/>
     </g>
     <g id="line2d_31">
      <g>
       <use xlink:href="#me7cbe296d4" x="509.87358" y="188.638125" style="stroke: #000000; stroke-width: 0.8"/>
      </g>
     </g>
     <g id="text_18">
      <!-- 0 -->
      <g transform="translate(506.69233 203.236563) scale(0.1 -0.1)">
       <use xlink:href="#DejaVuSans-30"/>
      </g>
     </g>
    </g>
    <g id="xtick_11">
     <g id="line2d_32">
      <path d="M 553.603987 188.638125 
L 553.603987 22.318125 
" clip-path="url(#pfe0558ddfc)" style="fill: none; stroke: #b0b0b0; stroke-width: 0.8; stroke-linecap: square"/>
     </g>
     <g id="line2d_33">
      <g>
       <use xlink:href="#me7cbe296d4" x="553.603987" y="188.638125" style="stroke: #000000; stroke-width: 0.8"/>
      </g>
     </g>
     <g id="text_19">
      <!-- 100 -->
      <g transform="translate(544.060237 203.236563) scale(0.1 -0.1)">
       <use xlink:href="#DejaVuSans-31"/>
       <use xlink:href="#DejaVuSans-30" x="63.623047"/>
       <use xlink:href="#DejaVuSans-30" x="127.246094"/>
      </g>
     </g>
    </g>
    <g id="xtick_12">
     <g id="line2d_34">
      <path d="M 597.334395 188.638125 
L 597.334395 22.318125 
" clip-path="url(#pfe0558ddfc)" style="fill: none; stroke: #b0b0b0; stroke-width: 0.8; stroke-linecap: square"/>
     </g>
     <g id="line2d_35">
      <g>
       <use xlink:href="#me7cbe296d4" x="597.334395" y="188.638125" style="stroke: #000000; stroke-width: 0.8"/>
      </g>
     </g>
     <g id="text_20">
      <!-- 200 -->
      <g transform="translate(587.790645 203.236563) scale(0.1 -0.1)">
       <use xlink:href="#DejaVuSans-32"/>
       <use xlink:href="#DejaVuSans-30" x="63.623047"/>
       <use xlink:href="#DejaVuSans-30" x="127.246094"/>
      </g>
     </g>
    </g>
    <g id="xtick_13">
     <g id="line2d_36">
      <path d="M 641.064802 188.638125 
L 641.064802 22.318125 
" clip-path="url(#pfe0558ddfc)" style="fill: none; stroke: #b0b0b0; stroke-width: 0.8; stroke-linecap: square"/>
     </g>
     <g id="line2d_37">
      <g>
       <use xlink:href="#me7cbe296d4" x="641.064802" y="188.638125" style="stroke: #000000; stroke-width: 0.8"/>
      </g>
     </g>
     <g id="text_21">
      <!-- 300 -->
      <g transform="translate(631.521052 203.236563) scale(0.1 -0.1)">
       <use xlink:href="#DejaVuSans-33"/>
       <use xlink:href="#DejaVuSans-30" x="63.623047"/>
       <use xlink:href="#DejaVuSans-30" x="127.246094"/>
      </g>
     </g>
    </g>
    <g id="xtick_14">
     <g id="line2d_38">
      <path d="M 684.79521 188.638125 
L 684.79521 22.318125 
" clip-path="url(#pfe0558ddfc)" style="fill: none; stroke: #b0b0b0; stroke-width: 0.8; stroke-linecap: square"/>
     </g>
     <g id="line2d_39">
      <g>
       <use xlink:href="#me7cbe296d4" x="684.79521" y="188.638125" style="stroke: #000000; stroke-width: 0.8"/>
      </g>
     </g>
     <g id="text_22">
      <!-- 400 -->
      <g transform="translate(675.25146 203.236563) scale(0.1 -0.1)">
       <use xlink:href="#DejaVuSans-34"/>
       <use xlink:href="#DejaVuSans-30" x="63.623047"/>
       <use xlink:href="#DejaVuSans-30" x="127.246094"/>
      </g>
     </g>
    </g>
    <g id="xtick_15">
     <g id="line2d_40">
      <path d="M 728.525617 188.638125 
L 728.525617 22.318125 
" clip-path="url(#pfe0558ddfc)" style="fill: none; stroke: #b0b0b0; stroke-width: 0.8; stroke-linecap: square"/>
     </g>
     <g id="line2d_41">
      <g>
       <use xlink:href="#me7cbe296d4" x="728.525617" y="188.638125" style="stroke: #000000; stroke-width: 0.8"/>
      </g>
     </g>
     <g id="text_23">
      <!-- 500 -->
      <g transform="translate(718.981867 203.236563) scale(0.1 -0.1)">
       <use xlink:href="#DejaVuSans-35"/>
       <use xlink:href="#DejaVuSans-30" x="63.623047"/>
       <use xlink:href="#DejaVuSans-30" x="127.246094"/>
      </g>
     </g>
    </g>
    <g id="xtick_16">
     <g id="line2d_42">
      <path d="M 772.256025 188.638125 
L 772.256025 22.318125 
" clip-path="url(#pfe0558ddfc)" style="fill: none; stroke: #b0b0b0; stroke-width: 0.8; stroke-linecap: square"/>
     </g>
     <g id="line2d_43">
      <g>
       <use xlink:href="#me7cbe296d4" x="772.256025" y="188.638125" style="stroke: #000000; stroke-width: 0.8"/>
      </g>
     </g>
     <g id="text_24">
      <!-- 600 -->
      <g transform="translate(762.712275 203.236563) scale(0.1 -0.1)">
       <use xlink:href="#DejaVuSans-36"/>
       <use xlink:href="#DejaVuSans-30" x="63.623047"/>
       <use xlink:href="#DejaVuSans-30" x="127.246094"/>
      </g>
     </g>
    </g>
    <g id="xtick_17">
     <g id="line2d_44">
      <path d="M 815.986432 188.638125 
L 815.986432 22.318125 
" clip-path="url(#pfe0558ddfc)" style="fill: none; stroke: #b0b0b0; stroke-width: 0.8; stroke-linecap: square"/>
     </g>
     <g id="line2d_45">
      <g>
       <use xlink:href="#me7cbe296d4" x="815.986432" y="188.638125" style="stroke: #000000; stroke-width: 0.8"/>
      </g>
     </g>
     <g id="text_25">
      <!-- 700 -->
      <g transform="translate(806.442682 203.236563) scale(0.1 -0.1)">
       <use xlink:href="#DejaVuSans-37"/>
       <use xlink:href="#DejaVuSans-30" x="63.623047"/>
       <use xlink:href="#DejaVuSans-30" x="127.246094"/>
      </g>
     </g>
    </g>
    <g id="xtick_18">
     <g id="line2d_46">
      <path d="M 859.71684 188.638125 
L 859.71684 22.318125 
" clip-path="url(#pfe0558ddfc)" style="fill: none; stroke: #b0b0b0; stroke-width: 0.8; stroke-linecap: square"/>
     </g>
     <g id="line2d_47">
      <g>
       <use xlink:href="#me7cbe296d4" x="859.71684" y="188.638125" style="stroke: #000000; stroke-width: 0.8"/>
      </g>
     </g>
     <g id="text_26">
      <!-- 800 -->
      <g transform="translate(850.17309 203.236563) scale(0.1 -0.1)">
       <use xlink:href="#DejaVuSans-38"/>
       <use xlink:href="#DejaVuSans-30" x="63.623047"/>
       <use xlink:href="#DejaVuSans-30" x="127.246094"/>
      </g>
     </g>
    </g>
    <g id="text_27">
     <!-- Time in seconds -->
     <g transform="translate(659.693821 216.914688) scale(0.1 -0.1)">
      <use xlink:href="#DejaVuSans-54"/>
      <use xlink:href="#DejaVuSans-69" x="57.958984"/>
      <use xlink:href="#DejaVuSans-6d" x="85.742188"/>
      <use xlink:href="#DejaVuSans-65" x="183.154297"/>
      <use xlink:href="#DejaVuSans-20" x="244.677734"/>
      <use xlink:href="#DejaVuSans-69" x="276.464844"/>
      <use xlink:href="#DejaVuSans-6e" x="304.248047"/>
      <use xlink:href="#DejaVuSans-20" x="367.626953"/>
      <use xlink:href="#DejaVuSans-73" x="399.414062"/>
      <use xlink:href="#DejaVuSans-65" x="451.513672"/>
      <use xlink:href="#DejaVuSans-63" x="513.037109"/>
      <use xlink:href="#DejaVuSans-6f" x="568.017578"/>
      <use xlink:href="#DejaVuSans-6e" x="629.199219"/>
      <use xlink:href="#DejaVuSans-64" x="692.578125"/>
      <use xlink:href="#DejaVuSans-73" x="756.054688"/>
     </g>
    </g>
   </g>
   <g id="matplotlib.axis_4">
    <g id="ytick_6">
     <g id="line2d_48">
      <path d="M 509.87358 188.638125 
L 890.328125 188.638125 
" clip-path="url(#pfe0558ddfc)" style="fill: none; stroke: #b0b0b0; stroke-width: 0.8; stroke-linecap: square"/>
     </g>
     <g id="line2d_49">
      <g>
       <use xlink:href="#m7808196c26" x="509.87358" y="188.638125" style="stroke: #000000; stroke-width: 0.8"/>
      </g>
     </g>
     <g id="text_28">
      <!-- 0 -->
      <g transform="translate(496.51108 192.437344) scale(0.1 -0.1)">
       <use xlink:href="#DejaVuSans-30"/>
      </g>
     </g>
    </g>
    <g id="ytick_7">
     <g id="line2d_50">
      <path d="M 509.87358 163.204599 
L 890.328125 163.204599 
" clip-path="url(#pfe0558ddfc)" style="fill: none; stroke: #b0b0b0; stroke-width: 0.8; stroke-linecap: square"/>
     </g>
     <g id="line2d_51">
      <g>
       <use xlink:href="#m7808196c26" x="509.87358" y="163.204599" style="stroke: #000000; stroke-width: 0.8"/>
      </g>
     </g>
     <g id="text_29">
      <!-- 25 -->
      <g transform="translate(490.14858 167.003818) scale(0.1 -0.1)">
       <use xlink:href="#DejaVuSans-32"/>
       <use xlink:href="#DejaVuSans-35" x="63.623047"/>
      </g>
     </g>
    </g>
    <g id="ytick_8">
     <g id="line2d_52">
      <path d="M 509.87358 137.771073 
L 890.328125 137.771073 
" clip-path="url(#pfe0558ddfc)" style="fill: none; stroke: #b0b0b0; stroke-width: 0.8; stroke-linecap: square"/>
     </g>
     <g id="line2d_53">
      <g>
       <use xlink:href="#m7808196c26" x="509.87358" y="137.771073" style="stroke: #000000; stroke-width: 0.8"/>
      </g>
     </g>
     <g id="text_30">
      <!-- 50 -->
      <g transform="translate(490.14858 141.570292) scale(0.1 -0.1)">
       <use xlink:href="#DejaVuSans-35"/>
       <use xlink:href="#DejaVuSans-30" x="63.623047"/>
      </g>
     </g>
    </g>
    <g id="ytick_9">
     <g id="line2d_54">
      <path d="M 509.87358 112.337547 
L 890.328125 112.337547 
" clip-path="url(#pfe0558ddfc)" style="fill: none; stroke: #b0b0b0; stroke-width: 0.8; stroke-linecap: square"/>
     </g>
     <g id="line2d_55">
      <g>
       <use xlink:href="#m7808196c26" x="509.87358" y="112.337547" style="stroke: #000000; stroke-width: 0.8"/>
      </g>
     </g>
     <g id="text_31">
      <!-- 75 -->
      <g transform="translate(490.14858 116.136766) scale(0.1 -0.1)">
       <use xlink:href="#DejaVuSans-37"/>
       <use xlink:href="#DejaVuSans-35" x="63.623047"/>
      </g>
     </g>
    </g>
    <g id="ytick_10">
     <g id="line2d_56">
      <path d="M 509.87358 86.904021 
L 890.328125 86.904021 
" clip-path="url(#pfe0558ddfc)" style="fill: none; stroke: #b0b0b0; stroke-width: 0.8; stroke-linecap: square"/>
     </g>
     <g id="line2d_57">
      <g>
       <use xlink:href="#m7808196c26" x="509.87358" y="86.904021" style="stroke: #000000; stroke-width: 0.8"/>
      </g>
     </g>
     <g id="text_32">
      <!-- 100 -->
      <g transform="translate(483.78608 90.70324) scale(0.1 -0.1)">
       <use xlink:href="#DejaVuSans-31"/>
       <use xlink:href="#DejaVuSans-30" x="63.623047"/>
       <use xlink:href="#DejaVuSans-30" x="127.246094"/>
      </g>
     </g>
    </g>
    <g id="ytick_11">
     <g id="line2d_58">
      <path d="M 509.87358 61.470495 
L 890.328125 61.470495 
" clip-path="url(#pfe0558ddfc)" style="fill: none; stroke: #b0b0b0; stroke-width: 0.8; stroke-linecap: square"/>
     </g>
     <g id="line2d_59">
      <g>
       <use xlink:href="#m7808196c26" x="509.87358" y="61.470495" style="stroke: #000000; stroke-width: 0.8"/>
      </g>
     </g>
     <g id="text_33">
      <!-- 125 -->
      <g transform="translate(483.78608 65.269714) scale(0.1 -0.1)">
       <use xlink:href="#DejaVuSans-31"/>
       <use xlink:href="#DejaVuSans-32" x="63.623047"/>
       <use xlink:href="#DejaVuSans-35" x="127.246094"/>
      </g>
     </g>
    </g>
    <g id="ytick_12">
     <g id="line2d_60">
      <path d="M 509.87358 36.036969 
L 890.328125 36.036969 
" clip-path="url(#pfe0558ddfc)" style="fill: none; stroke: #b0b0b0; stroke-width: 0.8; stroke-linecap: square"/>
     </g>
     <g id="line2d_61">
      <g>
       <use xlink:href="#m7808196c26" x="509.87358" y="36.036969" style="stroke: #000000; stroke-width: 0.8"/>
      </g>
     </g>
     <g id="text_34">
      <!-- 150 -->
      <g transform="translate(483.78608 39.836188) scale(0.1 -0.1)">
       <use xlink:href="#DejaVuSans-31"/>
       <use xlink:href="#DejaVuSans-35" x="63.623047"/>
       <use xlink:href="#DejaVuSans-30" x="127.246094"/>
      </g>
     </g>
    </g>
    <g id="text_35">
     <!-- ops/s -->
     <g transform="translate(477.706392 118.605469) rotate(-90) scale(0.1 -0.1)">
      <defs>
       <path id="DejaVuSans-70" d="M 1159 525 
L 1159 -1331 
L 581 -1331 
L 581 3500 
L 1159 3500 
L 1159 2969 
Q 1341 3281 1617 3432 
Q 1894 3584 2278 3584 
Q 2916 3584 3314 3078 
Q 3713 2572 3713 1747 
Q 3713 922 3314 415 
Q 2916 -91 2278 -91 
Q 1894 -91 1617 61 
Q 1341 213 1159 525 
z
M 3116 1747 
Q 3116 2381 2855 2742 
Q 2594 3103 2138 3103 
Q 1681 3103 1420 2742 
Q 1159 2381 1159 1747 
Q 1159 1113 1420 752 
Q 1681 391 2138 391 
Q 2594 391 2855 752 
Q 3116 1113 3116 1747 
z
" transform="scale(0.015625)"/>
       <path id="DejaVuSans-2f" d="M 1625 4666 
L 2156 4666 
L 531 -594 
L 0 -594 
L 1625 4666 
z
" transform="scale(0.015625)"/>
      </defs>
      <use xlink:href="#DejaVuSans-6f"/>
      <use xlink:href="#DejaVuSans-70" x="61.181641"/>
      <use xlink:href="#DejaVuSans-73" x="124.658203"/>
      <use xlink:href="#DejaVuSans-2f" x="176.757812"/>
      <use xlink:href="#DejaVuSans-73" x="210.449219"/>
     </g>
    </g>
   </g>
   <g id="line2d_62">
    <path d="M 509.87358 187.789357 
L 516.433141 187.280687 
L 522.992702 186.603443 
L 529.552263 186.603443 
L 536.111824 186.603443 
L 542.671385 186.603443 
L 549.230946 186.603443 
L 555.790507 186.603443 
L 562.350069 186.603443 
L 568.90963 186.603443 
L 575.469191 186.603443 
L 582.028752 186.603443 
L 588.588313 186.603443 
L 595.147874 186.603443 
L 601.707435 186.603443 
L 608.266996 186.603443 
L 614.826558 186.603443 
L 621.386119 186.603443 
L 627.94568 186.603443 
L 634.505241 186.603443 
L 641.064802 186.603443 
L 647.624363 186.603443 
L 654.183924 186.603443 
L 660.743486 186.603443 
L 667.303047 186.603443 
L 673.862608 186.603443 
L 680.422169 186.603443 
L 686.98173 186.603443 
L 693.541291 186.603443 
L 700.100852 186.603443 
L 706.660413 186.603443 
L 713.219975 186.603443 
L 719.779536 186.603443 
L 726.339097 186.603443 
L 732.898658 186.603443 
L 739.458219 186.603443 
L 746.01778 186.603443 
L 752.577341 186.603443 
L 759.136902 186.603443 
L 765.696464 186.603443 
L 772.256025 186.603443 
L 778.815586 186.603443 
L 785.375147 186.603443 
L 791.934708 186.602221 
L 798.494269 186.603443 
L 805.05383 186.603443 
L 811.613391 186.603443 
L 818.172953 186.603443 
L 824.732514 186.603443 
L 831.292075 186.603443 
L 837.851636 186.603443 
L 844.411197 186.603443 
L 850.970758 186.603443 
L 857.530319 186.603443 
L 864.08988 186.603443 
L 870.649442 186.603443 
L 877.209003 186.603443 
L 883.768564 186.603443 
L 890.328125 186.603443 
" clip-path="url(#pfe0558ddfc)" style="fill: none; stroke: #1f77b4; stroke-width: 1.5; stroke-linecap: square"/>
   </g>
   <g id="line2d_63">
    <path d="M 509.87358 181.577676 
L 516.433141 178.016983 
L 522.992702 174.39535 
L 529.552263 174.39535 
L 536.111824 174.39535 
L 542.671385 174.39535 
L 549.230946 174.39535 
L 555.790507 174.39535 
L 562.350069 174.39535 
L 568.90963 174.39535 
L 575.469191 174.39535 
L 582.028752 174.39535 
L 588.588313 174.39535 
L 595.147874 174.39535 
L 601.707435 174.39535 
L 608.266996 174.39535 
L 614.826558 174.39535 
L 621.386119 174.39535 
L 627.94568 174.39535 
L 634.505241 174.39535 
L 641.064802 174.39535 
L 647.624363 174.39535 
L 654.183924 174.39535 
L 660.743486 174.39535 
L 667.303047 174.39535 
L 673.862608 174.39535 
L 680.422169 174.39535 
L 686.98173 174.39535 
L 693.541291 174.39535 
L 700.100852 174.39535 
L 706.660413 174.39535 
L 713.219975 174.39535 
L 719.779536 174.39535 
L 726.339097 174.39535 
L 732.898658 174.39535 
L 739.458219 174.39535 
L 746.01778 174.39535 
L 752.577341 174.39535 
L 759.136902 174.39535 
L 765.696464 174.39535 
L 772.256025 174.39535 
L 778.815586 174.39535 
L 785.375147 174.39535 
L 791.934708 174.3868 
L 798.494269 174.39535 
L 805.05383 174.39535 
L 811.613391 174.39535 
L 818.172953 174.39535 
L 824.732514 174.39535 
L 831.292075 174.39535 
L 837.851636 174.39535 
L 844.411197 174.39535 
L 850.970758 174.39535 
L 857.530319 174.39535 
L 864.08988 174.39535 
L 870.649442 174.39535 
L 877.209003 174.39535 
L 883.768564 174.39535 
L 890.328125 174.39535 
" clip-path="url(#pfe0558ddfc)" style="fill: none; stroke: #ff7f0e; stroke-width: 1.5; stroke-linecap: square"/>
   </g>
   <g id="line2d_64">
    <path d="M 509.87358 181.577676 
L 516.433141 178.016983 
L 522.992702 174.39535 
L 529.552263 172.044054 
L 536.111824 168.185971 
L 542.671385 165.326062 
L 549.230946 162.735224 
L 555.790507 160.844368 
L 562.350069 157.019165 
L 568.90963 154.984483 
L 575.469191 152.278356 
L 582.028752 150.650611 
L 588.588313 146.744021 
L 595.147874 144.688992 
L 601.707435 142.023559 
L 608.266996 140.4772 
L 614.826558 136.651998 
L 621.386119 134.617316 
L 627.94568 131.931535 
L 634.505241 130.324137 
L 641.064802 126.722749 
L 647.624363 124.60668 
L 654.183924 121.819165 
L 660.743486 120.19142 
L 667.303047 116.406911 
L 673.862608 114.209454 
L 680.422169 111.42194 
L 686.98173 110.058703 
L 693.541291 106.314888 
L 700.100852 104.036044 
L 706.660413 101.431651 
L 713.219975 100.068414 
L 719.779536 96.344946 
L 726.339097 94.127142 
L 732.898658 91.319281 
L 739.458219 89.833963 
L 746.01778 86.008761 
L 752.577341 83.770611 
L 759.136902 80.942402 
L 765.696464 79.701246 
L 772.256025 75.896391 
L 778.815586 73.739628 
L 785.375147 70.830033 
L 791.934708 69.497045 
L 798.494269 65.804368 
L 805.05383 63.749339 
L 811.613391 60.758356 
L 818.172953 59.435813 
L 824.732514 55.468183 
L 831.292075 53.291073 
L 837.851636 50.198356 
L 844.411197 49.099628 
L 850.970758 45.477894 
L 857.530319 43.117663 
L 864.08988 40.309801 
L 870.649442 38.905871 
L 877.209003 35.345177 
L 883.768564 33.045986 
L 890.328125 30.238125 
" clip-path="url(#pfe0558ddfc)" style="fill: none; stroke: #2ca02c; stroke-width: 1.5; stroke-linecap: square"/>
   </g>
   <g id="patch_8">
    <path d="M 509.87358 188.638125 
L 509.87358 22.318125 
" style="fill: none; stroke: #000000; stroke-width: 0.8; stroke-linejoin: miter; stroke-linecap: square"/>
   </g>
   <g id="patch_9">
    <path d="M 890.328125 188.638125 
L 890.328125 22.318125 
" style="fill: none; stroke: #000000; stroke-width: 0.8; stroke-linejoin: miter; stroke-linecap: square"/>
   </g>
   <g id="patch_10">
    <path d="M 509.87358 188.638125 
L 890.328125 188.638125 
" style="fill: none; stroke: #000000; stroke-width: 0.8; stroke-linejoin: miter; stroke-linecap: square"/>
   </g>
   <g id="patch_11">
    <path d="M 509.87358 22.318125 
L 890.328125 22.318125 
" style="fill: none; stroke: #000000; stroke-width: 0.8; stroke-linejoin: miter; stroke-linecap: square"/>
   </g>
   <g id="text_36">
    <!-- Website Churn -->
    <g transform="translate(656.317727 16.318125) scale(0.12 -0.12)">
     <defs>
      <path id="DejaVuSans-68" d="M 3513 2113 
L 3513 0 
L 2938 0 
L 2938 2094 
Q 2938 2591 2744 2837 
Q 2550 3084 2163 3084 
Q 1697 3084 1428 2787 
Q 1159 2491 1159 1978 
L 1159 0 
L 581 0 
L 581 4863 
L 1159 4863 
L 1159 2956 
Q 1366 3272 1645 3428 
Q 1925 3584 2291 3584 
Q 2894 3584 3203 3211 
Q 3513 2838 3513 2113 
z
" transform="scale(0.015625)"/>
      <path id="DejaVuSans-72" d="M 2631 2963 
Q 2534 3019 2420 3045 
Q 2306 3072 2169 3072 
Q 1681 3072 1420 2755 
Q 1159 2438 1159 1844 
L 1159 0 
L 581 0 
L 581 3500 
L 1159 3500 
L 1159 2956 
Q 1341 3275 1631 3429 
Q 1922 3584 2338 3584 
Q 2397 3584 2469 3576 
Q 2541 3569 2628 3553 
L 2631 2963 
z
" transform="scale(0.015625)"/>
     </defs>
     <use xlink:href="#DejaVuSans-57"/>
     <use xlink:href="#DejaVuSans-65" x="93.001953"/>
     <use xlink:href="#DejaVuSans-62" x="154.525391"/>
     <use xlink:href="#DejaVuSans-73" x="218.001953"/>
     <use xlink:href="#DejaVuSans-69" x="270.101562"/>
     <use xlink:href="#DejaVuSans-74" x="297.884766"/>
     <use xlink:href="#DejaVuSans-65" x="337.09375"/>
     <use xlink:href="#DejaVuSans-20" x="398.617188"/>
     <use xlink:href="#DejaVuSans-43" x="430.404297"/>
     <use xlink:href="#DejaVuSans-68" x="500.228516"/>
     <use xlink:href="#DejaVuSans-75" x="563.607422"/>
     <use xlink:href="#DejaVuSans-72" x="626.986328"/>
     <use xlink:href="#DejaVuSans-6e" x="666.349609"/>
    </g>
   </g>
   <g id="legend_1">
    <g id="patch_12">
     <path d="M 515.70458 65.662759 
L 618.771409 65.662759 
Q 620.437409 65.662759 620.437409 63.996759 
L 620.437409 28.149125 
Q 620.437409 26.483125 618.771409 26.483125 
L 515.70458 26.483125 
Q 514.03858 26.483125 514.03858 28.149125 
L 514.03858 63.996759 
Q 514.03858 65.662759 515.70458 65.662759 
z
" style="fill: #ffffff; opacity: 0.8; stroke: #cccccc; stroke-linejoin: miter"/>
    </g>
    <g id="patch_13">
     <path d="M 517.37058 36.144623 
L 534.03058 36.144623 
L 534.03058 30.313623 
L 517.37058 30.313623 
z
" style="fill: #1f77b4; stroke: #1f77b4; stroke-linejoin: miter"/>
    </g>
    <g id="text_37">
     <!-- website-deleter -->
     <g transform="translate(540.69458 36.144623) scale(0.0833 -0.0833)">
      <defs>
       <path id="DejaVuSans-77" d="M 269 3500 
L 844 3500 
L 1563 769 
L 2278 3500 
L 2956 3500 
L 3675 769 
L 4391 3500 
L 4966 3500 
L 4050 0 
L 3372 0 
L 2619 2869 
L 1863 0 
L 1184 0 
L 269 3500 
z
" transform="scale(0.015625)"/>
       <path id="DejaVuSans-2d" d="M 313 2009 
L 1997 2009 
L 1997 1497 
L 313 1497 
L 313 2009 
z
" transform="scale(0.015625)"/>
       <path id="DejaVuSans-6c" d="M 603 4863 
L 1178 4863 
L 1178 0 
L 603 0 
L 603 4863 
z
" transform="scale(0.015625)"/>
      </defs>
      <use xlink:href="#DejaVuSans-77"/>
      <use xlink:href="#DejaVuSans-65" x="81.787109"/>
      <use xlink:href="#DejaVuSans-62" x="143.310547"/>
      <use xlink:href="#DejaVuSans-73" x="206.787109"/>
      <use xlink:href="#DejaVuSans-69" x="258.886719"/>
      <use xlink:href="#DejaVuSans-74" x="286.669922"/>
      <use xlink:href="#DejaVuSans-65" x="325.878906"/>
      <use xlink:href="#DejaVuSans-2d" x="387.402344"/>
      <use xlink:href="#DejaVuSans-64" x="423.486328"/>
      <use xlink:href="#DejaVuSans-65" x="486.962891"/>
      <use xlink:href="#DejaVuSans-6c" x="548.486328"/>
      <use xlink:href="#DejaVuSans-65" x="576.269531"/>
      <use xlink:href="#DejaVuSans-74" x="637.792969"/>
      <use xlink:href="#DejaVuSans-65" x="677.001953"/>
      <use xlink:href="#DejaVuSans-72" x="738.525391"/>
     </g>
    </g>
    <g id="patch_14">
     <path d="M 517.37058 48.371502 
L 534.03058 48.371502 
L 534.03058 42.540502 
L 517.37058 42.540502 
z
" style="fill: #ff7f0e; stroke: #ff7f0e; stroke-linejoin: miter"/>
    </g>
    <g id="text_38">
     <!-- website-generator -->
     <g transform="translate(540.69458 48.371502) scale(0.0833 -0.0833)">
      <defs>
       <path id="DejaVuSans-67" d="M 2906 1791 
Q 2906 2416 2648 2759 
Q 2391 3103 1925 3103 
Q 1463 3103 1205 2759 
Q 947 2416 947 1791 
Q 947 1169 1205 825 
Q 1463 481 1925 481 
Q 2391 481 2648 825 
Q 2906 1169 2906 1791 
z
M 3481 434 
Q 3481 -459 3084 -895 
Q 2688 -1331 1869 -1331 
Q 1566 -1331 1297 -1286 
Q 1028 -1241 775 -1147 
L 775 -588 
Q 1028 -725 1275 -790 
Q 1522 -856 1778 -856 
Q 2344 -856 2625 -561 
Q 2906 -266 2906 331 
L 2906 616 
Q 2728 306 2450 153 
Q 2172 0 1784 0 
Q 1141 0 747 490 
Q 353 981 353 1791 
Q 353 2603 747 3093 
Q 1141 3584 1784 3584 
Q 2172 3584 2450 3431 
Q 2728 3278 2906 2969 
L 2906 3500 
L 3481 3500 
L 3481 434 
z
" transform="scale(0.015625)"/>
       <path id="DejaVuSans-61" d="M 2194 1759 
Q 1497 1759 1228 1600 
Q 959 1441 959 1056 
Q 959 750 1161 570 
Q 1363 391 1709 391 
Q 2188 391 2477 730 
Q 2766 1069 2766 1631 
L 2766 1759 
L 2194 1759 
z
M 3341 1997 
L 3341 0 
L 2766 0 
L 2766 531 
Q 2569 213 2275 61 
Q 1981 -91 1556 -91 
Q 1019 -91 701 211 
Q 384 513 384 1019 
Q 384 1609 779 1909 
Q 1175 2209 1959 2209 
L 2766 2209 
L 2766 2266 
Q 2766 2663 2505 2880 
Q 2244 3097 1772 3097 
Q 1472 3097 1187 3025 
Q 903 2953 641 2809 
L 641 3341 
Q 956 3463 1253 3523 
Q 1550 3584 1831 3584 
Q 2591 3584 2966 3190 
Q 3341 2797 3341 1997 
z
" transform="scale(0.015625)"/>
      </defs>
      <use xlink:href="#DejaVuSans-77"/>
      <use xlink:href="#DejaVuSans-65" x="81.787109"/>
      <use xlink:href="#DejaVuSans-62" x="143.310547"/>
      <use xlink:href="#DejaVuSans-73" x="206.787109"/>
      <use xlink:href="#DejaVuSans-69" x="258.886719"/>
      <use xlink:href="#DejaVuSans-74" x="286.669922"/>
      <use xlink:href="#DejaVuSans-65" x="325.878906"/>
      <use xlink:href="#DejaVuSans-2d" x="387.402344"/>
      <use xlink:href="#DejaVuSans-67" x="423.486328"/>
      <use xlink:href="#DejaVuSans-65" x="486.962891"/>
      <use xlink:href="#DejaVuSans-6e" x="548.486328"/>
      <use xlink:href="#DejaVuSans-65" x="611.865234"/>
      <use xlink:href="#DejaVuSans-72" x="673.388672"/>
      <use xlink:href="#DejaVuSans-61" x="714.501953"/>
      <use xlink:href="#DejaVuSans-74" x="775.78125"/>
      <use xlink:href="#DejaVuSans-6f" x="814.990234"/>
      <use xlink:href="#DejaVuSans-72" x="876.171875"/>
     </g>
    </g>
    <g id="patch_15">
     <path d="M 517.37058 60.59838 
L 534.03058 60.59838 
L 534.03058 54.76738 
L 517.37058 54.76738 
z
" style="fill: #2ca02c; stroke: #2ca02c; stroke-linejoin: miter"/>
    </g>
    <g id="text_39">
     <!-- website-mutator -->
     <g transform="translate(540.69458 60.59838) scale(0.0833 -0.0833)">
      <use xlink:href="#DejaVuSans-77"/>
      <use xlink:href="#DejaVuSans-65" x="81.787109"/>
      <use xlink:href="#DejaVuSans-62" x="143.310547"/>
      <use xlink:href="#DejaVuSans-73" x="206.787109"/>
      <use xlink:href="#DejaVuSans-69" x="258.886719"/>
      <use xlink:href="#DejaVuSans-74" x="286.669922"/>
      <use xlink:href="#DejaVuSans-65" x="325.878906"/>
      <use xlink:href="#DejaVuSans-2d" x="387.402344"/>
      <use xlink:href="#DejaVuSans-6d" x="423.486328"/>
      <use xlink:href="#DejaVuSans-75" x="520.898438"/>
      <use xlink:href="#DejaVuSans-74" x="584.277344"/>
      <use xlink:href="#DejaVuSans-61" x="623.486328"/>
      <use xlink:href="#DejaVuSans-74" x="684.765625"/>
      <use xlink:href="#DejaVuSans-6f" x="723.974609"/>
      <use xlink:href="#DejaVuSans-72" x="785.15625"/>
     </g>
    </g>
   </g>
  </g>
 </g>
 <defs>
  <clipPath id="p51f8a8c74e">
   <rect x="53.328125" y="22.318125" width="380.454545" height="166.32"/>
  </clipPath>
  <clipPath id="pfe0558ddfc">
   <rect x="509.87358" y="22.318125" width="380.454545" height="166.32"/>
  </clipPath>
 </defs>
</svg>
