<?xml version="1.0" encoding="utf-8" standalone="no"?>
<!DOCTYPE svg PUBLIC "-//W3C//DTD SVG 1.1//EN"
  "http://www.w3.org/Graphics/SVG/1.1/DTD/svg11.dtd">
<svg xmlns:xlink="http://www.w3.org/1999/xlink" width="900.70625pt" height="337.074375pt" viewBox="0 0 900.70625 337.074375" xmlns="http://www.w3.org/2000/svg" version="1.1">
 <metadata>
  <rdf:RDF xmlns:dc="http://purl.org/dc/elements/1.1/" xmlns:cc="http://creativecommons.org/ns#" xmlns:rdf="http://www.w3.org/1999/02/22-rdf-syntax-ns#">
   <cc:Work>
    <dc:type rdf:resource="http://purl.org/dc/dcmitype/StillImage"/>
    <dc:date>2024-02-07T12:56:47.471474</dc:date>
    <dc:format>image/svg+xml</dc:format>
    <dc:creator>
     <cc:Agent>
      <dc:title>Matplotlib v3.7.1, https://matplotlib.org/</dc:title>
     </cc:Agent>
    </dc:creator>
   </cc:Work>
  </rdf:RDF>
 </metadata>
 <defs>
  <style type="text/css">*{stroke-linejoin: round; stroke-linecap: butt}</style>
 </defs>
 <g id="figure_1">
  <g id="patch_1">
   <path d="M 0 337.074375 
L 900.70625 337.074375 
L 900.70625 0 
L 0 0 
z
" style="fill: #ffffff"/>
  </g>
  <g id="axes_1">
   <g id="patch_2">
    <path d="M 56.50625 299.518125 
L 436.960795 299.518125 
L 436.960795 22.318125 
L 56.50625 22.318125 
z
" style="fill: #ffffff"/>
   </g>
   <g id="matplotlib.axis_1">
    <g id="xtick_1">
     <g id="line2d_1">
      <path d="M 56.50625 299.518125 
L 56.50625 22.318125 
" clip-path="url(#p89bf3ba9d4)" style="fill: none; stroke: #b0b0b0; stroke-width: 0.8; stroke-linecap: square"/>
     </g>
     <g id="line2d_2">
      <defs>
       <path id="m56d187e45a" d="M 0 0 
L 0 3.5 
" style="stroke: #000000; stroke-width: 0.8"/>
      </defs>
      <g>
       <use xlink:href="#m56d187e45a" x="56.50625" y="299.518125" style="stroke: #000000; stroke-width: 0.8"/>
      </g>
     </g>
     <g id="text_1">
      <!-- 0 -->
      <g transform="translate(53.325 314.116563) scale(0.1 -0.1)">
       <defs>
        <path id="DejaVuSans-30" d="M 2034 4250 
Q 1547 4250 1301 3770 
Q 1056 3291 1056 2328 
Q 1056 1369 1301 889 
Q 1547 409 2034 409 
Q 2525 409 2770 889 
Q 3016 1369 3016 2328 
Q 3016 3291 2770 3770 
Q 2525 4250 2034 4250 
z
M 2034 4750 
Q 2819 4750 3233 4129 
Q 3647 3509 3647 2328 
Q 3647 1150 3233 529 
Q 2819 -91 2034 -91 
Q 1250 -91 836 529 
Q 422 1150 422 2328 
Q 422 3509 836 4129 
Q 1250 4750 2034 4750 
z
" transform="scale(0.015625)"/>
       </defs>
       <use xlink:href="#DejaVuSans-30"/>
      </g>
     </g>
    </g>
    <g id="xtick_2">
     <g id="line2d_3">
      <path d="M 99.495464 299.518125 
L 99.495464 22.318125 
" clip-path="url(#p89bf3ba9d4)" style="fill: none; stroke: #b0b0b0; stroke-width: 0.8; stroke-linecap: square"/>
     </g>
     <g id="line2d_4">
      <g>
       <use xlink:href="#m56d187e45a" x="99.495464" y="299.518125" style="stroke: #000000; stroke-width: 0.8"/>
      </g>
     </g>
     <g id="text_2">
      <!-- 100 -->
      <g transform="translate(89.951714 314.116563) scale(0.1 -0.1)">
       <defs>
        <path id="DejaVuSans-31" d="M 794 531 
L 1825 531 
L 1825 4091 
L 703 3866 
L 703 4441 
L 1819 4666 
L 2450 4666 
L 2450 531 
L 3481 531 
L 3481 0 
L 794 0 
L 794 531 
z
" transform="scale(0.015625)"/>
       </defs>
       <use xlink:href="#DejaVuSans-31"/>
       <use xlink:href="#DejaVuSans-30" x="63.623047"/>
       <use xlink:href="#DejaVuSans-30" x="127.246094"/>
      </g>
     </g>
    </g>
    <g id="xtick_3">
     <g id="line2d_5">
      <path d="M 142.484678 299.518125 
L 142.484678 22.318125 
" clip-path="url(#p89bf3ba9d4)" style="fill: none; stroke: #b0b0b0; stroke-width: 0.8; stroke-linecap: square"/>
     </g>
     <g id="line2d_6">
      <g>
       <use xlink:href="#m56d187e45a" x="142.484678" y="299.518125" style="stroke: #000000; stroke-width: 0.8"/>
      </g>
     </g>
     <g id="text_3">
      <!-- 200 -->
      <g transform="translate(132.940928 314.116563) scale(0.1 -0.1)">
       <defs>
        <path id="DejaVuSans-32" d="M 1228 531 
L 3431 531 
L 3431 0 
L 469 0 
L 469 531 
Q 828 903 1448 1529 
Q 2069 2156 2228 2338 
Q 2531 2678 2651 2914 
Q 2772 3150 2772 3378 
Q 2772 3750 2511 3984 
Q 2250 4219 1831 4219 
Q 1534 4219 1204 4116 
Q 875 4013 500 3803 
L 500 4441 
Q 881 4594 1212 4672 
Q 1544 4750 1819 4750 
Q 2544 4750 2975 4387 
Q 3406 4025 3406 3419 
Q 3406 3131 3298 2873 
Q 3191 2616 2906 2266 
Q 2828 2175 2409 1742 
Q 1991 1309 1228 531 
z
" transform="scale(0.015625)"/>
       </defs>
       <use xlink:href="#DejaVuSans-32"/>
       <use xlink:href="#DejaVuSans-30" x="63.623047"/>
       <use xlink:href="#DejaVuSans-30" x="127.246094"/>
      </g>
     </g>
    </g>
    <g id="xtick_4">
     <g id="line2d_7">
      <path d="M 185.473893 299.518125 
L 185.473893 22.318125 
" clip-path="url(#p89bf3ba9d4)" style="fill: none; stroke: #b0b0b0; stroke-width: 0.8; stroke-linecap: square"/>
     </g>
     <g id="line2d_8">
      <g>
       <use xlink:href="#m56d187e45a" x="185.473893" y="299.518125" style="stroke: #000000; stroke-width: 0.8"/>
      </g>
     </g>
     <g id="text_4">
      <!-- 300 -->
      <g transform="translate(175.930143 314.116563) scale(0.1 -0.1)">
       <defs>
        <path id="DejaVuSans-33" d="M 2597 2516 
Q 3050 2419 3304 2112 
Q 3559 1806 3559 1356 
Q 3559 666 3084 287 
Q 2609 -91 1734 -91 
Q 1441 -91 1130 -33 
Q 819 25 488 141 
L 488 750 
Q 750 597 1062 519 
Q 1375 441 1716 441 
Q 2309 441 2620 675 
Q 2931 909 2931 1356 
Q 2931 1769 2642 2001 
Q 2353 2234 1838 2234 
L 1294 2234 
L 1294 2753 
L 1863 2753 
Q 2328 2753 2575 2939 
Q 2822 3125 2822 3475 
Q 2822 3834 2567 4026 
Q 2313 4219 1838 4219 
Q 1578 4219 1281 4162 
Q 984 4106 628 3988 
L 628 4550 
Q 988 4650 1302 4700 
Q 1616 4750 1894 4750 
Q 2613 4750 3031 4423 
Q 3450 4097 3450 3541 
Q 3450 3153 3228 2886 
Q 3006 2619 2597 2516 
z
" transform="scale(0.015625)"/>
       </defs>
       <use xlink:href="#DejaVuSans-33"/>
       <use xlink:href="#DejaVuSans-30" x="63.623047"/>
       <use xlink:href="#DejaVuSans-30" x="127.246094"/>
      </g>
     </g>
    </g>
    <g id="xtick_5">
     <g id="line2d_9">
      <path d="M 228.463107 299.518125 
L 228.463107 22.318125 
" clip-path="url(#p89bf3ba9d4)" style="fill: none; stroke: #b0b0b0; stroke-width: 0.8; stroke-linecap: square"/>
     </g>
     <g id="line2d_10">
      <g>
       <use xlink:href="#m56d187e45a" x="228.463107" y="299.518125" style="stroke: #000000; stroke-width: 0.8"/>
      </g>
     </g>
     <g id="text_5">
      <!-- 400 -->
      <g transform="translate(218.919357 314.116563) scale(0.1 -0.1)">
       <defs>
        <path id="DejaVuSans-34" d="M 2419 4116 
L 825 1625 
L 2419 1625 
L 2419 4116 
z
M 2253 4666 
L 3047 4666 
L 3047 1625 
L 3713 1625 
L 3713 1100 
L 3047 1100 
L 3047 0 
L 2419 0 
L 2419 1100 
L 313 1100 
L 313 1709 
L 2253 4666 
z
" transform="scale(0.015625)"/>
       </defs>
       <use xlink:href="#DejaVuSans-34"/>
       <use xlink:href="#DejaVuSans-30" x="63.623047"/>
       <use xlink:href="#DejaVuSans-30" x="127.246094"/>
      </g>
     </g>
    </g>
    <g id="xtick_6">
     <g id="line2d_11">
      <path d="M 271.452321 299.518125 
L 271.452321 22.318125 
" clip-path="url(#p89bf3ba9d4)" style="fill: none; stroke: #b0b0b0; stroke-width: 0.8; stroke-linecap: square"/>
     </g>
     <g id="line2d_12">
      <g>
       <use xlink:href="#m56d187e45a" x="271.452321" y="299.518125" style="stroke: #000000; stroke-width: 0.8"/>
      </g>
     </g>
     <g id="text_6">
      <!-- 500 -->
      <g transform="translate(261.908571 314.116563) scale(0.1 -0.1)">
       <defs>
        <path id="DejaVuSans-35" d="M 691 4666 
L 3169 4666 
L 3169 4134 
L 1269 4134 
L 1269 2991 
Q 1406 3038 1543 3061 
Q 1681 3084 1819 3084 
Q 2600 3084 3056 2656 
Q 3513 2228 3513 1497 
Q 3513 744 3044 326 
Q 2575 -91 1722 -91 
Q 1428 -91 1123 -41 
Q 819 9 494 109 
L 494 744 
Q 775 591 1075 516 
Q 1375 441 1709 441 
Q 2250 441 2565 725 
Q 2881 1009 2881 1497 
Q 2881 1984 2565 2268 
Q 2250 2553 1709 2553 
Q 1456 2553 1204 2497 
Q 953 2441 691 2322 
L 691 4666 
z
" transform="scale(0.015625)"/>
       </defs>
       <use xlink:href="#DejaVuSans-35"/>
       <use xlink:href="#DejaVuSans-30" x="63.623047"/>
       <use xlink:href="#DejaVuSans-30" x="127.246094"/>
      </g>
     </g>
    </g>
    <g id="xtick_7">
     <g id="line2d_13">
      <path d="M 314.441535 299.518125 
L 314.441535 22.318125 
" clip-path="url(#p89bf3ba9d4)" style="fill: none; stroke: #b0b0b0; stroke-width: 0.8; stroke-linecap: square"/>
     </g>
     <g id="line2d_14">
      <g>
       <use xlink:href="#m56d187e45a" x="314.441535" y="299.518125" style="stroke: #000000; stroke-width: 0.8"/>
      </g>
     </g>
     <g id="text_7">
      <!-- 600 -->
      <g transform="translate(304.897785 314.116563) scale(0.1 -0.1)">
       <defs>
        <path id="DejaVuSans-36" d="M 2113 2584 
Q 1688 2584 1439 2293 
Q 1191 2003 1191 1497 
Q 1191 994 1439 701 
Q 1688 409 2113 409 
Q 2538 409 2786 701 
Q 3034 994 3034 1497 
Q 3034 2003 2786 2293 
Q 2538 2584 2113 2584 
z
M 3366 4563 
L 3366 3988 
Q 3128 4100 2886 4159 
Q 2644 4219 2406 4219 
Q 1781 4219 1451 3797 
Q 1122 3375 1075 2522 
Q 1259 2794 1537 2939 
Q 1816 3084 2150 3084 
Q 2853 3084 3261 2657 
Q 3669 2231 3669 1497 
Q 3669 778 3244 343 
Q 2819 -91 2113 -91 
Q 1303 -91 875 529 
Q 447 1150 447 2328 
Q 447 3434 972 4092 
Q 1497 4750 2381 4750 
Q 2619 4750 2861 4703 
Q 3103 4656 3366 4563 
z
" transform="scale(0.015625)"/>
       </defs>
       <use xlink:href="#DejaVuSans-36"/>
       <use xlink:href="#DejaVuSans-30" x="63.623047"/>
       <use xlink:href="#DejaVuSans-30" x="127.246094"/>
      </g>
     </g>
    </g>
    <g id="xtick_8">
     <g id="line2d_15">
      <path d="M 357.430749 299.518125 
L 357.430749 22.318125 
" clip-path="url(#p89bf3ba9d4)" style="fill: none; stroke: #b0b0b0; stroke-width: 0.8; stroke-linecap: square"/>
     </g>
     <g id="line2d_16">
      <g>
       <use xlink:href="#m56d187e45a" x="357.430749" y="299.518125" style="stroke: #000000; stroke-width: 0.8"/>
      </g>
     </g>
     <g id="text_8">
      <!-- 700 -->
      <g transform="translate(347.886999 314.116563) scale(0.1 -0.1)">
       <defs>
        <path id="DejaVuSans-37" d="M 525 4666 
L 3525 4666 
L 3525 4397 
L 1831 0 
L 1172 0 
L 2766 4134 
L 525 4134 
L 525 4666 
z
" transform="scale(0.015625)"/>
       </defs>
       <use xlink:href="#DejaVuSans-37"/>
       <use xlink:href="#DejaVuSans-30" x="63.623047"/>
       <use xlink:href="#DejaVuSans-30" x="127.246094"/>
      </g>
     </g>
    </g>
    <g id="xtick_9">
     <g id="line2d_17">
      <path d="M 400.419963 299.518125 
L 400.419963 22.318125 
" clip-path="url(#p89bf3ba9d4)" style="fill: none; stroke: #b0b0b0; stroke-width: 0.8; stroke-linecap: square"/>
     </g>
     <g id="line2d_18">
      <g>
       <use xlink:href="#m56d187e45a" x="400.419963" y="299.518125" style="stroke: #000000; stroke-width: 0.8"/>
      </g>
     </g>
     <g id="text_9">
      <!-- 800 -->
      <g transform="translate(390.876213 314.116563) scale(0.1 -0.1)">
       <defs>
        <path id="DejaVuSans-38" d="M 2034 2216 
Q 1584 2216 1326 1975 
Q 1069 1734 1069 1313 
Q 1069 891 1326 650 
Q 1584 409 2034 409 
Q 2484 409 2743 651 
Q 3003 894 3003 1313 
Q 3003 1734 2745 1975 
Q 2488 2216 2034 2216 
z
M 1403 2484 
Q 997 2584 770 2862 
Q 544 3141 544 3541 
Q 544 4100 942 4425 
Q 1341 4750 2034 4750 
Q 2731 4750 3128 4425 
Q 3525 4100 3525 3541 
Q 3525 3141 3298 2862 
Q 3072 2584 2669 2484 
Q 3125 2378 3379 2068 
Q 3634 1759 3634 1313 
Q 3634 634 3220 271 
Q 2806 -91 2034 -91 
Q 1263 -91 848 271 
Q 434 634 434 1313 
Q 434 1759 690 2068 
Q 947 2378 1403 2484 
z
M 1172 3481 
Q 1172 3119 1398 2916 
Q 1625 2713 2034 2713 
Q 2441 2713 2670 2916 
Q 2900 3119 2900 3481 
Q 2900 3844 2670 4047 
Q 2441 4250 2034 4250 
Q 1625 4250 1398 4047 
Q 1172 3844 1172 3481 
z
" transform="scale(0.015625)"/>
       </defs>
       <use xlink:href="#DejaVuSans-38"/>
       <use xlink:href="#DejaVuSans-30" x="63.623047"/>
       <use xlink:href="#DejaVuSans-30" x="127.246094"/>
      </g>
     </g>
    </g>
    <g id="text_10">
     <!-- Time in seconds -->
     <g transform="translate(206.326491 327.794688) scale(0.1 -0.1)">
      <defs>
       <path id="DejaVuSans-54" d="M -19 4666 
L 3928 4666 
L 3928 4134 
L 2272 4134 
L 2272 0 
L 1638 0 
L 1638 4134 
L -19 4134 
L -19 4666 
z
" transform="scale(0.015625)"/>
       <path id="DejaVuSans-69" d="M 603 3500 
L 1178 3500 
L 1178 0 
L 603 0 
L 603 3500 
z
M 603 4863 
L 1178 4863 
L 1178 4134 
L 603 4134 
L 603 4863 
z
" transform="scale(0.015625)"/>
       <path id="DejaVuSans-6d" d="M 3328 2828 
Q 3544 3216 3844 3400 
Q 4144 3584 4550 3584 
Q 5097 3584 5394 3201 
Q 5691 2819 5691 2113 
L 5691 0 
L 5113 0 
L 5113 2094 
Q 5113 2597 4934 2840 
Q 4756 3084 4391 3084 
Q 3944 3084 3684 2787 
Q 3425 2491 3425 1978 
L 3425 0 
L 2847 0 
L 2847 2094 
Q 2847 2600 2669 2842 
Q 2491 3084 2119 3084 
Q 1678 3084 1418 2786 
Q 1159 2488 1159 1978 
L 1159 0 
L 581 0 
L 581 3500 
L 1159 3500 
L 1159 2956 
Q 1356 3278 1631 3431 
Q 1906 3584 2284 3584 
Q 2666 3584 2933 3390 
Q 3200 3197 3328 2828 
z
" transform="scale(0.015625)"/>
       <path id="DejaVuSans-65" d="M 3597 1894 
L 3597 1613 
L 953 1613 
Q 991 1019 1311 708 
Q 1631 397 2203 397 
Q 2534 397 2845 478 
Q 3156 559 3463 722 
L 3463 178 
Q 3153 47 2828 -22 
Q 2503 -91 2169 -91 
Q 1331 -91 842 396 
Q 353 884 353 1716 
Q 353 2575 817 3079 
Q 1281 3584 2069 3584 
Q 2775 3584 3186 3129 
Q 3597 2675 3597 1894 
z
M 3022 2063 
Q 3016 2534 2758 2815 
Q 2500 3097 2075 3097 
Q 1594 3097 1305 2825 
Q 1016 2553 972 2059 
L 3022 2063 
z
" transform="scale(0.015625)"/>
       <path id="DejaVuSans-20" transform="scale(0.015625)"/>
       <path id="DejaVuSans-6e" d="M 3513 2113 
L 3513 0 
L 2938 0 
L 2938 2094 
Q 2938 2591 2744 2837 
Q 2550 3084 2163 3084 
Q 1697 3084 1428 2787 
Q 1159 2491 1159 1978 
L 1159 0 
L 581 0 
L 581 3500 
L 1159 3500 
L 1159 2956 
Q 1366 3272 1645 3428 
Q 1925 3584 2291 3584 
Q 2894 3584 3203 3211 
Q 3513 2838 3513 2113 
z
" transform="scale(0.015625)"/>
       <path id="DejaVuSans-73" d="M 2834 3397 
L 2834 2853 
Q 2591 2978 2328 3040 
Q 2066 3103 1784 3103 
Q 1356 3103 1142 2972 
Q 928 2841 928 2578 
Q 928 2378 1081 2264 
Q 1234 2150 1697 2047 
L 1894 2003 
Q 2506 1872 2764 1633 
Q 3022 1394 3022 966 
Q 3022 478 2636 193 
Q 2250 -91 1575 -91 
Q 1294 -91 989 -36 
Q 684 19 347 128 
L 347 722 
Q 666 556 975 473 
Q 1284 391 1588 391 
Q 1994 391 2212 530 
Q 2431 669 2431 922 
Q 2431 1156 2273 1281 
Q 2116 1406 1581 1522 
L 1381 1569 
Q 847 1681 609 1914 
Q 372 2147 372 2553 
Q 372 3047 722 3315 
Q 1072 3584 1716 3584 
Q 2034 3584 2315 3537 
Q 2597 3491 2834 3397 
z
" transform="scale(0.015625)"/>
       <path id="DejaVuSans-63" d="M 3122 3366 
L 3122 2828 
Q 2878 2963 2633 3030 
Q 2388 3097 2138 3097 
Q 1578 3097 1268 2742 
Q 959 2388 959 1747 
Q 959 1106 1268 751 
Q 1578 397 2138 397 
Q 2388 397 2633 464 
Q 2878 531 3122 666 
L 3122 134 
Q 2881 22 2623 -34 
Q 2366 -91 2075 -91 
Q 1284 -91 818 406 
Q 353 903 353 1747 
Q 353 2603 823 3093 
Q 1294 3584 2113 3584 
Q 2378 3584 2631 3529 
Q 2884 3475 3122 3366 
z
" transform="scale(0.015625)"/>
       <path id="DejaVuSans-6f" d="M 1959 3097 
Q 1497 3097 1228 2736 
Q 959 2375 959 1747 
Q 959 1119 1226 758 
Q 1494 397 1959 397 
Q 2419 397 2687 759 
Q 2956 1122 2956 1747 
Q 2956 2369 2687 2733 
Q 2419 3097 1959 3097 
z
M 1959 3584 
Q 2709 3584 3137 3096 
Q 3566 2609 3566 1747 
Q 3566 888 3137 398 
Q 2709 -91 1959 -91 
Q 1206 -91 779 398 
Q 353 888 353 1747 
Q 353 2609 779 3096 
Q 1206 3584 1959 3584 
z
" transform="scale(0.015625)"/>
       <path id="DejaVuSans-64" d="M 2906 2969 
L 2906 4863 
L 3481 4863 
L 3481 0 
L 2906 0 
L 2906 525 
Q 2725 213 2448 61 
Q 2172 -91 1784 -91 
Q 1150 -91 751 415 
Q 353 922 353 1747 
Q 353 2572 751 3078 
Q 1150 3584 1784 3584 
Q 2172 3584 2448 3432 
Q 2725 3281 2906 2969 
z
M 947 1747 
Q 947 1113 1208 752 
Q 1469 391 1925 391 
Q 2381 391 2643 752 
Q 2906 1113 2906 1747 
Q 2906 2381 2643 2742 
Q 2381 3103 1925 3103 
Q 1469 3103 1208 2742 
Q 947 2381 947 1747 
z
" transform="scale(0.015625)"/>
      </defs>
      <use xlink:href="#DejaVuSans-54"/>
      <use xlink:href="#DejaVuSans-69" x="57.958984"/>
      <use xlink:href="#DejaVuSans-6d" x="85.742188"/>
      <use xlink:href="#DejaVuSans-65" x="183.154297"/>
      <use xlink:href="#DejaVuSans-20" x="244.677734"/>
      <use xlink:href="#DejaVuSans-69" x="276.464844"/>
      <use xlink:href="#DejaVuSans-6e" x="304.248047"/>
      <use xlink:href="#DejaVuSans-20" x="367.626953"/>
      <use xlink:href="#DejaVuSans-73" x="399.414062"/>
      <use xlink:href="#DejaVuSans-65" x="451.513672"/>
      <use xlink:href="#DejaVuSans-63" x="513.037109"/>
      <use xlink:href="#DejaVuSans-6f" x="568.017578"/>
      <use xlink:href="#DejaVuSans-6e" x="629.199219"/>
      <use xlink:href="#DejaVuSans-64" x="692.578125"/>
      <use xlink:href="#DejaVuSans-73" x="756.054688"/>
     </g>
    </g>
   </g>
   <g id="matplotlib.axis_2">
    <g id="ytick_1">
     <g id="line2d_19">
      <path d="M 56.50625 274.195044 
L 436.960795 274.195044 
" clip-path="url(#p89bf3ba9d4)" style="fill: none; stroke: #b0b0b0; stroke-width: 0.8; stroke-linecap: square"/>
     </g>
     <g id="line2d_20">
      <defs>
       <path id="m7d5063a252" d="M 0 0 
L -3.5 0 
" style="stroke: #000000; stroke-width: 0.8"/>
      </defs>
      <g>
       <use xlink:href="#m7d5063a252" x="56.50625" y="274.195044" style="stroke: #000000; stroke-width: 0.8"/>
      </g>
     </g>
     <g id="text_11">
      <!-- 0.12 -->
      <g transform="translate(27.240625 277.994263) scale(0.1 -0.1)">
       <defs>
        <path id="DejaVuSans-2e" d="M 684 794 
L 1344 794 
L 1344 0 
L 684 0 
L 684 794 
z
" transform="scale(0.015625)"/>
       </defs>
       <use xlink:href="#DejaVuSans-30"/>
       <use xlink:href="#DejaVuSans-2e" x="63.623047"/>
       <use xlink:href="#DejaVuSans-31" x="95.410156"/>
       <use xlink:href="#DejaVuSans-32" x="159.033203"/>
      </g>
     </g>
    </g>
    <g id="ytick_2">
     <g id="line2d_21">
      <path d="M 56.50625 236.346319 
L 436.960795 236.346319 
" clip-path="url(#p89bf3ba9d4)" style="fill: none; stroke: #b0b0b0; stroke-width: 0.8; stroke-linecap: square"/>
     </g>
     <g id="line2d_22">
      <g>
       <use xlink:href="#m7d5063a252" x="56.50625" y="236.346319" style="stroke: #000000; stroke-width: 0.8"/>
      </g>
     </g>
     <g id="text_12">
      <!-- 0.25 -->
      <g transform="translate(27.240625 240.145537) scale(0.1 -0.1)">
       <use xlink:href="#DejaVuSans-30"/>
       <use xlink:href="#DejaVuSans-2e" x="63.623047"/>
       <use xlink:href="#DejaVuSans-32" x="95.410156"/>
       <use xlink:href="#DejaVuSans-35" x="159.033203"/>
      </g>
     </g>
    </g>
    <g id="ytick_3">
     <g id="line2d_23">
      <path d="M 56.50625 198.497594 
L 436.960795 198.497594 
" clip-path="url(#p89bf3ba9d4)" style="fill: none; stroke: #b0b0b0; stroke-width: 0.8; stroke-linecap: square"/>
     </g>
     <g id="line2d_24">
      <g>
       <use xlink:href="#m7d5063a252" x="56.50625" y="198.497594" style="stroke: #000000; stroke-width: 0.8"/>
      </g>
     </g>
     <g id="text_13">
      <!-- 0.50 -->
      <g transform="translate(27.240625 202.296812) scale(0.1 -0.1)">
       <use xlink:href="#DejaVuSans-30"/>
       <use xlink:href="#DejaVuSans-2e" x="63.623047"/>
       <use xlink:href="#DejaVuSans-35" x="95.410156"/>
       <use xlink:href="#DejaVuSans-30" x="159.033203"/>
      </g>
     </g>
    </g>
    <g id="ytick_4">
     <g id="line2d_25">
      <path d="M 56.50625 160.648868 
L 436.960795 160.648868 
" clip-path="url(#p89bf3ba9d4)" style="fill: none; stroke: #b0b0b0; stroke-width: 0.8; stroke-linecap: square"/>
     </g>
     <g id="line2d_26">
      <g>
       <use xlink:href="#m7d5063a252" x="56.50625" y="160.648868" style="stroke: #000000; stroke-width: 0.8"/>
      </g>
     </g>
     <g id="text_14">
      <!-- 1.00 -->
      <g transform="translate(27.240625 164.448087) scale(0.1 -0.1)">
       <use xlink:href="#DejaVuSans-31"/>
       <use xlink:href="#DejaVuSans-2e" x="63.623047"/>
       <use xlink:href="#DejaVuSans-30" x="95.410156"/>
       <use xlink:href="#DejaVuSans-30" x="159.033203"/>
      </g>
     </g>
    </g>
    <g id="ytick_5">
     <g id="line2d_27">
      <path d="M 56.50625 122.800143 
L 436.960795 122.800143 
" clip-path="url(#p89bf3ba9d4)" style="fill: none; stroke: #b0b0b0; stroke-width: 0.8; stroke-linecap: square"/>
     </g>
     <g id="line2d_28">
      <g>
       <use xlink:href="#m7d5063a252" x="56.50625" y="122.800143" style="stroke: #000000; stroke-width: 0.8"/>
      </g>
     </g>
     <g id="text_15">
      <!-- 2.00 -->
      <g transform="translate(27.240625 126.599362) scale(0.1 -0.1)">
       <use xlink:href="#DejaVuSans-32"/>
       <use xlink:href="#DejaVuSans-2e" x="63.623047"/>
       <use xlink:href="#DejaVuSans-30" x="95.410156"/>
       <use xlink:href="#DejaVuSans-30" x="159.033203"/>
      </g>
     </g>
    </g>
    <g id="ytick_6">
     <g id="line2d_29">
      <path d="M 56.50625 84.951418 
L 436.960795 84.951418 
" clip-path="url(#p89bf3ba9d4)" style="fill: none; stroke: #b0b0b0; stroke-width: 0.8; stroke-linecap: square"/>
     </g>
     <g id="line2d_30">
      <g>
       <use xlink:href="#m7d5063a252" x="56.50625" y="84.951418" style="stroke: #000000; stroke-width: 0.8"/>
      </g>
     </g>
     <g id="text_16">
      <!-- 4.00 -->
      <g transform="translate(27.240625 88.750637) scale(0.1 -0.1)">
       <use xlink:href="#DejaVuSans-34"/>
       <use xlink:href="#DejaVuSans-2e" x="63.623047"/>
       <use xlink:href="#DejaVuSans-30" x="95.410156"/>
       <use xlink:href="#DejaVuSans-30" x="159.033203"/>
      </g>
     </g>
    </g>
    <g id="ytick_7">
     <g id="line2d_31">
      <path d="M 56.50625 47.102693 
L 436.960795 47.102693 
" clip-path="url(#p89bf3ba9d4)" style="fill: none; stroke: #b0b0b0; stroke-width: 0.8; stroke-linecap: square"/>
     </g>
     <g id="line2d_32">
      <g>
       <use xlink:href="#m7d5063a252" x="56.50625" y="47.102693" style="stroke: #000000; stroke-width: 0.8"/>
      </g>
     </g>
     <g id="text_17">
      <!-- 8.00 -->
      <g transform="translate(27.240625 50.901912) scale(0.1 -0.1)">
       <use xlink:href="#DejaVuSans-38"/>
       <use xlink:href="#DejaVuSans-2e" x="63.623047"/>
       <use xlink:href="#DejaVuSans-30" x="95.410156"/>
       <use xlink:href="#DejaVuSans-30" x="159.033203"/>
      </g>
     </g>
    </g>
    <g id="ytick_8">
     <g id="line2d_33">
      <path d="M 56.50625 34.918125 
L 436.960795 34.918125 
" clip-path="url(#p89bf3ba9d4)" style="fill: none; stroke: #b0b0b0; stroke-width: 0.8; stroke-linecap: square"/>
     </g>
     <g id="line2d_34">
      <g>
       <use xlink:href="#m7d5063a252" x="56.50625" y="34.918125" style="stroke: #000000; stroke-width: 0.8"/>
      </g>
     </g>
     <g id="text_18">
      <!-- 10.00 -->
      <g transform="translate(20.878125 38.717344) scale(0.1 -0.1)">
       <use xlink:href="#DejaVuSans-31"/>
       <use xlink:href="#DejaVuSans-30" x="63.623047"/>
       <use xlink:href="#DejaVuSans-2e" x="127.246094"/>
       <use xlink:href="#DejaVuSans-30" x="159.033203"/>
       <use xlink:href="#DejaVuSans-30" x="222.65625"/>
      </g>
     </g>
    </g>
    <g id="text_19">
     <!-- seconds -->
     <g transform="translate(14.798438 181.355625) rotate(-90) scale(0.1 -0.1)">
      <use xlink:href="#DejaVuSans-73"/>
      <use xlink:href="#DejaVuSans-65" x="52.099609"/>
      <use xlink:href="#DejaVuSans-63" x="113.623047"/>
      <use xlink:href="#DejaVuSans-6f" x="168.603516"/>
      <use xlink:href="#DejaVuSans-6e" x="229.785156"/>
      <use xlink:href="#DejaVuSans-64" x="293.164062"/>
      <use xlink:href="#DejaVuSans-73" x="356.640625"/>
     </g>
    </g>
   </g>
   <g id="line2d_35">
    <path d="M 62.954632 175.204871 
L 69.403014 188.070879 
L 75.851396 169.786321 
L 82.299779 166.164375 
L 88.748161 169.626137 
L 95.196543 171.965601 
L 101.644925 176.872923 
L 108.093307 180.049742 
L 114.541689 185.949707 
L 120.990071 189.815512 
L 127.438453 195.223433 
L 133.886836 198.66958 
L 140.335218 198.678799 
L 146.7836 193.477654 
L 153.231982 167.149185 
L 159.680364 164.516227 
L 166.128746 40.985411 
L 172.577128 38.8304 
L 179.02551 37.312317 
L 185.473893 36.968234 
L 191.922275 34.918125 
L 198.370657 34.918125 
L 204.819039 34.918125 
L 211.267421 34.918125 
L 217.715803 34.918125 
L 224.164185 34.918125 
L 230.612567 34.918125 
L 237.06095 34.918125 
L 243.509332 34.918125 
L 249.957714 34.918125 
L 256.406096 34.918125 
L 262.854478 34.918125 
L 269.30286 34.918125 
L 275.751242 34.918125 
L 282.199624 34.918125 
L 288.648007 34.918125 
L 295.096389 34.918125 
L 301.544771 34.918125 
L 307.993153 34.918125 
L 314.441535 34.918125 
L 320.889917 34.918125 
L 327.338299 34.918125 
L 333.786681 34.918125 
L 340.235064 34.918125 
L 346.683446 34.918125 
L 353.131828 34.918125 
L 359.58021 34.918125 
L 366.028592 34.918125 
L 372.476974 34.918125 
L 378.925356 34.918125 
L 385.373738 34.918125 
L 391.822121 34.918125 
L 398.270503 34.918125 
L 404.718885 34.918125 
L 411.167267 34.918125 
L 417.615649 34.918125 
L 424.064031 34.918125 
L 430.512413 34.918125 
L 436.960795 34.918125 
L 443.409178 34.918125 
" clip-path="url(#p89bf3ba9d4)" style="fill: none; stroke: #1f77b4; stroke-width: 1.5; stroke-linecap: square"/>
   </g>
   <g id="line2d_36">
    <path d="M 62.954632 181.963748 
L 69.403014 166.421232 
L 75.851396 169.816451 
L 82.299779 174.561534 
L 88.748161 181.807949 
L 95.196543 189.877517 
L 101.644925 200.628143 
L 108.093307 212.942047 
L 114.541689 228.067406 
L 120.990071 251.029197 
L 127.438453 284.030188 
L 133.886836 286.426707 
L 140.335218 286.513707 
L 146.7836 286.546998 
L 153.231982 286.526582 
L 159.680364 286.535472 
L 166.128746 286.529243 
L 172.577128 286.433558 
L 179.02551 257.225048 
L 185.473893 254.163477 
L 191.922275 180.842386 
L 198.370657 170.290843 
L 204.819039 165.721378 
L 211.267421 160.735186 
L 217.715803 88.332319 
L 224.164185 43.413955 
L 230.612567 39.458696 
L 237.06095 38.227563 
L 243.509332 37.565902 
L 249.957714 37.160777 
L 256.406096 36.889665 
L 262.854478 34.918125 
L 269.30286 34.918125 
L 275.751242 34.918125 
L 282.199624 34.918125 
L 288.648007 34.918125 
L 295.096389 34.918125 
L 301.544771 34.918125 
L 307.993153 34.918125 
L 314.441535 34.918125 
L 320.889917 34.918125 
L 327.338299 34.918125 
L 333.786681 34.918125 
L 340.235064 34.918125 
L 346.683446 34.918125 
L 353.131828 34.918125 
L 359.58021 34.918125 
L 366.028592 34.918125 
L 372.476974 34.918125 
L 378.925356 34.918125 
L 385.373738 34.918125 
L 391.822121 34.918125 
L 398.270503 34.918125 
L 404.718885 34.918125 
L 411.167267 34.918125 
L 417.615649 34.918125 
L 424.064031 34.918125 
L 430.512413 34.918125 
L 436.960795 34.918125 
L 443.409178 34.918125 
" clip-path="url(#p89bf3ba9d4)" style="fill: none; stroke: #ff7f0e; stroke-width: 1.5; stroke-linecap: square"/>
   </g>
   <g id="line2d_37">
    <path d="M 62.954632 286.503193 
L 69.403014 286.394382 
L 75.851396 277.123076 
L 82.299779 286.447954 
L 88.748161 286.45309 
L 95.196543 286.400272 
L 101.644925 286.473733 
L 108.093307 286.585087 
L 114.541689 286.599507 
L 120.990071 286.678025 
L 127.438453 286.713425 
L 133.886836 286.732497 
L 140.335218 286.724172 
L 146.7836 286.721567 
L 153.231982 286.662567 
L 159.680364 286.681285 
L 166.128746 286.692485 
L 172.577128 286.683266 
L 179.02551 286.698873 
L 185.473893 286.678549 
L 191.922275 286.636939 
L 198.370657 286.586125 
L 204.819039 286.593682 
L 211.267421 286.567197 
L 217.715803 286.532568 
L 224.164185 254.662304 
L 230.612567 202.759985 
L 237.06095 182.6066 
L 243.509332 174.344481 
L 249.957714 170.258334 
L 256.406096 169.908825 
L 262.854478 168.35139 
L 269.30286 168.223169 
L 275.751242 166.895096 
L 282.199624 165.367448 
L 288.648007 72.676686 
L 295.096389 59.258852 
L 301.544771 48.173266 
L 307.993153 43.434133 
L 314.441535 34.918125 
L 320.889917 34.918125 
L 327.338299 34.918125 
L 333.786681 34.918125 
L 340.235064 34.918125 
L 346.683446 34.918125 
L 353.131828 34.918125 
L 359.58021 34.918125 
L 366.028592 34.918125 
L 372.476974 34.918125 
L 378.925356 34.918125 
L 385.373738 34.918125 
L 391.822121 34.918125 
L 398.270503 34.918125 
L 404.718885 34.918125 
L 411.167267 34.918125 
L 417.615649 34.918125 
L 424.064031 34.918125 
L 430.512413 34.918125 
L 436.960795 34.918125 
L 443.409178 34.918125 
" clip-path="url(#p89bf3ba9d4)" style="fill: none; stroke: #2ca02c; stroke-width: 1.5; stroke-linecap: square"/>
   </g>
   <g id="line2d_38">
    <path d="M 62.954632 217.662396 
L 69.403014 173.649341 
L 75.851396 171.179506 
L 82.299779 176.743373 
L 88.748161 184.668101 
L 95.196543 194.826047 
L 101.644925 213.566876 
L 108.093307 232.872563 
L 114.541689 277.517103 
L 120.990071 286.446332 
L 127.438453 286.524993 
L 133.886836 286.536394 
L 140.335218 286.582529 
L 146.7836 286.610278 
L 153.231982 286.637676 
L 159.680364 286.612179 
L 166.128746 286.611811 
L 172.577128 286.613551 
L 179.02551 221.285631 
L 185.473893 203.045654 
L 191.922275 192.349746 
L 198.370657 186.722786 
L 204.819039 185.981835 
L 211.267421 185.433047 
L 217.715803 179.446462 
L 224.164185 180.612903 
L 230.612567 181.013145 
L 237.06095 180.292254 
L 243.509332 178.756185 
L 249.957714 178.340156 
L 256.406096 173.553618 
L 262.854478 173.113005 
L 269.30286 170.957491 
L 275.751242 170.595098 
L 282.199624 168.755506 
L 288.648007 168.299914 
L 295.096389 166.690395 
L 301.544771 166.651172 
L 307.993153 165.952693 
L 314.441535 165.641623 
L 320.889917 165.100839 
L 327.338299 163.331191 
L 333.786681 60.071515 
L 340.235064 51.801886 
L 346.683446 44.922473 
L 353.131828 43.450099 
L 359.58021 36.363835 
L 366.028592 34.918125 
L 372.476974 34.918125 
L 378.925356 34.918125 
L 385.373738 34.918125 
L 391.822121 34.918125 
L 398.270503 34.918125 
L 404.718885 34.918125 
L 411.167267 34.918125 
L 417.615649 34.918125 
L 424.064031 34.918125 
L 430.512413 34.918125 
L 436.960795 34.918125 
L 443.409178 34.918125 
" clip-path="url(#p89bf3ba9d4)" style="fill: none; stroke: #d62728; stroke-width: 1.5; stroke-linecap: square"/>
   </g>
   <g id="line2d_39">
    <path d="M 62.954632 207.966036 
L 69.403014 260.307451 
L 75.851396 286.490725 
L 82.299779 286.383205 
L 88.748161 286.485526 
L 95.196543 286.59561 
L 101.644925 286.660991 
L 108.093307 286.697465 
L 114.541689 286.75115 
L 120.990071 286.78004 
L 127.438453 286.813506 
L 133.886836 286.845157 
L 140.335218 286.857672 
L 146.7836 286.864872 
L 153.231982 286.877196 
L 159.680364 286.892362 
L 166.128746 286.895159 
L 172.577128 286.897269 
L 179.02551 286.895489 
L 185.473893 286.913484 
L 191.922275 286.918125 
L 198.370657 286.909603 
L 204.819039 286.905443 
L 211.267421 286.869757 
L 217.715803 286.866352 
L 224.164185 286.860968 
L 230.612567 286.852727 
L 237.06095 286.834458 
L 243.509332 286.834494 
L 249.957714 286.813847 
L 256.406096 286.766736 
L 262.854478 286.652856 
L 269.30286 244.359197 
L 275.751242 194.893473 
L 282.199624 184.398699 
L 288.648007 180.992999 
L 295.096389 179.085688 
L 301.544771 175.94422 
L 307.993153 175.53185 
L 314.441535 174.257601 
L 320.889917 174.208992 
L 327.338299 173.648122 
L 333.786681 169.921386 
L 340.235064 165.12201 
L 346.683446 164.815334 
L 353.131828 164.45722 
L 359.58021 163.842432 
L 366.028592 163.271386 
L 372.476974 161.656202 
L 378.925356 56.671624 
L 385.373738 48.963941 
L 391.822121 44.449885 
L 398.270503 42.379763 
L 404.718885 40.296798 
L 411.167267 39.527195 
L 417.615649 35.105561 
L 424.064031 34.918125 
L 430.512413 34.918125 
L 436.960795 34.918125 
L 443.409178 34.918125 
" clip-path="url(#p89bf3ba9d4)" style="fill: none; stroke: #9467bd; stroke-width: 1.5; stroke-linecap: square"/>
   </g>
   <g id="line2d_40">
    <path d="M 56.50625 160.648868 
L 443.409178 160.648868 
" clip-path="url(#p89bf3ba9d4)" style="fill: none; stroke-dasharray: 5.55,2.4; stroke-dashoffset: 0; stroke: #000000; stroke-width: 1.5"/>
   </g>
   <g id="patch_3">
    <path d="M 56.50625 299.518125 
L 56.50625 22.318125 
" style="fill: none; stroke: #000000; stroke-width: 0.8; stroke-linejoin: miter; stroke-linecap: square"/>
   </g>
   <g id="patch_4">
    <path d="M 436.960795 299.518125 
L 436.960795 22.318125 
" style="fill: none; stroke: #000000; stroke-width: 0.8; stroke-linejoin: miter; stroke-linecap: square"/>
   </g>
   <g id="patch_5">
    <path d="M 56.50625 299.518125 
L 436.960795 299.518125 
" style="fill: none; stroke: #000000; stroke-width: 0.8; stroke-linejoin: miter; stroke-linecap: square"/>
   </g>
   <g id="patch_6">
    <path d="M 56.50625 22.318125 
L 436.960795 22.318125 
" style="fill: none; stroke: #000000; stroke-width: 0.8; stroke-linejoin: miter; stroke-linecap: square"/>
   </g>
   <g id="text_20">
    <!-- Queue latency (P99) -->
    <g transform="translate(185.232585 16.318125) scale(0.12 -0.12)">
     <defs>
      <path id="DejaVuSans-51" d="M 2522 4238 
Q 1834 4238 1429 3725 
Q 1025 3213 1025 2328 
Q 1025 1447 1429 934 
Q 1834 422 2522 422 
Q 3209 422 3611 934 
Q 4013 1447 4013 2328 
Q 4013 3213 3611 3725 
Q 3209 4238 2522 4238 
z
M 3406 84 
L 4238 -825 
L 3475 -825 
L 2784 -78 
Q 2681 -84 2626 -87 
Q 2572 -91 2522 -91 
Q 1538 -91 948 567 
Q 359 1225 359 2328 
Q 359 3434 948 4092 
Q 1538 4750 2522 4750 
Q 3503 4750 4090 4092 
Q 4678 3434 4678 2328 
Q 4678 1516 4351 937 
Q 4025 359 3406 84 
z
" transform="scale(0.015625)"/>
      <path id="DejaVuSans-75" d="M 544 1381 
L 544 3500 
L 1119 3500 
L 1119 1403 
Q 1119 906 1312 657 
Q 1506 409 1894 409 
Q 2359 409 2629 706 
Q 2900 1003 2900 1516 
L 2900 3500 
L 3475 3500 
L 3475 0 
L 2900 0 
L 2900 538 
Q 2691 219 2414 64 
Q 2138 -91 1772 -91 
Q 1169 -91 856 284 
Q 544 659 544 1381 
z
M 1991 3584 
L 1991 3584 
z
" transform="scale(0.015625)"/>
      <path id="DejaVuSans-6c" d="M 603 4863 
L 1178 4863 
L 1178 0 
L 603 0 
L 603 4863 
z
" transform="scale(0.015625)"/>
      <path id="DejaVuSans-61" d="M 2194 1759 
Q 1497 1759 1228 1600 
Q 959 1441 959 1056 
Q 959 750 1161 570 
Q 1363 391 1709 391 
Q 2188 391 2477 730 
Q 2766 1069 2766 1631 
L 2766 1759 
L 2194 1759 
z
M 3341 1997 
L 3341 0 
L 2766 0 
L 2766 531 
Q 2569 213 2275 61 
Q 1981 -91 1556 -91 
Q 1019 -91 701 211 
Q 384 513 384 1019 
Q 384 1609 779 1909 
Q 1175 2209 1959 2209 
L 2766 2209 
L 2766 2266 
Q 2766 2663 2505 2880 
Q 2244 3097 1772 3097 
Q 1472 3097 1187 3025 
Q 903 2953 641 2809 
L 641 3341 
Q 956 3463 1253 3523 
Q 1550 3584 1831 3584 
Q 2591 3584 2966 3190 
Q 3341 2797 3341 1997 
z
" transform="scale(0.015625)"/>
      <path id="DejaVuSans-74" d="M 1172 4494 
L 1172 3500 
L 2356 3500 
L 2356 3053 
L 1172 3053 
L 1172 1153 
Q 1172 725 1289 603 
Q 1406 481 1766 481 
L 2356 481 
L 2356 0 
L 1766 0 
Q 1100 0 847 248 
Q 594 497 594 1153 
L 594 3053 
L 172 3053 
L 172 3500 
L 594 3500 
L 594 4494 
L 1172 4494 
z
" transform="scale(0.015625)"/>
      <path id="DejaVuSans-79" d="M 2059 -325 
Q 1816 -950 1584 -1140 
Q 1353 -1331 966 -1331 
L 506 -1331 
L 506 -850 
L 844 -850 
Q 1081 -850 1212 -737 
Q 1344 -625 1503 -206 
L 1606 56 
L 191 3500 
L 800 3500 
L 1894 763 
L 2988 3500 
L 3597 3500 
L 2059 -325 
z
" transform="scale(0.015625)"/>
      <path id="DejaVuSans-28" d="M 1984 4856 
Q 1566 4138 1362 3434 
Q 1159 2731 1159 2009 
Q 1159 1288 1364 580 
Q 1569 -128 1984 -844 
L 1484 -844 
Q 1016 -109 783 600 
Q 550 1309 550 2009 
Q 550 2706 781 3412 
Q 1013 4119 1484 4856 
L 1984 4856 
z
" transform="scale(0.015625)"/>
      <path id="DejaVuSans-50" d="M 1259 4147 
L 1259 2394 
L 2053 2394 
Q 2494 2394 2734 2622 
Q 2975 2850 2975 3272 
Q 2975 3691 2734 3919 
Q 2494 4147 2053 4147 
L 1259 4147 
z
M 628 4666 
L 2053 4666 
Q 2838 4666 3239 4311 
Q 3641 3956 3641 3272 
Q 3641 2581 3239 2228 
Q 2838 1875 2053 1875 
L 1259 1875 
L 1259 0 
L 628 0 
L 628 4666 
z
" transform="scale(0.015625)"/>
      <path id="DejaVuSans-39" d="M 703 97 
L 703 672 
Q 941 559 1184 500 
Q 1428 441 1663 441 
Q 2288 441 2617 861 
Q 2947 1281 2994 2138 
Q 2813 1869 2534 1725 
Q 2256 1581 1919 1581 
Q 1219 1581 811 2004 
Q 403 2428 403 3163 
Q 403 3881 828 4315 
Q 1253 4750 1959 4750 
Q 2769 4750 3195 4129 
Q 3622 3509 3622 2328 
Q 3622 1225 3098 567 
Q 2575 -91 1691 -91 
Q 1453 -91 1209 -44 
Q 966 3 703 97 
z
M 1959 2075 
Q 2384 2075 2632 2365 
Q 2881 2656 2881 3163 
Q 2881 3666 2632 3958 
Q 2384 4250 1959 4250 
Q 1534 4250 1286 3958 
Q 1038 3666 1038 3163 
Q 1038 2656 1286 2365 
Q 1534 2075 1959 2075 
z
" transform="scale(0.015625)"/>
      <path id="DejaVuSans-29" d="M 513 4856 
L 1013 4856 
Q 1481 4119 1714 3412 
Q 1947 2706 1947 2009 
Q 1947 1309 1714 600 
Q 1481 -109 1013 -844 
L 513 -844 
Q 928 -128 1133 580 
Q 1338 1288 1338 2009 
Q 1338 2731 1133 3434 
Q 928 4138 513 4856 
z
" transform="scale(0.015625)"/>
     </defs>
     <use xlink:href="#DejaVuSans-51"/>
     <use xlink:href="#DejaVuSans-75" x="78.710938"/>
     <use xlink:href="#DejaVuSans-65" x="142.089844"/>
     <use xlink:href="#DejaVuSans-75" x="203.613281"/>
     <use xlink:href="#DejaVuSans-65" x="266.992188"/>
     <use xlink:href="#DejaVuSans-20" x="328.515625"/>
     <use xlink:href="#DejaVuSans-6c" x="360.302734"/>
     <use xlink:href="#DejaVuSans-61" x="388.085938"/>
     <use xlink:href="#DejaVuSans-74" x="449.365234"/>
     <use xlink:href="#DejaVuSans-65" x="488.574219"/>
     <use xlink:href="#DejaVuSans-6e" x="550.097656"/>
     <use xlink:href="#DejaVuSans-63" x="613.476562"/>
     <use xlink:href="#DejaVuSans-79" x="668.457031"/>
     <use xlink:href="#DejaVuSans-20" x="727.636719"/>
     <use xlink:href="#DejaVuSans-28" x="759.423828"/>
     <use xlink:href="#DejaVuSans-50" x="798.4375"/>
     <use xlink:href="#DejaVuSans-39" x="858.740234"/>
     <use xlink:href="#DejaVuSans-39" x="922.363281"/>
     <use xlink:href="#DejaVuSans-29" x="985.986328"/>
    </g>
   </g>
   <g id="legend_1">
    <g id="patch_7">
     <path d="M 63.50625 103.70875 
L 152.61875 103.70875 
Q 154.61875 103.70875 154.61875 101.70875 
L 154.61875 29.318125 
Q 154.61875 27.318125 152.61875 27.318125 
L 63.50625 27.318125 
Q 61.50625 27.318125 61.50625 29.318125 
L 61.50625 101.70875 
Q 61.50625 103.70875 63.50625 103.70875 
z
" style="fill: #ffffff; opacity: 0.8; stroke: #cccccc; stroke-linejoin: miter"/>
    </g>
    <g id="line2d_41">
     <path d="M 65.50625 35.416563 
L 75.50625 35.416563 
L 85.50625 35.416563 
" style="fill: none; stroke: #1f77b4; stroke-width: 1.5; stroke-linecap: square"/>
    </g>
    <g id="text_21">
     <!-- 1 instances -->
     <g transform="translate(93.50625 38.916563) scale(0.1 -0.1)">
      <use xlink:href="#DejaVuSans-31"/>
      <use xlink:href="#DejaVuSans-20" x="63.623047"/>
      <use xlink:href="#DejaVuSans-69" x="95.410156"/>
      <use xlink:href="#DejaVuSans-6e" x="123.193359"/>
      <use xlink:href="#DejaVuSans-73" x="186.572266"/>
      <use xlink:href="#DejaVuSans-74" x="238.671875"/>
      <use xlink:href="#DejaVuSans-61" x="277.880859"/>
      <use xlink:href="#DejaVuSans-6e" x="339.160156"/>
      <use xlink:href="#DejaVuSans-63" x="402.539062"/>
      <use xlink:href="#DejaVuSans-65" x="457.519531"/>
      <use xlink:href="#DejaVuSans-73" x="519.042969"/>
     </g>
    </g>
    <g id="line2d_42">
     <path d="M 65.50625 50.094688 
L 75.50625 50.094688 
L 85.50625 50.094688 
" style="fill: none; stroke: #ff7f0e; stroke-width: 1.5; stroke-linecap: square"/>
    </g>
    <g id="text_22">
     <!-- 2 instances -->
     <g transform="translate(93.50625 53.594688) scale(0.1 -0.1)">
      <use xlink:href="#DejaVuSans-32"/>
      <use xlink:href="#DejaVuSans-20" x="63.623047"/>
      <use xlink:href="#DejaVuSans-69" x="95.410156"/>
      <use xlink:href="#DejaVuSans-6e" x="123.193359"/>
      <use xlink:href="#DejaVuSans-73" x="186.572266"/>
      <use xlink:href="#DejaVuSans-74" x="238.671875"/>
      <use xlink:href="#DejaVuSans-61" x="277.880859"/>
      <use xlink:href="#DejaVuSans-6e" x="339.160156"/>
      <use xlink:href="#DejaVuSans-63" x="402.539062"/>
      <use xlink:href="#DejaVuSans-65" x="457.519531"/>
      <use xlink:href="#DejaVuSans-73" x="519.042969"/>
     </g>
    </g>
    <g id="line2d_43">
     <path d="M 65.50625 64.772813 
L 75.50625 64.772813 
L 85.50625 64.772813 
" style="fill: none; stroke: #2ca02c; stroke-width: 1.5; stroke-linecap: square"/>
    </g>
    <g id="text_23">
     <!-- 3 instances -->
     <g transform="translate(93.50625 68.272813) scale(0.1 -0.1)">
      <use xlink:href="#DejaVuSans-33"/>
      <use xlink:href="#DejaVuSans-20" x="63.623047"/>
      <use xlink:href="#DejaVuSans-69" x="95.410156"/>
      <use xlink:href="#DejaVuSans-6e" x="123.193359"/>
      <use xlink:href="#DejaVuSans-73" x="186.572266"/>
      <use xlink:href="#DejaVuSans-74" x="238.671875"/>
      <use xlink:href="#DejaVuSans-61" x="277.880859"/>
      <use xlink:href="#DejaVuSans-6e" x="339.160156"/>
      <use xlink:href="#DejaVuSans-63" x="402.539062"/>
      <use xlink:href="#DejaVuSans-65" x="457.519531"/>
      <use xlink:href="#DejaVuSans-73" x="519.042969"/>
     </g>
    </g>
    <g id="line2d_44">
     <path d="M 65.50625 79.450938 
L 75.50625 79.450938 
L 85.50625 79.450938 
" style="fill: none; stroke: #d62728; stroke-width: 1.5; stroke-linecap: square"/>
    </g>
    <g id="text_24">
     <!-- 4 instances -->
     <g transform="translate(93.50625 82.950938) scale(0.1 -0.1)">
      <use xlink:href="#DejaVuSans-34"/>
      <use xlink:href="#DejaVuSans-20" x="63.623047"/>
      <use xlink:href="#DejaVuSans-69" x="95.410156"/>
      <use xlink:href="#DejaVuSans-6e" x="123.193359"/>
      <use xlink:href="#DejaVuSans-73" x="186.572266"/>
      <use xlink:href="#DejaVuSans-74" x="238.671875"/>
      <use xlink:href="#DejaVuSans-61" x="277.880859"/>
      <use xlink:href="#DejaVuSans-6e" x="339.160156"/>
      <use xlink:href="#DejaVuSans-63" x="402.539062"/>
      <use xlink:href="#DejaVuSans-65" x="457.519531"/>
      <use xlink:href="#DejaVuSans-73" x="519.042969"/>
     </g>
    </g>
    <g id="line2d_45">
     <path d="M 65.50625 94.129063 
L 75.50625 94.129063 
L 85.50625 94.129063 
" style="fill: none; stroke: #9467bd; stroke-width: 1.5; stroke-linecap: square"/>
    </g>
    <g id="text_25">
     <!-- 5 instances -->
     <g transform="translate(93.50625 97.629063) scale(0.1 -0.1)">
      <use xlink:href="#DejaVuSans-35"/>
      <use xlink:href="#DejaVuSans-20" x="63.623047"/>
      <use xlink:href="#DejaVuSans-69" x="95.410156"/>
      <use xlink:href="#DejaVuSans-6e" x="123.193359"/>
      <use xlink:href="#DejaVuSans-73" x="186.572266"/>
      <use xlink:href="#DejaVuSans-74" x="238.671875"/>
      <use xlink:href="#DejaVuSans-61" x="277.880859"/>
      <use xlink:href="#DejaVuSans-6e" x="339.160156"/>
      <use xlink:href="#DejaVuSans-63" x="402.539062"/>
      <use xlink:href="#DejaVuSans-65" x="457.519531"/>
      <use xlink:href="#DejaVuSans-73" x="519.042969"/>
     </g>
    </g>
   </g>
  </g>
  <g id="axes_2">
   <g id="patch_8">
    <path d="M 513.051705 299.518125 
L 893.50625 299.518125 
L 893.50625 22.318125 
L 513.051705 22.318125 
z
" style="fill: #ffffff"/>
   </g>
   <g id="matplotlib.axis_3">
    <g id="xtick_10">
     <g id="line2d_46">
      <path d="M 513.051705 299.518125 
L 513.051705 22.318125 
" clip-path="url(#p6e99193e54)" style="fill: none; stroke: #b0b0b0; stroke-width: 0.8; stroke-linecap: square"/>
     </g>
     <g id="line2d_47">
      <g>
       <use xlink:href="#m56d187e45a" x="513.051705" y="299.518125" style="stroke: #000000; stroke-width: 0.8"/>
      </g>
     </g>
     <g id="text_26">
      <!-- 0 -->
      <g transform="translate(509.870455 314.116563) scale(0.1 -0.1)">
       <use xlink:href="#DejaVuSans-30"/>
      </g>
     </g>
    </g>
    <g id="xtick_11">
     <g id="line2d_48">
      <path d="M 556.040919 299.518125 
L 556.040919 22.318125 
" clip-path="url(#p6e99193e54)" style="fill: none; stroke: #b0b0b0; stroke-width: 0.8; stroke-linecap: square"/>
     </g>
     <g id="line2d_49">
      <g>
       <use xlink:href="#m56d187e45a" x="556.040919" y="299.518125" style="stroke: #000000; stroke-width: 0.8"/>
      </g>
     </g>
     <g id="text_27">
      <!-- 100 -->
      <g transform="translate(546.497169 314.116563) scale(0.1 -0.1)">
       <use xlink:href="#DejaVuSans-31"/>
       <use xlink:href="#DejaVuSans-30" x="63.623047"/>
       <use xlink:href="#DejaVuSans-30" x="127.246094"/>
      </g>
     </g>
    </g>
    <g id="xtick_12">
     <g id="line2d_50">
      <path d="M 599.030133 299.518125 
L 599.030133 22.318125 
" clip-path="url(#p6e99193e54)" style="fill: none; stroke: #b0b0b0; stroke-width: 0.8; stroke-linecap: square"/>
     </g>
     <g id="line2d_51">
      <g>
       <use xlink:href="#m56d187e45a" x="599.030133" y="299.518125" style="stroke: #000000; stroke-width: 0.8"/>
      </g>
     </g>
     <g id="text_28">
      <!-- 200 -->
      <g transform="translate(589.486383 314.116563) scale(0.1 -0.1)">
       <use xlink:href="#DejaVuSans-32"/>
       <use xlink:href="#DejaVuSans-30" x="63.623047"/>
       <use xlink:href="#DejaVuSans-30" x="127.246094"/>
      </g>
     </g>
    </g>
    <g id="xtick_13">
     <g id="line2d_52">
      <path d="M 642.019347 299.518125 
L 642.019347 22.318125 
" clip-path="url(#p6e99193e54)" style="fill: none; stroke: #b0b0b0; stroke-width: 0.8; stroke-linecap: square"/>
     </g>
     <g id="line2d_53">
      <g>
       <use xlink:href="#m56d187e45a" x="642.019347" y="299.518125" style="stroke: #000000; stroke-width: 0.8"/>
      </g>
     </g>
     <g id="text_29">
      <!-- 300 -->
      <g transform="translate(632.475597 314.116563) scale(0.1 -0.1)">
       <use xlink:href="#DejaVuSans-33"/>
       <use xlink:href="#DejaVuSans-30" x="63.623047"/>
       <use xlink:href="#DejaVuSans-30" x="127.246094"/>
      </g>
     </g>
    </g>
    <g id="xtick_14">
     <g id="line2d_54">
      <path d="M 685.008561 299.518125 
L 685.008561 22.318125 
" clip-path="url(#p6e99193e54)" style="fill: none; stroke: #b0b0b0; stroke-width: 0.8; stroke-linecap: square"/>
     </g>
     <g id="line2d_55">
      <g>
       <use xlink:href="#m56d187e45a" x="685.008561" y="299.518125" style="stroke: #000000; stroke-width: 0.8"/>
      </g>
     </g>
     <g id="text_30">
      <!-- 400 -->
      <g transform="translate(675.464811 314.116563) scale(0.1 -0.1)">
       <use xlink:href="#DejaVuSans-34"/>
       <use xlink:href="#DejaVuSans-30" x="63.623047"/>
       <use xlink:href="#DejaVuSans-30" x="127.246094"/>
      </g>
     </g>
    </g>
    <g id="xtick_15">
     <g id="line2d_56">
      <path d="M 727.997775 299.518125 
L 727.997775 22.318125 
" clip-path="url(#p6e99193e54)" style="fill: none; stroke: #b0b0b0; stroke-width: 0.8; stroke-linecap: square"/>
     </g>
     <g id="line2d_57">
      <g>
       <use xlink:href="#m56d187e45a" x="727.997775" y="299.518125" style="stroke: #000000; stroke-width: 0.8"/>
      </g>
     </g>
     <g id="text_31">
      <!-- 500 -->
      <g transform="translate(718.454025 314.116563) scale(0.1 -0.1)">
       <use xlink:href="#DejaVuSans-35"/>
       <use xlink:href="#DejaVuSans-30" x="63.623047"/>
       <use xlink:href="#DejaVuSans-30" x="127.246094"/>
      </g>
     </g>
    </g>
    <g id="xtick_16">
     <g id="line2d_58">
      <path d="M 770.98699 299.518125 
L 770.98699 22.318125 
" clip-path="url(#p6e99193e54)" style="fill: none; stroke: #b0b0b0; stroke-width: 0.8; stroke-linecap: square"/>
     </g>
     <g id="line2d_59">
      <g>
       <use xlink:href="#m56d187e45a" x="770.98699" y="299.518125" style="stroke: #000000; stroke-width: 0.8"/>
      </g>
     </g>
     <g id="text_32">
      <!-- 600 -->
      <g transform="translate(761.44324 314.116563) scale(0.1 -0.1)">
       <use xlink:href="#DejaVuSans-36"/>
       <use xlink:href="#DejaVuSans-30" x="63.623047"/>
       <use xlink:href="#DejaVuSans-30" x="127.246094"/>
      </g>
     </g>
    </g>
    <g id="xtick_17">
     <g id="line2d_60">
      <path d="M 813.976204 299.518125 
L 813.976204 22.318125 
" clip-path="url(#p6e99193e54)" style="fill: none; stroke: #b0b0b0; stroke-width: 0.8; stroke-linecap: square"/>
     </g>
     <g id="line2d_61">
      <g>
       <use xlink:href="#m56d187e45a" x="813.976204" y="299.518125" style="stroke: #000000; stroke-width: 0.8"/>
      </g>
     </g>
     <g id="text_33">
      <!-- 700 -->
      <g transform="translate(804.432454 314.116563) scale(0.1 -0.1)">
       <use xlink:href="#DejaVuSans-37"/>
       <use xlink:href="#DejaVuSans-30" x="63.623047"/>
       <use xlink:href="#DejaVuSans-30" x="127.246094"/>
      </g>
     </g>
    </g>
    <g id="xtick_18">
     <g id="line2d_62">
      <path d="M 856.965418 299.518125 
L 856.965418 22.318125 
" clip-path="url(#p6e99193e54)" style="fill: none; stroke: #b0b0b0; stroke-width: 0.8; stroke-linecap: square"/>
     </g>
     <g id="line2d_63">
      <g>
       <use xlink:href="#m56d187e45a" x="856.965418" y="299.518125" style="stroke: #000000; stroke-width: 0.8"/>
      </g>
     </g>
     <g id="text_34">
      <!-- 800 -->
      <g transform="translate(847.421668 314.116563) scale(0.1 -0.1)">
       <use xlink:href="#DejaVuSans-38"/>
       <use xlink:href="#DejaVuSans-30" x="63.623047"/>
       <use xlink:href="#DejaVuSans-30" x="127.246094"/>
      </g>
     </g>
    </g>
    <g id="text_35">
     <!-- Time in seconds -->
     <g transform="translate(662.871946 327.794688) scale(0.1 -0.1)">
      <use xlink:href="#DejaVuSans-54"/>
      <use xlink:href="#DejaVuSans-69" x="57.958984"/>
      <use xlink:href="#DejaVuSans-6d" x="85.742188"/>
      <use xlink:href="#DejaVuSans-65" x="183.154297"/>
      <use xlink:href="#DejaVuSans-20" x="244.677734"/>
      <use xlink:href="#DejaVuSans-69" x="276.464844"/>
      <use xlink:href="#DejaVuSans-6e" x="304.248047"/>
      <use xlink:href="#DejaVuSans-20" x="367.626953"/>
      <use xlink:href="#DejaVuSans-73" x="399.414062"/>
      <use xlink:href="#DejaVuSans-65" x="451.513672"/>
      <use xlink:href="#DejaVuSans-63" x="513.037109"/>
      <use xlink:href="#DejaVuSans-6f" x="568.017578"/>
      <use xlink:href="#DejaVuSans-6e" x="629.199219"/>
      <use xlink:href="#DejaVuSans-64" x="692.578125"/>
      <use xlink:href="#DejaVuSans-73" x="756.054688"/>
     </g>
    </g>
   </g>
   <g id="matplotlib.axis_4">
    <g id="ytick_9">
     <g id="line2d_64">
      <path d="M 513.051705 285.328045 
L 893.50625 285.328045 
" clip-path="url(#p6e99193e54)" style="fill: none; stroke: #b0b0b0; stroke-width: 0.8; stroke-linecap: square"/>
     </g>
     <g id="line2d_65">
      <g>
       <use xlink:href="#m7d5063a252" x="513.051705" y="285.328045" style="stroke: #000000; stroke-width: 0.8"/>
      </g>
     </g>
     <g id="text_36">
      <!-- 0.25 -->
      <g transform="translate(483.78608 289.127264) scale(0.1 -0.1)">
       <use xlink:href="#DejaVuSans-30"/>
       <use xlink:href="#DejaVuSans-2e" x="63.623047"/>
       <use xlink:href="#DejaVuSans-32" x="95.410156"/>
       <use xlink:href="#DejaVuSans-35" x="159.033203"/>
      </g>
     </g>
    </g>
    <g id="ytick_10">
     <g id="line2d_66">
      <path d="M 513.051705 238.275564 
L 893.50625 238.275564 
" clip-path="url(#p6e99193e54)" style="fill: none; stroke: #b0b0b0; stroke-width: 0.8; stroke-linecap: square"/>
     </g>
     <g id="line2d_67">
      <g>
       <use xlink:href="#m7d5063a252" x="513.051705" y="238.275564" style="stroke: #000000; stroke-width: 0.8"/>
      </g>
     </g>
     <g id="text_37">
      <!-- 0.50 -->
      <g transform="translate(483.78608 242.074783) scale(0.1 -0.1)">
       <use xlink:href="#DejaVuSans-30"/>
       <use xlink:href="#DejaVuSans-2e" x="63.623047"/>
       <use xlink:href="#DejaVuSans-35" x="95.410156"/>
       <use xlink:href="#DejaVuSans-30" x="159.033203"/>
      </g>
     </g>
    </g>
    <g id="ytick_11">
     <g id="line2d_68">
      <path d="M 513.051705 191.223083 
L 893.50625 191.223083 
" clip-path="url(#p6e99193e54)" style="fill: none; stroke: #b0b0b0; stroke-width: 0.8; stroke-linecap: square"/>
     </g>
     <g id="line2d_69">
      <g>
       <use xlink:href="#m7d5063a252" x="513.051705" y="191.223083" style="stroke: #000000; stroke-width: 0.8"/>
      </g>
     </g>
     <g id="text_38">
      <!-- 1.00 -->
      <g transform="translate(483.78608 195.022302) scale(0.1 -0.1)">
       <use xlink:href="#DejaVuSans-31"/>
       <use xlink:href="#DejaVuSans-2e" x="63.623047"/>
       <use xlink:href="#DejaVuSans-30" x="95.410156"/>
       <use xlink:href="#DejaVuSans-30" x="159.033203"/>
      </g>
     </g>
    </g>
    <g id="ytick_12">
     <g id="line2d_70">
      <path d="M 513.051705 144.170602 
L 893.50625 144.170602 
" clip-path="url(#p6e99193e54)" style="fill: none; stroke: #b0b0b0; stroke-width: 0.8; stroke-linecap: square"/>
     </g>
     <g id="line2d_71">
      <g>
       <use xlink:href="#m7d5063a252" x="513.051705" y="144.170602" style="stroke: #000000; stroke-width: 0.8"/>
      </g>
     </g>
     <g id="text_39">
      <!-- 2.00 -->
      <g transform="translate(483.78608 147.969821) scale(0.1 -0.1)">
       <use xlink:href="#DejaVuSans-32"/>
       <use xlink:href="#DejaVuSans-2e" x="63.623047"/>
       <use xlink:href="#DejaVuSans-30" x="95.410156"/>
       <use xlink:href="#DejaVuSans-30" x="159.033203"/>
      </g>
     </g>
    </g>
    <g id="ytick_13">
     <g id="line2d_72">
      <path d="M 513.051705 97.118121 
L 893.50625 97.118121 
" clip-path="url(#p6e99193e54)" style="fill: none; stroke: #b0b0b0; stroke-width: 0.8; stroke-linecap: square"/>
     </g>
     <g id="line2d_73">
      <g>
       <use xlink:href="#m7d5063a252" x="513.051705" y="97.118121" style="stroke: #000000; stroke-width: 0.8"/>
      </g>
     </g>
     <g id="text_40">
      <!-- 4.00 -->
      <g transform="translate(483.78608 100.91734) scale(0.1 -0.1)">
       <use xlink:href="#DejaVuSans-34"/>
       <use xlink:href="#DejaVuSans-2e" x="63.623047"/>
       <use xlink:href="#DejaVuSans-30" x="95.410156"/>
       <use xlink:href="#DejaVuSans-30" x="159.033203"/>
      </g>
     </g>
    </g>
    <g id="ytick_14">
     <g id="line2d_74">
      <path d="M 513.051705 50.065641 
L 893.50625 50.065641 
" clip-path="url(#p6e99193e54)" style="fill: none; stroke: #b0b0b0; stroke-width: 0.8; stroke-linecap: square"/>
     </g>
     <g id="line2d_75">
      <g>
       <use xlink:href="#m7d5063a252" x="513.051705" y="50.065641" style="stroke: #000000; stroke-width: 0.8"/>
      </g>
     </g>
     <g id="text_41">
      <!-- 8.00 -->
      <g transform="translate(483.78608 53.864859) scale(0.1 -0.1)">
       <use xlink:href="#DejaVuSans-38"/>
       <use xlink:href="#DejaVuSans-2e" x="63.623047"/>
       <use xlink:href="#DejaVuSans-30" x="95.410156"/>
       <use xlink:href="#DejaVuSans-30" x="159.033203"/>
      </g>
     </g>
    </g>
    <g id="ytick_15">
     <g id="line2d_76">
      <path d="M 513.051705 34.918125 
L 893.50625 34.918125 
" clip-path="url(#p6e99193e54)" style="fill: none; stroke: #b0b0b0; stroke-width: 0.8; stroke-linecap: square"/>
     </g>
     <g id="line2d_77">
      <g>
       <use xlink:href="#m7d5063a252" x="513.051705" y="34.918125" style="stroke: #000000; stroke-width: 0.8"/>
      </g>
     </g>
     <g id="text_42">
      <!-- 10.00 -->
      <g transform="translate(477.42358 38.717344) scale(0.1 -0.1)">
       <use xlink:href="#DejaVuSans-31"/>
       <use xlink:href="#DejaVuSans-30" x="63.623047"/>
       <use xlink:href="#DejaVuSans-2e" x="127.246094"/>
       <use xlink:href="#DejaVuSans-30" x="159.033203"/>
       <use xlink:href="#DejaVuSans-30" x="222.65625"/>
      </g>
     </g>
    </g>
    <g id="text_43">
     <!-- seconds -->
     <g transform="translate(471.343892 181.355625) rotate(-90) scale(0.1 -0.1)">
      <use xlink:href="#DejaVuSans-73"/>
      <use xlink:href="#DejaVuSans-65" x="52.099609"/>
      <use xlink:href="#DejaVuSans-63" x="113.623047"/>
      <use xlink:href="#DejaVuSans-6f" x="168.603516"/>
      <use xlink:href="#DejaVuSans-6e" x="229.785156"/>
      <use xlink:href="#DejaVuSans-64" x="293.164062"/>
      <use xlink:href="#DejaVuSans-73" x="356.640625"/>
     </g>
    </g>
   </g>
   <g id="line2d_78">
    <path d="M 513.051705 245.995743 
L 519.500087 252.579809 
L 525.948469 195.360566 
L 532.396851 196.296902 
L 538.845233 199.274323 
L 545.293615 201.27461 
L 551.741997 206.452524 
L 558.190379 209.422947 
L 564.638762 216.966339 
L 571.087144 221.360129 
L 577.535526 232.524021 
L 583.983908 238.880884 
L 590.43229 248.305162 
L 596.880672 248.882036 
L 603.329054 193.689439 
L 609.777436 134.685014 
L 616.225819 82.645572 
L 622.674201 40.224136 
L 629.122583 34.918125 
L 635.570965 34.918125 
L 642.019347 34.918125 
L 648.467729 34.918125 
L 654.916111 34.918125 
L 661.364493 34.918125 
L 667.812876 34.918125 
L 674.261258 34.918125 
L 680.70964 34.918125 
L 687.158022 34.918125 
L 693.606404 34.918125 
L 700.054786 34.918125 
L 706.503168 34.918125 
L 712.95155 34.918125 
L 719.399933 34.918125 
L 725.848315 34.918125 
L 732.296697 34.918125 
L 738.745079 34.918125 
L 745.193461 34.918125 
L 751.641843 34.918125 
L 758.090225 34.918125 
L 764.538607 34.918125 
L 770.98699 34.918125 
L 777.435372 34.918125 
L 783.883754 34.918125 
L 790.332136 34.918125 
L 796.780518 34.918125 
L 803.2289 34.918125 
L 809.677282 34.918125 
L 816.125664 34.918125 
L 822.574047 34.918125 
L 829.022429 34.918125 
L 835.470811 34.918125 
L 841.919193 34.918125 
L 848.367575 34.918125 
L 854.815957 34.918125 
L 861.264339 34.918125 
L 867.712721 34.918125 
L 874.161104 34.918125 
L 880.609486 34.918125 
L 887.057868 34.918125 
L 893.50625 34.918125 
" clip-path="url(#p6e99193e54)" style="fill: none; stroke: #1f77b4; stroke-width: 1.5; stroke-linecap: square"/>
   </g>
   <g id="line2d_79">
    <path d="M 513.051705 275.840672 
L 519.500087 204.539364 
L 525.948469 214.891724 
L 532.396851 238.710245 
L 538.845233 240.783883 
L 545.293615 245.395599 
L 551.741997 248.505384 
L 558.190379 255.0964 
L 564.638762 259.542084 
L 571.087144 269.763207 
L 577.535526 276.557702 
L 583.983908 285.420841 
L 590.43229 285.558933 
L 596.880672 285.720864 
L 603.329054 285.814866 
L 609.777436 285.96104 
L 616.225819 285.986757 
L 622.674201 285.89126 
L 629.122583 285.827271 
L 635.570965 285.824588 
L 642.019347 250.013665 
L 648.467729 178.617716 
L 654.916111 139.028973 
L 661.364493 132.260718 
L 667.812876 132.23188 
L 674.261258 86.346836 
L 680.70964 84.732601 
L 687.158022 48.437982 
L 693.606404 40.561204 
L 700.054786 34.918125 
L 706.503168 34.918125 
L 712.95155 34.918125 
L 719.399933 34.918125 
L 725.848315 34.918125 
L 732.296697 34.918125 
L 738.745079 34.918125 
L 745.193461 34.918125 
L 751.641843 34.918125 
L 758.090225 34.918125 
L 764.538607 34.918125 
L 770.98699 34.918125 
L 777.435372 34.918125 
L 783.883754 34.918125 
L 790.332136 34.918125 
L 796.780518 34.918125 
L 803.2289 34.918125 
L 809.677282 34.918125 
L 816.125664 34.918125 
L 822.574047 34.918125 
L 829.022429 34.918125 
L 835.470811 34.918125 
L 841.919193 34.918125 
L 848.367575 34.918125 
L 854.815957 34.918125 
L 861.264339 34.918125 
L 867.712721 34.918125 
L 874.161104 34.918125 
L 880.609486 34.918125 
L 887.057868 34.918125 
L 893.50625 34.918125 
" clip-path="url(#p6e99193e54)" style="fill: none; stroke: #ff7f0e; stroke-width: 1.5; stroke-linecap: square"/>
   </g>
   <g id="line2d_80">
    <path d="M 513.051705 285.762587 
L 519.500087 285.766193 
L 525.948469 285.838195 
L 532.396851 285.967686 
L 538.845233 286.050047 
L 545.293615 286.188746 
L 551.741997 286.255723 
L 558.190379 286.384074 
L 564.638762 286.303475 
L 571.087144 286.442328 
L 577.535526 286.485785 
L 583.983908 286.547871 
L 590.43229 286.39867 
L 596.880672 286.469741 
L 603.329054 286.329699 
L 609.777436 286.412888 
L 616.225819 286.428515 
L 622.674201 286.392094 
L 629.122583 286.420393 
L 635.570965 286.446293 
L 642.019347 286.436109 
L 648.467729 286.364129 
L 654.916111 286.386939 
L 661.364493 286.360522 
L 667.812876 286.319878 
L 674.261258 285.785587 
L 680.70964 270.493283 
L 687.158022 249.426881 
L 693.606404 239.181393 
L 700.054786 210.543671 
L 706.503168 211.533937 
L 712.95155 209.716023 
L 719.399933 210.607315 
L 725.848315 178.781507 
L 732.296697 148.588272 
L 738.745079 94.014951 
L 745.193461 65.261317 
L 751.641843 34.918125 
L 758.090225 34.918125 
L 764.538607 34.918125 
L 770.98699 34.918125 
L 777.435372 34.918125 
L 783.883754 34.918125 
L 790.332136 34.918125 
L 796.780518 34.918125 
L 803.2289 34.918125 
L 809.677282 34.918125 
L 816.125664 34.918125 
L 822.574047 34.918125 
L 829.022429 34.918125 
L 835.470811 34.918125 
L 841.919193 34.918125 
L 848.367575 34.918125 
L 854.815957 34.918125 
L 861.264339 34.918125 
L 867.712721 34.918125 
L 874.161104 34.918125 
L 880.609486 34.918125 
L 887.057868 34.918125 
L 893.50625 34.918125 
" clip-path="url(#p6e99193e54)" style="fill: none; stroke: #2ca02c; stroke-width: 1.5; stroke-linecap: square"/>
   </g>
   <g id="line2d_81">
    <path d="M 513.051705 250.719902 
L 519.500087 245.631058 
L 525.948469 241.295913 
L 532.396851 246.404429 
L 538.845233 248.922404 
L 545.293615 257.034771 
L 551.741997 262.518798 
L 558.190379 276.088661 
L 564.638762 285.331202 
L 571.087144 285.627832 
L 577.535526 285.76451 
L 583.983908 285.919995 
L 590.43229 286.015346 
L 596.880672 286.205951 
L 603.329054 286.29924 
L 609.777436 286.157682 
L 616.225819 286.219108 
L 622.674201 286.253716 
L 629.122583 285.45145 
L 635.570965 255.046635 
L 642.019347 254.491491 
L 648.467729 246.697231 
L 654.916111 247.029211 
L 661.364493 247.598688 
L 667.812876 243.305615 
L 674.261258 244.256063 
L 680.70964 244.565366 
L 687.158022 244.684105 
L 693.606404 244.961082 
L 700.054786 244.458968 
L 706.503168 239.342821 
L 712.95155 238.614194 
L 719.399933 238.696146 
L 725.848315 238.986421 
L 732.296697 231.817689 
L 738.745079 202.317086 
L 745.193461 167.659441 
L 751.641843 153.06862 
L 758.090225 154.069562 
L 764.538607 147.636063 
L 770.98699 146.811226 
L 777.435372 133.626291 
L 783.883754 95.433865 
L 790.332136 50.890836 
L 796.780518 36.142651 
L 803.2289 34.918125 
L 809.677282 34.918125 
L 816.125664 34.918125 
L 822.574047 34.918125 
L 829.022429 34.918125 
L 835.470811 34.918125 
L 841.919193 34.918125 
L 848.367575 34.918125 
L 854.815957 34.918125 
L 861.264339 34.918125 
L 867.712721 34.918125 
L 874.161104 34.918125 
L 880.609486 34.918125 
L 887.057868 34.918125 
L 893.50625 34.918125 
" clip-path="url(#p6e99193e54)" style="fill: none; stroke: #d62728; stroke-width: 1.5; stroke-linecap: square"/>
   </g>
   <g id="line2d_82">
    <path d="M 513.051705 285.758299 
L 519.500087 285.75823 
L 525.948469 285.897696 
L 532.396851 285.795011 
L 538.845233 285.989698 
L 545.293615 285.858809 
L 551.741997 286.058646 
L 558.190379 286.143319 
L 564.638762 286.314548 
L 571.087144 286.387379 
L 577.535526 286.558395 
L 583.983908 286.618599 
L 590.43229 286.750246 
L 596.880672 286.779183 
L 603.329054 286.862246 
L 609.777436 286.896739 
L 616.225819 286.879898 
L 622.674201 286.83146 
L 629.122583 286.867954 
L 635.570965 286.891485 
L 642.019347 286.918125 
L 648.467729 286.895081 
L 654.916111 286.847778 
L 661.364493 286.762524 
L 667.812876 286.710882 
L 674.261258 286.69688 
L 680.70964 286.653743 
L 687.158022 286.591015 
L 693.606404 286.563438 
L 700.054786 286.528854 
L 706.503168 286.364771 
L 712.95155 286.253756 
L 719.399933 260.988267 
L 725.848315 255.616152 
L 732.296697 248.78977 
L 738.745079 247.443346 
L 745.193461 245.445977 
L 751.641843 245.066705 
L 758.090225 245.092148 
L 764.538607 244.522822 
L 770.98699 244.780033 
L 777.435372 244.728969 
L 783.883754 156.703092 
L 790.332136 147.535185 
L 796.780518 148.969345 
L 803.2289 149.265517 
L 809.677282 148.15666 
L 816.125664 144.461804 
L 822.574047 133.602657 
L 829.022429 112.735685 
L 835.470811 93.214579 
L 841.919193 88.055876 
L 848.367575 49.446647 
L 854.815957 36.970048 
L 861.264339 34.918125 
L 867.712721 34.918125 
L 874.161104 34.918125 
L 880.609486 34.918125 
L 887.057868 34.918125 
L 893.50625 34.918125 
" clip-path="url(#p6e99193e54)" style="fill: none; stroke: #9467bd; stroke-width: 1.5; stroke-linecap: square"/>
   </g>
   <g id="line2d_83">
    <path d="M 513.051705 81.970606 
L 893.50625 81.970606 
" clip-path="url(#p6e99193e54)" style="fill: none; stroke-dasharray: 5.55,2.4; stroke-dashoffset: 0; stroke: #000000; stroke-width: 1.5"/>
   </g>
   <g id="patch_9">
    <path d="M 513.051705 299.518125 
L 513.051705 22.318125 
" style="fill: none; stroke: #000000; stroke-width: 0.8; stroke-linejoin: miter; stroke-linecap: square"/>
   </g>
   <g id="patch_10">
    <path d="M 893.50625 299.518125 
L 893.50625 22.318125 
" style="fill: none; stroke: #000000; stroke-width: 0.8; stroke-linejoin: miter; stroke-linecap: square"/>
   </g>
   <g id="patch_11">
    <path d="M 513.051705 299.518125 
L 893.50625 299.518125 
" style="fill: none; stroke: #000000; stroke-width: 0.8; stroke-linejoin: miter; stroke-linecap: square"/>
   </g>
   <g id="patch_12">
    <path d="M 513.051705 22.318125 
L 893.50625 22.318125 
" style="fill: none; stroke: #000000; stroke-width: 0.8; stroke-linejoin: miter; stroke-linecap: square"/>
   </g>
   <g id="text_44">
    <!-- Reconciliation latency (P99) -->
    <g transform="translate(619.65679 16.318125) scale(0.12 -0.12)">
     <defs>
      <path id="DejaVuSans-52" d="M 2841 2188 
Q 3044 2119 3236 1894 
Q 3428 1669 3622 1275 
L 4263 0 
L 3584 0 
L 2988 1197 
Q 2756 1666 2539 1819 
Q 2322 1972 1947 1972 
L 1259 1972 
L 1259 0 
L 628 0 
L 628 4666 
L 2053 4666 
Q 2853 4666 3247 4331 
Q 3641 3997 3641 3322 
Q 3641 2881 3436 2590 
Q 3231 2300 2841 2188 
z
M 1259 4147 
L 1259 2491 
L 2053 2491 
Q 2509 2491 2742 2702 
Q 2975 2913 2975 3322 
Q 2975 3731 2742 3939 
Q 2509 4147 2053 4147 
L 1259 4147 
z
" transform="scale(0.015625)"/>
     </defs>
     <use xlink:href="#DejaVuSans-52"/>
     <use xlink:href="#DejaVuSans-65" x="64.982422"/>
     <use xlink:href="#DejaVuSans-63" x="126.505859"/>
     <use xlink:href="#DejaVuSans-6f" x="181.486328"/>
     <use xlink:href="#DejaVuSans-6e" x="242.667969"/>
     <use xlink:href="#DejaVuSans-63" x="306.046875"/>
     <use xlink:href="#DejaVuSans-69" x="361.027344"/>
     <use xlink:href="#DejaVuSans-6c" x="388.810547"/>
     <use xlink:href="#DejaVuSans-69" x="416.59375"/>
     <use xlink:href="#DejaVuSans-61" x="444.376953"/>
     <use xlink:href="#DejaVuSans-74" x="505.65625"/>
     <use xlink:href="#DejaVuSans-69" x="544.865234"/>
     <use xlink:href="#DejaVuSans-6f" x="572.648438"/>
     <use xlink:href="#DejaVuSans-6e" x="633.830078"/>
     <use xlink:href="#DejaVuSans-20" x="697.208984"/>
     <use xlink:href="#DejaVuSans-6c" x="728.996094"/>
     <use xlink:href="#DejaVuSans-61" x="756.779297"/>
     <use xlink:href="#DejaVuSans-74" x="818.058594"/>
     <use xlink:href="#DejaVuSans-65" x="857.267578"/>
     <use xlink:href="#DejaVuSans-6e" x="918.791016"/>
     <use xlink:href="#DejaVuSans-63" x="982.169922"/>
     <use xlink:href="#DejaVuSans-79" x="1037.150391"/>
     <use xlink:href="#DejaVuSans-20" x="1096.330078"/>
     <use xlink:href="#DejaVuSans-28" x="1128.117188"/>
     <use xlink:href="#DejaVuSans-50" x="1167.130859"/>
     <use xlink:href="#DejaVuSans-39" x="1227.433594"/>
     <use xlink:href="#DejaVuSans-39" x="1291.056641"/>
     <use xlink:href="#DejaVuSans-29" x="1354.679688"/>
    </g>
   </g>
   <g id="legend_2">
    <g id="patch_13">
     <path d="M 520.051705 103.70875 
L 609.164205 103.70875 
Q 611.164205 103.70875 611.164205 101.70875 
L 611.164205 29.318125 
Q 611.164205 27.318125 609.164205 27.318125 
L 520.051705 27.318125 
Q 518.051705 27.318125 518.051705 29.318125 
L 518.051705 101.70875 
Q 518.051705 103.70875 520.051705 103.70875 
z
" style="fill: #ffffff; opacity: 0.8; stroke: #cccccc; stroke-linejoin: miter"/>
    </g>
    <g id="line2d_84">
     <path d="M 522.051705 35.416563 
L 532.051705 35.416563 
L 542.051705 35.416563 
" style="fill: none; stroke: #1f77b4; stroke-width: 1.5; stroke-linecap: square"/>
    </g>
    <g id="text_45">
     <!-- 1 instances -->
     <g transform="translate(550.051705 38.916563) scale(0.1 -0.1)">
      <use xlink:href="#DejaVuSans-31"/>
      <use xlink:href="#DejaVuSans-20" x="63.623047"/>
      <use xlink:href="#DejaVuSans-69" x="95.410156"/>
      <use xlink:href="#DejaVuSans-6e" x="123.193359"/>
      <use xlink:href="#DejaVuSans-73" x="186.572266"/>
      <use xlink:href="#DejaVuSans-74" x="238.671875"/>
      <use xlink:href="#DejaVuSans-61" x="277.880859"/>
      <use xlink:href="#DejaVuSans-6e" x="339.160156"/>
      <use xlink:href="#DejaVuSans-63" x="402.539062"/>
      <use xlink:href="#DejaVuSans-65" x="457.519531"/>
      <use xlink:href="#DejaVuSans-73" x="519.042969"/>
     </g>
    </g>
    <g id="line2d_85">
     <path d="M 522.051705 50.094688 
L 532.051705 50.094688 
L 542.051705 50.094688 
" style="fill: none; stroke: #ff7f0e; stroke-width: 1.5; stroke-linecap: square"/>
    </g>
    <g id="text_46">
     <!-- 2 instances -->
     <g transform="translate(550.051705 53.594688) scale(0.1 -0.1)">
      <use xlink:href="#DejaVuSans-32"/>
      <use xlink:href="#DejaVuSans-20" x="63.623047"/>
      <use xlink:href="#DejaVuSans-69" x="95.410156"/>
      <use xlink:href="#DejaVuSans-6e" x="123.193359"/>
      <use xlink:href="#DejaVuSans-73" x="186.572266"/>
      <use xlink:href="#DejaVuSans-74" x="238.671875"/>
      <use xlink:href="#DejaVuSans-61" x="277.880859"/>
      <use xlink:href="#DejaVuSans-6e" x="339.160156"/>
      <use xlink:href="#DejaVuSans-63" x="402.539062"/>
      <use xlink:href="#DejaVuSans-65" x="457.519531"/>
      <use xlink:href="#DejaVuSans-73" x="519.042969"/>
     </g>
    </g>
    <g id="line2d_86">
     <path d="M 522.051705 64.772813 
L 532.051705 64.772813 
L 542.051705 64.772813 
" style="fill: none; stroke: #2ca02c; stroke-width: 1.5; stroke-linecap: square"/>
    </g>
    <g id="text_47">
     <!-- 3 instances -->
     <g transform="translate(550.051705 68.272813) scale(0.1 -0.1)">
      <use xlink:href="#DejaVuSans-33"/>
      <use xlink:href="#DejaVuSans-20" x="63.623047"/>
      <use xlink:href="#DejaVuSans-69" x="95.410156"/>
      <use xlink:href="#DejaVuSans-6e" x="123.193359"/>
      <use xlink:href="#DejaVuSans-73" x="186.572266"/>
      <use xlink:href="#DejaVuSans-74" x="238.671875"/>
      <use xlink:href="#DejaVuSans-61" x="277.880859"/>
      <use xlink:href="#DejaVuSans-6e" x="339.160156"/>
      <use xlink:href="#DejaVuSans-63" x="402.539062"/>
      <use xlink:href="#DejaVuSans-65" x="457.519531"/>
      <use xlink:href="#DejaVuSans-73" x="519.042969"/>
     </g>
    </g>
    <g id="line2d_87">
     <path d="M 522.051705 79.450938 
L 532.051705 79.450938 
L 542.051705 79.450938 
" style="fill: none; stroke: #d62728; stroke-width: 1.5; stroke-linecap: square"/>
    </g>
    <g id="text_48">
     <!-- 4 instances -->
     <g transform="translate(550.051705 82.950938) scale(0.1 -0.1)">
      <use xlink:href="#DejaVuSans-34"/>
      <use xlink:href="#DejaVuSans-20" x="63.623047"/>
      <use xlink:href="#DejaVuSans-69" x="95.410156"/>
      <use xlink:href="#DejaVuSans-6e" x="123.193359"/>
      <use xlink:href="#DejaVuSans-73" x="186.572266"/>
      <use xlink:href="#DejaVuSans-74" x="238.671875"/>
      <use xlink:href="#DejaVuSans-61" x="277.880859"/>
      <use xlink:href="#DejaVuSans-6e" x="339.160156"/>
      <use xlink:href="#DejaVuSans-63" x="402.539062"/>
      <use xlink:href="#DejaVuSans-65" x="457.519531"/>
      <use xlink:href="#DejaVuSans-73" x="519.042969"/>
     </g>
    </g>
    <g id="line2d_88">
     <path d="M 522.051705 94.129063 
L 532.051705 94.129063 
L 542.051705 94.129063 
" style="fill: none; stroke: #9467bd; stroke-width: 1.5; stroke-linecap: square"/>
    </g>
    <g id="text_49">
     <!-- 5 instances -->
     <g transform="translate(550.051705 97.629063) scale(0.1 -0.1)">
      <use xlink:href="#DejaVuSans-35"/>
      <use xlink:href="#DejaVuSans-20" x="63.623047"/>
      <use xlink:href="#DejaVuSans-69" x="95.410156"/>
      <use xlink:href="#DejaVuSans-6e" x="123.193359"/>
      <use xlink:href="#DejaVuSans-73" x="186.572266"/>
      <use xlink:href="#DejaVuSans-74" x="238.671875"/>
      <use xlink:href="#DejaVuSans-61" x="277.880859"/>
      <use xlink:href="#DejaVuSans-6e" x="339.160156"/>
      <use xlink:href="#DejaVuSans-63" x="402.539062"/>
      <use xlink:href="#DejaVuSans-65" x="457.519531"/>
      <use xlink:href="#DejaVuSans-73" x="519.042969"/>
     </g>
    </g>
   </g>
  </g>
 </g>
 <defs>
  <clipPath id="p89bf3ba9d4">
   <rect x="56.50625" y="22.318125" width="380.454545" height="277.2"/>
  </clipPath>
  <clipPath id="p6e99193e54">
   <rect x="513.051705" y="22.318125" width="380.454545" height="277.2"/>
  </clipPath>
 </defs>
</svg>
