<?xml version="1.0" encoding="utf-8" standalone="no"?>
<!DOCTYPE svg PUBLIC "-//W3C//DTD SVG 1.1//EN"
  "http://www.w3.org/Graphics/SVG/1.1/DTD/svg11.dtd">
<svg xmlns:xlink="http://www.w3.org/1999/xlink" width="897.528125pt" height="226.194375pt" viewBox="0 0 897.528125 226.194375" xmlns="http://www.w3.org/2000/svg" version="1.1">
 <metadata>
  <rdf:RDF xmlns:dc="http://purl.org/dc/elements/1.1/" xmlns:cc="http://creativecommons.org/ns#" xmlns:rdf="http://www.w3.org/1999/02/22-rdf-syntax-ns#">
   <cc:Work>
    <dc:type rdf:resource="http://purl.org/dc/dcmitype/StillImage"/>
    <dc:date>2024-02-07T12:56:46.761589</dc:date>
    <dc:format>image/svg+xml</dc:format>
    <dc:creator>
     <cc:Agent>
      <dc:title>Matplotlib v3.7.1, https://matplotlib.org/</dc:title>
     </cc:Agent>
    </dc:creator>
   </cc:Work>
  </rdf:RDF>
 </metadata>
 <defs>
  <style type="text/css">*{stroke-linejoin: round; stroke-linecap: butt}</style>
 </defs>
 <g id="figure_1">
  <g id="patch_1">
   <path d="M 0 226.194375 
L 897.528125 226.194375 
L 897.528125 0 
L 0 0 
z
" style="fill: #ffffff"/>
  </g>
  <g id="axes_1">
   <g id="patch_2">
    <path d="M 53.328125 188.638125 
L 433.78267 188.638125 
L 433.78267 22.318125 
L 53.328125 22.318125 
z
" style="fill: #ffffff"/>
   </g>
   <g id="PolyCollection_1">
    <defs>
     <path id="m10dc945720" d="M 53.328125 -39.163744 
L 53.328125 -37.55625 
L 59.776507 -37.55625 
L 66.224889 -37.55625 
L 72.673271 -37.55625 
L 79.121654 -37.55625 
L 85.570036 -37.55625 
L 92.018418 -37.55625 
L 98.4668 -37.55625 
L 104.915182 -37.55625 
L 111.363564 -37.55625 
L 117.811946 -37.55625 
L 124.260328 -37.55625 
L 130.708711 -37.55625 
L 137.157093 -37.55625 
L 143.605475 -37.55625 
L 150.053857 -37.55625 
L 156.502239 -37.55625 
L 162.950621 -37.55625 
L 169.399003 -37.55625 
L 175.847385 -37.55625 
L 182.295768 -37.55625 
L 188.74415 -37.55625 
L 195.192532 -37.55625 
L 201.640914 -37.55625 
L 208.089296 -37.55625 
L 214.537678 -37.55625 
L 220.98606 -37.55625 
L 227.434442 -37.55625 
L 233.882825 -37.55625 
L 240.331207 -37.55625 
L 246.779589 -37.55625 
L 253.227971 -37.55625 
L 259.676353 -37.55625 
L 266.124735 -37.55625 
L 272.573117 -37.55625 
L 279.021499 -37.55625 
L 285.469882 -37.55625 
L 291.918264 -37.55625 
L 298.366646 -37.55625 
L 304.815028 -37.55625 
L 311.26341 -37.55625 
L 317.711792 -37.55625 
L 324.160174 -37.55625 
L 330.608556 -37.55625 
L 337.056939 -37.55625 
L 343.505321 -37.55625 
L 349.953703 -37.55625 
L 356.402085 -37.55625 
L 362.850467 -37.55625 
L 369.298849 -37.55625 
L 375.747231 -37.55625 
L 382.195613 -37.55625 
L 388.643996 -37.55625 
L 395.092378 -37.55625 
L 401.54076 -37.55625 
L 407.989142 -37.55625 
L 414.437524 -37.55625 
L 420.885906 -37.55625 
L 427.334288 -37.55625 
L 433.78267 -37.55625 
L 433.78267 -195.95625 
L 433.78267 -195.95625 
L 427.334288 -192.864915 
L 420.885906 -190.621489 
L 414.437524 -187.44183 
L 407.989142 -185.428047 
L 401.54076 -182.089405 
L 395.092378 -180.110951 
L 388.643996 -176.860633 
L 382.195613 -174.829184 
L 375.747231 -171.561201 
L 369.298849 -169.37077 
L 362.850467 -166.314765 
L 356.402085 -164.230322 
L 349.953703 -160.874015 
L 343.505321 -158.96622 
L 337.056939 -155.733567 
L 330.608556 -153.543135 
L 324.160174 -150.434136 
L 317.711792 -148.332028 
L 311.26341 -145.134704 
L 304.815028 -143.050261 
L 298.366646 -139.958926 
L 291.918264 -137.680171 
L 285.469882 -134.447518 
L 279.021499 -132.433734 
L 272.573117 -129.201081 
L 266.124735 -127.098973 
L 259.676353 -123.936979 
L 253.227971 -121.693553 
L 246.779589 -118.478565 
L 240.331207 -116.482446 
L 233.882825 -113.232128 
L 227.434442 -111.218344 
L 220.98606 -108.074015 
L 214.537678 -105.848254 
L 208.089296 -102.774584 
L 201.640914 -100.584152 
L 195.192532 -97.422158 
L 188.74415 -95.284721 
L 182.295768 -91.999074 
L 175.847385 -89.967625 
L 169.399003 -86.805631 
L 162.950621 -84.668194 
L 156.502239 -81.576859 
L 150.053857 -79.404092 
L 143.605475 -76.171439 
L 137.157093 -74.069331 
L 130.708711 -70.889673 
L 124.260328 -68.787565 
L 117.811946 -65.625571 
L 111.363564 -63.558793 
L 104.915182 -60.255481 
L 98.4668 -58.241697 
L 92.018418 -55.044373 
L 85.570036 -52.889271 
L 79.121654 -49.88626 
L 72.673271 -47.660499 
L 66.224889 -44.463175 
L 59.776507 -42.219749 
L 53.328125 -39.163744 
z
" style="stroke: #1f77b4"/>
    </defs>
    <g clip-path="url(#pda456b9420)">
     <use xlink:href="#m10dc945720" x="0" y="226.194375" style="fill: #1f77b4; stroke: #1f77b4"/>
    </g>
   </g>
   <g id="matplotlib.axis_1">
    <g id="xtick_1">
     <g id="line2d_1">
      <path d="M 53.328125 188.638125 
L 53.328125 22.318125 
" clip-path="url(#pda456b9420)" style="fill: none; stroke: #b0b0b0; stroke-width: 0.8; stroke-linecap: square"/>
     </g>
     <g id="line2d_2">
      <defs>
       <path id="md5aa9b59cf" d="M 0 0 
L 0 3.5 
" style="stroke: #000000; stroke-width: 0.8"/>
      </defs>
      <g>
       <use xlink:href="#md5aa9b59cf" x="53.328125" y="188.638125" style="stroke: #000000; stroke-width: 0.8"/>
      </g>
     </g>
     <g id="text_1">
      <!-- 0 -->
      <g transform="translate(50.146875 203.236563) scale(0.1 -0.1)">
       <defs>
        <path id="DejaVuSans-30" d="M 2034 4250 
Q 1547 4250 1301 3770 
Q 1056 3291 1056 2328 
Q 1056 1369 1301 889 
Q 1547 409 2034 409 
Q 2525 409 2770 889 
Q 3016 1369 3016 2328 
Q 3016 3291 2770 3770 
Q 2525 4250 2034 4250 
z
M 2034 4750 
Q 2819 4750 3233 4129 
Q 3647 3509 3647 2328 
Q 3647 1150 3233 529 
Q 2819 -91 2034 -91 
Q 1250 -91 836 529 
Q 422 1150 422 2328 
Q 422 3509 836 4129 
Q 1250 4750 2034 4750 
z
" transform="scale(0.015625)"/>
       </defs>
       <use xlink:href="#DejaVuSans-30"/>
      </g>
     </g>
    </g>
    <g id="xtick_2">
     <g id="line2d_3">
      <path d="M 96.317339 188.638125 
L 96.317339 22.318125 
" clip-path="url(#pda456b9420)" style="fill: none; stroke: #b0b0b0; stroke-width: 0.8; stroke-linecap: square"/>
     </g>
     <g id="line2d_4">
      <g>
       <use xlink:href="#md5aa9b59cf" x="96.317339" y="188.638125" style="stroke: #000000; stroke-width: 0.8"/>
      </g>
     </g>
     <g id="text_2">
      <!-- 100 -->
      <g transform="translate(86.773589 203.236563) scale(0.1 -0.1)">
       <defs>
        <path id="DejaVuSans-31" d="M 794 531 
L 1825 531 
L 1825 4091 
L 703 3866 
L 703 4441 
L 1819 4666 
L 2450 4666 
L 2450 531 
L 3481 531 
L 3481 0 
L 794 0 
L 794 531 
z
" transform="scale(0.015625)"/>
       </defs>
       <use xlink:href="#DejaVuSans-31"/>
       <use xlink:href="#DejaVuSans-30" x="63.623047"/>
       <use xlink:href="#DejaVuSans-30" x="127.246094"/>
      </g>
     </g>
    </g>
    <g id="xtick_3">
     <g id="line2d_5">
      <path d="M 139.306553 188.638125 
L 139.306553 22.318125 
" clip-path="url(#pda456b9420)" style="fill: none; stroke: #b0b0b0; stroke-width: 0.8; stroke-linecap: square"/>
     </g>
     <g id="line2d_6">
      <g>
       <use xlink:href="#md5aa9b59cf" x="139.306553" y="188.638125" style="stroke: #000000; stroke-width: 0.8"/>
      </g>
     </g>
     <g id="text_3">
      <!-- 200 -->
      <g transform="translate(129.762803 203.236563) scale(0.1 -0.1)">
       <defs>
        <path id="DejaVuSans-32" d="M 1228 531 
L 3431 531 
L 3431 0 
L 469 0 
L 469 531 
Q 828 903 1448 1529 
Q 2069 2156 2228 2338 
Q 2531 2678 2651 2914 
Q 2772 3150 2772 3378 
Q 2772 3750 2511 3984 
Q 2250 4219 1831 4219 
Q 1534 4219 1204 4116 
Q 875 4013 500 3803 
L 500 4441 
Q 881 4594 1212 4672 
Q 1544 4750 1819 4750 
Q 2544 4750 2975 4387 
Q 3406 4025 3406 3419 
Q 3406 3131 3298 2873 
Q 3191 2616 2906 2266 
Q 2828 2175 2409 1742 
Q 1991 1309 1228 531 
z
" transform="scale(0.015625)"/>
       </defs>
       <use xlink:href="#DejaVuSans-32"/>
       <use xlink:href="#DejaVuSans-30" x="63.623047"/>
       <use xlink:href="#DejaVuSans-30" x="127.246094"/>
      </g>
     </g>
    </g>
    <g id="xtick_4">
     <g id="line2d_7">
      <path d="M 182.295768 188.638125 
L 182.295768 22.318125 
" clip-path="url(#pda456b9420)" style="fill: none; stroke: #b0b0b0; stroke-width: 0.8; stroke-linecap: square"/>
     </g>
     <g id="line2d_8">
      <g>
       <use xlink:href="#md5aa9b59cf" x="182.295768" y="188.638125" style="stroke: #000000; stroke-width: 0.8"/>
      </g>
     </g>
     <g id="text_4">
      <!-- 300 -->
      <g transform="translate(172.752018 203.236563) scale(0.1 -0.1)">
       <defs>
        <path id="DejaVuSans-33" d="M 2597 2516 
Q 3050 2419 3304 2112 
Q 3559 1806 3559 1356 
Q 3559 666 3084 287 
Q 2609 -91 1734 -91 
Q 1441 -91 1130 -33 
Q 819 25 488 141 
L 488 750 
Q 750 597 1062 519 
Q 1375 441 1716 441 
Q 2309 441 2620 675 
Q 2931 909 2931 1356 
Q 2931 1769 2642 2001 
Q 2353 2234 1838 2234 
L 1294 2234 
L 1294 2753 
L 1863 2753 
Q 2328 2753 2575 2939 
Q 2822 3125 2822 3475 
Q 2822 3834 2567 4026 
Q 2313 4219 1838 4219 
Q 1578 4219 1281 4162 
Q 984 4106 628 3988 
L 628 4550 
Q 988 4650 1302 4700 
Q 1616 4750 1894 4750 
Q 2613 4750 3031 4423 
Q 3450 4097 3450 3541 
Q 3450 3153 3228 2886 
Q 3006 2619 2597 2516 
z
" transform="scale(0.015625)"/>
       </defs>
       <use xlink:href="#DejaVuSans-33"/>
       <use xlink:href="#DejaVuSans-30" x="63.623047"/>
       <use xlink:href="#DejaVuSans-30" x="127.246094"/>
      </g>
     </g>
    </g>
    <g id="xtick_5">
     <g id="line2d_9">
      <path d="M 225.284982 188.638125 
L 225.284982 22.318125 
" clip-path="url(#pda456b9420)" style="fill: none; stroke: #b0b0b0; stroke-width: 0.8; stroke-linecap: square"/>
     </g>
     <g id="line2d_10">
      <g>
       <use xlink:href="#md5aa9b59cf" x="225.284982" y="188.638125" style="stroke: #000000; stroke-width: 0.8"/>
      </g>
     </g>
     <g id="text_5">
      <!-- 400 -->
      <g transform="translate(215.741232 203.236563) scale(0.1 -0.1)">
       <defs>
        <path id="DejaVuSans-34" d="M 2419 4116 
L 825 1625 
L 2419 1625 
L 2419 4116 
z
M 2253 4666 
L 3047 4666 
L 3047 1625 
L 3713 1625 
L 3713 1100 
L 3047 1100 
L 3047 0 
L 2419 0 
L 2419 1100 
L 313 1100 
L 313 1709 
L 2253 4666 
z
" transform="scale(0.015625)"/>
       </defs>
       <use xlink:href="#DejaVuSans-34"/>
       <use xlink:href="#DejaVuSans-30" x="63.623047"/>
       <use xlink:href="#DejaVuSans-30" x="127.246094"/>
      </g>
     </g>
    </g>
    <g id="xtick_6">
     <g id="line2d_11">
      <path d="M 268.274196 188.638125 
L 268.274196 22.318125 
" clip-path="url(#pda456b9420)" style="fill: none; stroke: #b0b0b0; stroke-width: 0.8; stroke-linecap: square"/>
     </g>
     <g id="line2d_12">
      <g>
       <use xlink:href="#md5aa9b59cf" x="268.274196" y="188.638125" style="stroke: #000000; stroke-width: 0.8"/>
      </g>
     </g>
     <g id="text_6">
      <!-- 500 -->
      <g transform="translate(258.730446 203.236563) scale(0.1 -0.1)">
       <defs>
        <path id="DejaVuSans-35" d="M 691 4666 
L 3169 4666 
L 3169 4134 
L 1269 4134 
L 1269 2991 
Q 1406 3038 1543 3061 
Q 1681 3084 1819 3084 
Q 2600 3084 3056 2656 
Q 3513 2228 3513 1497 
Q 3513 744 3044 326 
Q 2575 -91 1722 -91 
Q 1428 -91 1123 -41 
Q 819 9 494 109 
L 494 744 
Q 775 591 1075 516 
Q 1375 441 1709 441 
Q 2250 441 2565 725 
Q 2881 1009 2881 1497 
Q 2881 1984 2565 2268 
Q 2250 2553 1709 2553 
Q 1456 2553 1204 2497 
Q 953 2441 691 2322 
L 691 4666 
z
" transform="scale(0.015625)"/>
       </defs>
       <use xlink:href="#DejaVuSans-35"/>
       <use xlink:href="#DejaVuSans-30" x="63.623047"/>
       <use xlink:href="#DejaVuSans-30" x="127.246094"/>
      </g>
     </g>
    </g>
    <g id="xtick_7">
     <g id="line2d_13">
      <path d="M 311.26341 188.638125 
L 311.26341 22.318125 
" clip-path="url(#pda456b9420)" style="fill: none; stroke: #b0b0b0; stroke-width: 0.8; stroke-linecap: square"/>
     </g>
     <g id="line2d_14">
      <g>
       <use xlink:href="#md5aa9b59cf" x="311.26341" y="188.638125" style="stroke: #000000; stroke-width: 0.8"/>
      </g>
     </g>
     <g id="text_7">
      <!-- 600 -->
      <g transform="translate(301.71966 203.236563) scale(0.1 -0.1)">
       <defs>
        <path id="DejaVuSans-36" d="M 2113 2584 
Q 1688 2584 1439 2293 
Q 1191 2003 1191 1497 
Q 1191 994 1439 701 
Q 1688 409 2113 409 
Q 2538 409 2786 701 
Q 3034 994 3034 1497 
Q 3034 2003 2786 2293 
Q 2538 2584 2113 2584 
z
M 3366 4563 
L 3366 3988 
Q 3128 4100 2886 4159 
Q 2644 4219 2406 4219 
Q 1781 4219 1451 3797 
Q 1122 3375 1075 2522 
Q 1259 2794 1537 2939 
Q 1816 3084 2150 3084 
Q 2853 3084 3261 2657 
Q 3669 2231 3669 1497 
Q 3669 778 3244 343 
Q 2819 -91 2113 -91 
Q 1303 -91 875 529 
Q 447 1150 447 2328 
Q 447 3434 972 4092 
Q 1497 4750 2381 4750 
Q 2619 4750 2861 4703 
Q 3103 4656 3366 4563 
z
" transform="scale(0.015625)"/>
       </defs>
       <use xlink:href="#DejaVuSans-36"/>
       <use xlink:href="#DejaVuSans-30" x="63.623047"/>
       <use xlink:href="#DejaVuSans-30" x="127.246094"/>
      </g>
     </g>
    </g>
    <g id="xtick_8">
     <g id="line2d_15">
      <path d="M 354.252624 188.638125 
L 354.252624 22.318125 
" clip-path="url(#pda456b9420)" style="fill: none; stroke: #b0b0b0; stroke-width: 0.8; stroke-linecap: square"/>
     </g>
     <g id="line2d_16">
      <g>
       <use xlink:href="#md5aa9b59cf" x="354.252624" y="188.638125" style="stroke: #000000; stroke-width: 0.8"/>
      </g>
     </g>
     <g id="text_8">
      <!-- 700 -->
      <g transform="translate(344.708874 203.236563) scale(0.1 -0.1)">
       <defs>
        <path id="DejaVuSans-37" d="M 525 4666 
L 3525 4666 
L 3525 4397 
L 1831 0 
L 1172 0 
L 2766 4134 
L 525 4134 
L 525 4666 
z
" transform="scale(0.015625)"/>
       </defs>
       <use xlink:href="#DejaVuSans-37"/>
       <use xlink:href="#DejaVuSans-30" x="63.623047"/>
       <use xlink:href="#DejaVuSans-30" x="127.246094"/>
      </g>
     </g>
    </g>
    <g id="xtick_9">
     <g id="line2d_17">
      <path d="M 397.241838 188.638125 
L 397.241838 22.318125 
" clip-path="url(#pda456b9420)" style="fill: none; stroke: #b0b0b0; stroke-width: 0.8; stroke-linecap: square"/>
     </g>
     <g id="line2d_18">
      <g>
       <use xlink:href="#md5aa9b59cf" x="397.241838" y="188.638125" style="stroke: #000000; stroke-width: 0.8"/>
      </g>
     </g>
     <g id="text_9">
      <!-- 800 -->
      <g transform="translate(387.698088 203.236563) scale(0.1 -0.1)">
       <defs>
        <path id="DejaVuSans-38" d="M 2034 2216 
Q 1584 2216 1326 1975 
Q 1069 1734 1069 1313 
Q 1069 891 1326 650 
Q 1584 409 2034 409 
Q 2484 409 2743 651 
Q 3003 894 3003 1313 
Q 3003 1734 2745 1975 
Q 2488 2216 2034 2216 
z
M 1403 2484 
Q 997 2584 770 2862 
Q 544 3141 544 3541 
Q 544 4100 942 4425 
Q 1341 4750 2034 4750 
Q 2731 4750 3128 4425 
Q 3525 4100 3525 3541 
Q 3525 3141 3298 2862 
Q 3072 2584 2669 2484 
Q 3125 2378 3379 2068 
Q 3634 1759 3634 1313 
Q 3634 634 3220 271 
Q 2806 -91 2034 -91 
Q 1263 -91 848 271 
Q 434 634 434 1313 
Q 434 1759 690 2068 
Q 947 2378 1403 2484 
z
M 1172 3481 
Q 1172 3119 1398 2916 
Q 1625 2713 2034 2713 
Q 2441 2713 2670 2916 
Q 2900 3119 2900 3481 
Q 2900 3844 2670 4047 
Q 2441 4250 2034 4250 
Q 1625 4250 1398 4047 
Q 1172 3844 1172 3481 
z
" transform="scale(0.015625)"/>
       </defs>
       <use xlink:href="#DejaVuSans-38"/>
       <use xlink:href="#DejaVuSans-30" x="63.623047"/>
       <use xlink:href="#DejaVuSans-30" x="127.246094"/>
      </g>
     </g>
    </g>
    <g id="text_10">
     <!-- Time in seconds -->
     <g transform="translate(203.148366 216.914688) scale(0.1 -0.1)">
      <defs>
       <path id="DejaVuSans-54" d="M -19 4666 
L 3928 4666 
L 3928 4134 
L 2272 4134 
L 2272 0 
L 1638 0 
L 1638 4134 
L -19 4134 
L -19 4666 
z
" transform="scale(0.015625)"/>
       <path id="DejaVuSans-69" d="M 603 3500 
L 1178 3500 
L 1178 0 
L 603 0 
L 603 3500 
z
M 603 4863 
L 1178 4863 
L 1178 4134 
L 603 4134 
L 603 4863 
z
" transform="scale(0.015625)"/>
       <path id="DejaVuSans-6d" d="M 3328 2828 
Q 3544 3216 3844 3400 
Q 4144 3584 4550 3584 
Q 5097 3584 5394 3201 
Q 5691 2819 5691 2113 
L 5691 0 
L 5113 0 
L 5113 2094 
Q 5113 2597 4934 2840 
Q 4756 3084 4391 3084 
Q 3944 3084 3684 2787 
Q 3425 2491 3425 1978 
L 3425 0 
L 2847 0 
L 2847 2094 
Q 2847 2600 2669 2842 
Q 2491 3084 2119 3084 
Q 1678 3084 1418 2786 
Q 1159 2488 1159 1978 
L 1159 0 
L 581 0 
L 581 3500 
L 1159 3500 
L 1159 2956 
Q 1356 3278 1631 3431 
Q 1906 3584 2284 3584 
Q 2666 3584 2933 3390 
Q 3200 3197 3328 2828 
z
" transform="scale(0.015625)"/>
       <path id="DejaVuSans-65" d="M 3597 1894 
L 3597 1613 
L 953 1613 
Q 991 1019 1311 708 
Q 1631 397 2203 397 
Q 2534 397 2845 478 
Q 3156 559 3463 722 
L 3463 178 
Q 3153 47 2828 -22 
Q 2503 -91 2169 -91 
Q 1331 -91 842 396 
Q 353 884 353 1716 
Q 353 2575 817 3079 
Q 1281 3584 2069 3584 
Q 2775 3584 3186 3129 
Q 3597 2675 3597 1894 
z
M 3022 2063 
Q 3016 2534 2758 2815 
Q 2500 3097 2075 3097 
Q 1594 3097 1305 2825 
Q 1016 2553 972 2059 
L 3022 2063 
z
" transform="scale(0.015625)"/>
       <path id="DejaVuSans-20" transform="scale(0.015625)"/>
       <path id="DejaVuSans-6e" d="M 3513 2113 
L 3513 0 
L 2938 0 
L 2938 2094 
Q 2938 2591 2744 2837 
Q 2550 3084 2163 3084 
Q 1697 3084 1428 2787 
Q 1159 2491 1159 1978 
L 1159 0 
L 581 0 
L 581 3500 
L 1159 3500 
L 1159 2956 
Q 1366 3272 1645 3428 
Q 1925 3584 2291 3584 
Q 2894 3584 3203 3211 
Q 3513 2838 3513 2113 
z
" transform="scale(0.015625)"/>
       <path id="DejaVuSans-73" d="M 2834 3397 
L 2834 2853 
Q 2591 2978 2328 3040 
Q 2066 3103 1784 3103 
Q 1356 3103 1142 2972 
Q 928 2841 928 2578 
Q 928 2378 1081 2264 
Q 1234 2150 1697 2047 
L 1894 2003 
Q 2506 1872 2764 1633 
Q 3022 1394 3022 966 
Q 3022 478 2636 193 
Q 2250 -91 1575 -91 
Q 1294 -91 989 -36 
Q 684 19 347 128 
L 347 722 
Q 666 556 975 473 
Q 1284 391 1588 391 
Q 1994 391 2212 530 
Q 2431 669 2431 922 
Q 2431 1156 2273 1281 
Q 2116 1406 1581 1522 
L 1381 1569 
Q 847 1681 609 1914 
Q 372 2147 372 2553 
Q 372 3047 722 3315 
Q 1072 3584 1716 3584 
Q 2034 3584 2315 3537 
Q 2597 3491 2834 3397 
z
" transform="scale(0.015625)"/>
       <path id="DejaVuSans-63" d="M 3122 3366 
L 3122 2828 
Q 2878 2963 2633 3030 
Q 2388 3097 2138 3097 
Q 1578 3097 1268 2742 
Q 959 2388 959 1747 
Q 959 1106 1268 751 
Q 1578 397 2138 397 
Q 2388 397 2633 464 
Q 2878 531 3122 666 
L 3122 134 
Q 2881 22 2623 -34 
Q 2366 -91 2075 -91 
Q 1284 -91 818 406 
Q 353 903 353 1747 
Q 353 2603 823 3093 
Q 1294 3584 2113 3584 
Q 2378 3584 2631 3529 
Q 2884 3475 3122 3366 
z
" transform="scale(0.015625)"/>
       <path id="DejaVuSans-6f" d="M 1959 3097 
Q 1497 3097 1228 2736 
Q 959 2375 959 1747 
Q 959 1119 1226 758 
Q 1494 397 1959 397 
Q 2419 397 2687 759 
Q 2956 1122 2956 1747 
Q 2956 2369 2687 2733 
Q 2419 3097 1959 3097 
z
M 1959 3584 
Q 2709 3584 3137 3096 
Q 3566 2609 3566 1747 
Q 3566 888 3137 398 
Q 2709 -91 1959 -91 
Q 1206 -91 779 398 
Q 353 888 353 1747 
Q 353 2609 779 3096 
Q 1206 3584 1959 3584 
z
" transform="scale(0.015625)"/>
       <path id="DejaVuSans-64" d="M 2906 2969 
L 2906 4863 
L 3481 4863 
L 3481 0 
L 2906 0 
L 2906 525 
Q 2725 213 2448 61 
Q 2172 -91 1784 -91 
Q 1150 -91 751 415 
Q 353 922 353 1747 
Q 353 2572 751 3078 
Q 1150 3584 1784 3584 
Q 2172 3584 2448 3432 
Q 2725 3281 2906 2969 
z
M 947 1747 
Q 947 1113 1208 752 
Q 1469 391 1925 391 
Q 2381 391 2643 752 
Q 2906 1113 2906 1747 
Q 2906 2381 2643 2742 
Q 2381 3103 1925 3103 
Q 1469 3103 1208 2742 
Q 947 2381 947 1747 
z
" transform="scale(0.015625)"/>
      </defs>
      <use xlink:href="#DejaVuSans-54"/>
      <use xlink:href="#DejaVuSans-69" x="57.958984"/>
      <use xlink:href="#DejaVuSans-6d" x="85.742188"/>
      <use xlink:href="#DejaVuSans-65" x="183.154297"/>
      <use xlink:href="#DejaVuSans-20" x="244.677734"/>
      <use xlink:href="#DejaVuSans-69" x="276.464844"/>
      <use xlink:href="#DejaVuSans-6e" x="304.248047"/>
      <use xlink:href="#DejaVuSans-20" x="367.626953"/>
      <use xlink:href="#DejaVuSans-73" x="399.414062"/>
      <use xlink:href="#DejaVuSans-65" x="451.513672"/>
      <use xlink:href="#DejaVuSans-63" x="513.037109"/>
      <use xlink:href="#DejaVuSans-6f" x="568.017578"/>
      <use xlink:href="#DejaVuSans-6e" x="629.199219"/>
      <use xlink:href="#DejaVuSans-64" x="692.578125"/>
      <use xlink:href="#DejaVuSans-73" x="756.054688"/>
     </g>
    </g>
   </g>
   <g id="matplotlib.axis_2">
    <g id="ytick_1">
     <g id="line2d_19">
      <path d="M 53.328125 188.638125 
L 433.78267 188.638125 
" clip-path="url(#pda456b9420)" style="fill: none; stroke: #b0b0b0; stroke-width: 0.8; stroke-linecap: square"/>
     </g>
     <g id="line2d_20">
      <defs>
       <path id="mb933ee4bc7" d="M 0 0 
L -3.5 0 
" style="stroke: #000000; stroke-width: 0.8"/>
      </defs>
      <g>
       <use xlink:href="#mb933ee4bc7" x="53.328125" y="188.638125" style="stroke: #000000; stroke-width: 0.8"/>
      </g>
     </g>
     <g id="text_11">
      <!-- 0 -->
      <g transform="translate(39.965625 192.437344) scale(0.1 -0.1)">
       <use xlink:href="#DejaVuSans-30"/>
      </g>
     </g>
    </g>
    <g id="ytick_2">
     <g id="line2d_21">
      <path d="M 53.328125 153.308583 
L 433.78267 153.308583 
" clip-path="url(#pda456b9420)" style="fill: none; stroke: #b0b0b0; stroke-width: 0.8; stroke-linecap: square"/>
     </g>
     <g id="line2d_22">
      <g>
       <use xlink:href="#mb933ee4bc7" x="53.328125" y="153.308583" style="stroke: #000000; stroke-width: 0.8"/>
      </g>
     </g>
     <g id="text_12">
      <!-- 2000 -->
      <g transform="translate(20.878125 157.107802) scale(0.1 -0.1)">
       <use xlink:href="#DejaVuSans-32"/>
       <use xlink:href="#DejaVuSans-30" x="63.623047"/>
       <use xlink:href="#DejaVuSans-30" x="127.246094"/>
       <use xlink:href="#DejaVuSans-30" x="190.869141"/>
      </g>
     </g>
    </g>
    <g id="ytick_3">
     <g id="line2d_23">
      <path d="M 53.328125 117.979042 
L 433.78267 117.979042 
" clip-path="url(#pda456b9420)" style="fill: none; stroke: #b0b0b0; stroke-width: 0.8; stroke-linecap: square"/>
     </g>
     <g id="line2d_24">
      <g>
       <use xlink:href="#mb933ee4bc7" x="53.328125" y="117.979042" style="stroke: #000000; stroke-width: 0.8"/>
      </g>
     </g>
     <g id="text_13">
      <!-- 4000 -->
      <g transform="translate(20.878125 121.77826) scale(0.1 -0.1)">
       <use xlink:href="#DejaVuSans-34"/>
       <use xlink:href="#DejaVuSans-30" x="63.623047"/>
       <use xlink:href="#DejaVuSans-30" x="127.246094"/>
       <use xlink:href="#DejaVuSans-30" x="190.869141"/>
      </g>
     </g>
    </g>
    <g id="ytick_4">
     <g id="line2d_25">
      <path d="M 53.328125 82.6495 
L 433.78267 82.6495 
" clip-path="url(#pda456b9420)" style="fill: none; stroke: #b0b0b0; stroke-width: 0.8; stroke-linecap: square"/>
     </g>
     <g id="line2d_26">
      <g>
       <use xlink:href="#mb933ee4bc7" x="53.328125" y="82.6495" style="stroke: #000000; stroke-width: 0.8"/>
      </g>
     </g>
     <g id="text_14">
      <!-- 6000 -->
      <g transform="translate(20.878125 86.448719) scale(0.1 -0.1)">
       <use xlink:href="#DejaVuSans-36"/>
       <use xlink:href="#DejaVuSans-30" x="63.623047"/>
       <use xlink:href="#DejaVuSans-30" x="127.246094"/>
       <use xlink:href="#DejaVuSans-30" x="190.869141"/>
      </g>
     </g>
    </g>
    <g id="ytick_5">
     <g id="line2d_27">
      <path d="M 53.328125 47.319958 
L 433.78267 47.319958 
" clip-path="url(#pda456b9420)" style="fill: none; stroke: #b0b0b0; stroke-width: 0.8; stroke-linecap: square"/>
     </g>
     <g id="line2d_28">
      <g>
       <use xlink:href="#mb933ee4bc7" x="53.328125" y="47.319958" style="stroke: #000000; stroke-width: 0.8"/>
      </g>
     </g>
     <g id="text_15">
      <!-- 8000 -->
      <g transform="translate(20.878125 51.119177) scale(0.1 -0.1)">
       <use xlink:href="#DejaVuSans-38"/>
       <use xlink:href="#DejaVuSans-30" x="63.623047"/>
       <use xlink:href="#DejaVuSans-30" x="127.246094"/>
       <use xlink:href="#DejaVuSans-30" x="190.869141"/>
      </g>
     </g>
    </g>
    <g id="text_16">
     <!-- count -->
     <g transform="translate(14.798438 119.584375) rotate(-90) scale(0.1 -0.1)">
      <defs>
       <path id="DejaVuSans-75" d="M 544 1381 
L 544 3500 
L 1119 3500 
L 1119 1403 
Q 1119 906 1312 657 
Q 1506 409 1894 409 
Q 2359 409 2629 706 
Q 2900 1003 2900 1516 
L 2900 3500 
L 3475 3500 
L 3475 0 
L 2900 0 
L 2900 538 
Q 2691 219 2414 64 
Q 2138 -91 1772 -91 
Q 1169 -91 856 284 
Q 544 659 544 1381 
z
M 1991 3584 
L 1991 3584 
z
" transform="scale(0.015625)"/>
       <path id="DejaVuSans-74" d="M 1172 4494 
L 1172 3500 
L 2356 3500 
L 2356 3053 
L 1172 3053 
L 1172 1153 
Q 1172 725 1289 603 
Q 1406 481 1766 481 
L 2356 481 
L 2356 0 
L 1766 0 
Q 1100 0 847 248 
Q 594 497 594 1153 
L 594 3053 
L 172 3053 
L 172 3500 
L 594 3500 
L 594 4494 
L 1172 4494 
z
" transform="scale(0.015625)"/>
      </defs>
      <use xlink:href="#DejaVuSans-63"/>
      <use xlink:href="#DejaVuSans-6f" x="54.980469"/>
      <use xlink:href="#DejaVuSans-75" x="116.162109"/>
      <use xlink:href="#DejaVuSans-6e" x="179.541016"/>
      <use xlink:href="#DejaVuSans-74" x="242.919922"/>
     </g>
    </g>
   </g>
   <g id="line2d_29">
    <path d="M 53.328125 187.030631 
L 59.776507 183.974626 
L 66.224889 181.7312 
L 72.673271 178.533876 
L 79.121654 176.308115 
L 85.570036 173.305104 
L 92.018418 171.150002 
L 98.4668 167.952678 
L 104.915182 165.938894 
L 111.363564 162.635582 
L 117.811946 160.568804 
L 124.260328 157.40681 
L 130.708711 155.304702 
L 137.157093 152.125044 
L 143.605475 150.022936 
L 150.053857 146.790283 
L 156.502239 144.617516 
L 162.950621 141.526181 
L 169.399003 139.388744 
L 175.847385 136.22675 
L 182.295768 134.195301 
L 188.74415 130.909654 
L 195.192532 128.772217 
L 201.640914 125.610223 
L 208.089296 123.419791 
L 214.537678 120.346121 
L 220.98606 118.12036 
L 227.434442 114.976031 
L 233.882825 112.962247 
L 240.331207 109.711929 
L 246.779589 107.71581 
L 253.227971 104.500822 
L 259.676353 102.257396 
L 266.124735 99.095402 
L 272.573117 96.993294 
L 279.021499 93.760641 
L 285.469882 91.746857 
L 291.918264 88.514204 
L 298.366646 86.235449 
L 304.815028 83.144114 
L 311.26341 81.059671 
L 317.711792 77.862347 
L 324.160174 75.760239 
L 330.608556 72.65124 
L 337.056939 70.460808 
L 343.505321 67.228155 
L 349.953703 65.32036 
L 356.402085 61.964053 
L 362.850467 59.87961 
L 369.298849 56.823605 
L 375.747231 54.633174 
L 382.195613 51.365191 
L 388.643996 49.333742 
L 395.092378 46.083424 
L 401.54076 44.10497 
L 407.989142 40.766328 
L 414.437524 38.752545 
L 420.885906 35.572886 
L 427.334288 33.32946 
L 433.78267 30.238125 
" clip-path="url(#pda456b9420)" style="fill: none; stroke: #1f77b4; stroke-width: 1.5; stroke-linecap: square"/>
   </g>
   <g id="patch_3">
    <path d="M 53.328125 188.638125 
L 53.328125 22.318125 
" style="fill: none; stroke: #000000; stroke-width: 0.8; stroke-linejoin: miter; stroke-linecap: square"/>
   </g>
   <g id="patch_4">
    <path d="M 433.78267 188.638125 
L 433.78267 22.318125 
" style="fill: none; stroke: #000000; stroke-width: 0.8; stroke-linejoin: miter; stroke-linecap: square"/>
   </g>
   <g id="patch_5">
    <path d="M 53.328125 188.638125 
L 433.78267 188.638125 
" style="fill: none; stroke: #000000; stroke-width: 0.8; stroke-linejoin: miter; stroke-linecap: square"/>
   </g>
   <g id="patch_6">
    <path d="M 53.328125 22.318125 
L 433.78267 22.318125 
" style="fill: none; stroke: #000000; stroke-width: 0.8; stroke-linejoin: miter; stroke-linecap: square"/>
   </g>
   <g id="text_17">
    <!-- Website Count -->
    <g transform="translate(199.912898 16.318125) scale(0.12 -0.12)">
     <defs>
      <path id="DejaVuSans-57" d="M 213 4666 
L 850 4666 
L 1831 722 
L 2809 4666 
L 3519 4666 
L 4500 722 
L 5478 4666 
L 6119 4666 
L 4947 0 
L 4153 0 
L 3169 4050 
L 2175 0 
L 1381 0 
L 213 4666 
z
" transform="scale(0.015625)"/>
      <path id="DejaVuSans-62" d="M 3116 1747 
Q 3116 2381 2855 2742 
Q 2594 3103 2138 3103 
Q 1681 3103 1420 2742 
Q 1159 2381 1159 1747 
Q 1159 1113 1420 752 
Q 1681 391 2138 391 
Q 2594 391 2855 752 
Q 3116 1113 3116 1747 
z
M 1159 2969 
Q 1341 3281 1617 3432 
Q 1894 3584 2278 3584 
Q 2916 3584 3314 3078 
Q 3713 2572 3713 1747 
Q 3713 922 3314 415 
Q 2916 -91 2278 -91 
Q 1894 -91 1617 61 
Q 1341 213 1159 525 
L 1159 0 
L 581 0 
L 581 4863 
L 1159 4863 
L 1159 2969 
z
" transform="scale(0.015625)"/>
      <path id="DejaVuSans-43" d="M 4122 4306 
L 4122 3641 
Q 3803 3938 3442 4084 
Q 3081 4231 2675 4231 
Q 1875 4231 1450 3742 
Q 1025 3253 1025 2328 
Q 1025 1406 1450 917 
Q 1875 428 2675 428 
Q 3081 428 3442 575 
Q 3803 722 4122 1019 
L 4122 359 
Q 3791 134 3420 21 
Q 3050 -91 2638 -91 
Q 1578 -91 968 557 
Q 359 1206 359 2328 
Q 359 3453 968 4101 
Q 1578 4750 2638 4750 
Q 3056 4750 3426 4639 
Q 3797 4528 4122 4306 
z
" transform="scale(0.015625)"/>
     </defs>
     <use xlink:href="#DejaVuSans-57"/>
     <use xlink:href="#DejaVuSans-65" x="93.001953"/>
     <use xlink:href="#DejaVuSans-62" x="154.525391"/>
     <use xlink:href="#DejaVuSans-73" x="218.001953"/>
     <use xlink:href="#DejaVuSans-69" x="270.101562"/>
     <use xlink:href="#DejaVuSans-74" x="297.884766"/>
     <use xlink:href="#DejaVuSans-65" x="337.09375"/>
     <use xlink:href="#DejaVuSans-20" x="398.617188"/>
     <use xlink:href="#DejaVuSans-43" x="430.404297"/>
     <use xlink:href="#DejaVuSans-6f" x="500.228516"/>
     <use xlink:href="#DejaVuSans-75" x="561.410156"/>
     <use xlink:href="#DejaVuSans-6e" x="624.789062"/>
     <use xlink:href="#DejaVuSans-74" x="688.167969"/>
    </g>
   </g>
  </g>
  <g id="axes_2">
   <g id="patch_7">
    <path d="M 509.87358 188.638125 
L 890.328125 188.638125 
L 890.328125 22.318125 
L 509.87358 22.318125 
z
" style="fill: #ffffff"/>
   </g>
   <g id="PolyCollection_2">
    <defs>
     <path id="macb233c9ab" d="M 509.87358 -38.930449 
L 509.87358 -37.55625 
L 516.321962 -37.55625 
L 522.770344 -37.55625 
L 529.218726 -37.55625 
L 535.667108 -37.55625 
L 542.11549 -37.55625 
L 548.563872 -37.55625 
L 555.012254 -37.55625 
L 561.460637 -37.55625 
L 567.909019 -37.55625 
L 574.357401 -37.55625 
L 580.805783 -37.55625 
L 587.254165 -37.55625 
L 593.702547 -37.55625 
L 600.150929 -37.55625 
L 606.599311 -37.55625 
L 613.047694 -37.55625 
L 619.496076 -37.55625 
L 625.944458 -37.55625 
L 632.39284 -37.55625 
L 638.841222 -37.55625 
L 645.289604 -37.55625 
L 651.737986 -37.55625 
L 658.186368 -37.55625 
L 664.634751 -37.55625 
L 671.083133 -37.55625 
L 677.531515 -37.55625 
L 683.979897 -37.55625 
L 690.428279 -37.55625 
L 696.876661 -37.55625 
L 703.325043 -37.55625 
L 709.773425 -37.55625 
L 716.221808 -37.55625 
L 722.67019 -37.55625 
L 729.118572 -37.55625 
L 735.566954 -37.55625 
L 742.015336 -37.55625 
L 748.463718 -37.55625 
L 754.9121 -37.55625 
L 761.360482 -37.55625 
L 767.808865 -37.55625 
L 774.257247 -37.55625 
L 780.705629 -37.55625 
L 787.154011 -37.55625 
L 793.602393 -37.55625 
L 800.050775 -37.55625 
L 806.499157 -37.55625 
L 812.947539 -37.55625 
L 819.395922 -37.55625 
L 825.844304 -37.55625 
L 832.292686 -37.55625 
L 838.741068 -37.55625 
L 845.18945 -37.55625 
L 851.637832 -37.55625 
L 858.086214 -37.55625 
L 864.534596 -37.55625 
L 870.982979 -37.55625 
L 877.431361 -37.55625 
L 883.879743 -37.55625 
L 890.328125 -37.55625 
L 890.328125 -42.922467 
L 890.328125 -42.922467 
L 883.879743 -42.9332 
L 877.431361 -42.911735 
L 870.982979 -42.922467 
L 864.534596 -42.911735 
L 858.086214 -42.9332 
L 851.637832 -42.9332 
L 845.18945 -42.9332 
L 838.741068 -42.922467 
L 832.292686 -42.9332 
L 825.844304 -42.911735 
L 819.395922 -42.911735 
L 812.947539 -42.911735 
L 806.499157 -42.922467 
L 800.050775 -42.922467 
L 793.602393 -42.9332 
L 787.154011 -42.9332 
L 780.705629 -42.9332 
L 774.257247 -42.911735 
L 767.808865 -42.922467 
L 761.360482 -42.922467 
L 754.9121 -42.922467 
L 748.463718 -42.922467 
L 742.015336 -42.9332 
L 735.566954 -42.922467 
L 729.118572 -42.911735 
L 722.67019 -42.911735 
L 716.221808 -42.911735 
L 709.773425 -42.9332 
L 703.325043 -42.922467 
L 696.876661 -42.922467 
L 690.428279 -42.911735 
L 683.979897 -42.9332 
L 677.531515 -42.922467 
L 671.083133 -42.9332 
L 664.634751 -42.9332 
L 658.186368 -42.922467 
L 651.737986 -42.922467 
L 645.289604 -42.911735 
L 638.841222 -42.922467 
L 632.39284 -42.922467 
L 625.944458 -42.922467 
L 619.496076 -42.9332 
L 613.047694 -42.922467 
L 606.599311 -42.911735 
L 600.150929 -42.9332 
L 593.702547 -42.922467 
L 587.254165 -42.911735 
L 580.805783 -42.922467 
L 574.357401 -42.922467 
L 567.909019 -42.9332 
L 561.460637 -42.911735 
L 555.012254 -42.9332 
L 548.563872 -42.922467 
L 542.11549 -42.9332 
L 535.667108 -42.911735 
L 529.218726 -42.911735 
L 522.770344 -41.613557 
L 516.321962 -40.272003 
L 509.87358 -38.930449 
z
" style="stroke: #1f77b4"/>
    </defs>
    <g clip-path="url(#pd4d2a00d86)">
     <use xlink:href="#macb233c9ab" x="0" y="226.194375" style="fill: #1f77b4; stroke: #1f77b4"/>
    </g>
   </g>
   <g id="PolyCollection_3">
    <defs>
     <path id="md0446516dd" d="M 509.87358 -38.930449 
L 509.87358 -38.930449 
L 516.321962 -40.272003 
L 522.770344 -41.613557 
L 529.218726 -42.911735 
L 535.667108 -42.911735 
L 542.11549 -42.9332 
L 548.563872 -42.922467 
L 555.012254 -42.9332 
L 561.460637 -42.911735 
L 567.909019 -42.9332 
L 574.357401 -42.922467 
L 580.805783 -42.922467 
L 587.254165 -42.911735 
L 593.702547 -42.922467 
L 600.150929 -42.9332 
L 606.599311 -42.911735 
L 613.047694 -42.922467 
L 619.496076 -42.9332 
L 625.944458 -42.922467 
L 632.39284 -42.922467 
L 638.841222 -42.922467 
L 645.289604 -42.911735 
L 651.737986 -42.922467 
L 658.186368 -42.922467 
L 664.634751 -42.9332 
L 671.083133 -42.9332 
L 677.531515 -42.922467 
L 683.979897 -42.9332 
L 690.428279 -42.911735 
L 696.876661 -42.922467 
L 703.325043 -42.922467 
L 709.773425 -42.9332 
L 716.221808 -42.911735 
L 722.67019 -42.911735 
L 729.118572 -42.911735 
L 735.566954 -42.922467 
L 742.015336 -42.9332 
L 748.463718 -42.922467 
L 754.9121 -42.922467 
L 761.360482 -42.922467 
L 767.808865 -42.922467 
L 774.257247 -42.911735 
L 780.705629 -42.9332 
L 787.154011 -42.9332 
L 793.602393 -42.9332 
L 800.050775 -42.922467 
L 806.499157 -42.922467 
L 812.947539 -42.911735 
L 819.395922 -42.911735 
L 825.844304 -42.911735 
L 832.292686 -42.9332 
L 838.741068 -42.922467 
L 845.18945 -42.9332 
L 851.637832 -42.9332 
L 858.086214 -42.9332 
L 864.534596 -42.911735 
L 870.982979 -42.922467 
L 877.431361 -42.911735 
L 883.879743 -42.9332 
L 890.328125 -42.922467 
L 890.328125 -195.95625 
L 890.328125 -195.95625 
L 883.879743 -194.163933 
L 877.431361 -190.590033 
L 870.982979 -188.776251 
L 864.534596 -185.298943 
L 858.086214 -183.399302 
L 851.637832 -179.975655 
L 845.18945 -178.033084 
L 838.741068 -174.545043 
L 832.292686 -172.656135 
L 825.844304 -169.060769 
L 819.395922 -167.25772 
L 812.947539 -163.673087 
L 806.499157 -162.095419 
L 800.050775 -158.328335 
L 793.602393 -156.750667 
L 787.154011 -152.876258 
L 780.705629 -151.34152 
L 774.257247 -147.488576 
L 767.808865 -145.986035 
L 761.360482 -142.154556 
L 754.9121 -140.63055 
L 748.463718 -136.734677 
L 742.015336 -135.232136 
L 735.566954 -131.379192 
L 729.118572 -129.844454 
L 722.67019 -126.045172 
L 716.221808 -124.499701 
L 709.773425 -120.732617 
L 703.325043 -119.165682 
L 696.876661 -115.344935 
L 690.428279 -113.745802 
L 683.979897 -109.978718 
L 677.531515 -108.390317 
L 671.083133 -104.65543 
L 664.634751 -103.0241 
L 658.186368 -99.267748 
L 651.737986 -97.657883 
L 645.289604 -93.901531 
L 638.841222 -92.291666 
L 632.39284 -88.546046 
L 625.944458 -86.914716 
L 619.496076 -83.158364 
L 613.047694 -81.559231 
L 606.599311 -77.792147 
L 600.150929 -76.193014 
L 593.702547 -72.447394 
L 587.254165 -70.805332 
L 580.805783 -67.09191 
L 574.357401 -65.439115 
L 567.909019 -61.736425 
L 561.460637 -60.072897 
L 555.012254 -56.370208 
L 548.563872 -54.717413 
L 542.11549 -50.80437 
L 535.667108 -48.315384 
L 529.218726 -45.392987 
L 522.770344 -42.973002 
L 516.321962 -40.272003 
L 509.87358 -38.930449 
z
" style="stroke: #ff7f0e"/>
    </defs>
    <g clip-path="url(#pd4d2a00d86)">
     <use xlink:href="#md0446516dd" x="0" y="226.194375" style="fill: #ff7f0e; stroke: #ff7f0e"/>
    </g>
   </g>
   <g id="matplotlib.axis_3">
    <g id="xtick_10">
     <g id="line2d_30">
      <path d="M 509.87358 188.638125 
L 509.87358 22.318125 
" clip-path="url(#pd4d2a00d86)" style="fill: none; stroke: #b0b0b0; stroke-width: 0.8; stroke-linecap: square"/>
     </g>
     <g id="line2d_31">
      <g>
       <use xlink:href="#md5aa9b59cf" x="509.87358" y="188.638125" style="stroke: #000000; stroke-width: 0.8"/>
      </g>
     </g>
     <g id="text_18">
      <!-- 0 -->
      <g transform="translate(506.69233 203.236563) scale(0.1 -0.1)">
       <use xlink:href="#DejaVuSans-30"/>
      </g>
     </g>
    </g>
    <g id="xtick_11">
     <g id="line2d_32">
      <path d="M 552.862794 188.638125 
L 552.862794 22.318125 
" clip-path="url(#pd4d2a00d86)" style="fill: none; stroke: #b0b0b0; stroke-width: 0.8; stroke-linecap: square"/>
     </g>
     <g id="line2d_33">
      <g>
       <use xlink:href="#md5aa9b59cf" x="552.862794" y="188.638125" style="stroke: #000000; stroke-width: 0.8"/>
      </g>
     </g>
     <g id="text_19">
      <!-- 100 -->
      <g transform="translate(543.319044 203.236563) scale(0.1 -0.1)">
       <use xlink:href="#DejaVuSans-31"/>
       <use xlink:href="#DejaVuSans-30" x="63.623047"/>
       <use xlink:href="#DejaVuSans-30" x="127.246094"/>
      </g>
     </g>
    </g>
    <g id="xtick_12">
     <g id="line2d_34">
      <path d="M 595.852008 188.638125 
L 595.852008 22.318125 
" clip-path="url(#pd4d2a00d86)" style="fill: none; stroke: #b0b0b0; stroke-width: 0.8; stroke-linecap: square"/>
     </g>
     <g id="line2d_35">
      <g>
       <use xlink:href="#md5aa9b59cf" x="595.852008" y="188.638125" style="stroke: #000000; stroke-width: 0.8"/>
      </g>
     </g>
     <g id="text_20">
      <!-- 200 -->
      <g transform="translate(586.308258 203.236563) scale(0.1 -0.1)">
       <use xlink:href="#DejaVuSans-32"/>
       <use xlink:href="#DejaVuSans-30" x="63.623047"/>
       <use xlink:href="#DejaVuSans-30" x="127.246094"/>
      </g>
     </g>
    </g>
    <g id="xtick_13">
     <g id="line2d_36">
      <path d="M 638.841222 188.638125 
L 638.841222 22.318125 
" clip-path="url(#pd4d2a00d86)" style="fill: none; stroke: #b0b0b0; stroke-width: 0.8; stroke-linecap: square"/>
     </g>
     <g id="line2d_37">
      <g>
       <use xlink:href="#md5aa9b59cf" x="638.841222" y="188.638125" style="stroke: #000000; stroke-width: 0.8"/>
      </g>
     </g>
     <g id="text_21">
      <!-- 300 -->
      <g transform="translate(629.297472 203.236563) scale(0.1 -0.1)">
       <use xlink:href="#DejaVuSans-33"/>
       <use xlink:href="#DejaVuSans-30" x="63.623047"/>
       <use xlink:href="#DejaVuSans-30" x="127.246094"/>
      </g>
     </g>
    </g>
    <g id="xtick_14">
     <g id="line2d_38">
      <path d="M 681.830436 188.638125 
L 681.830436 22.318125 
" clip-path="url(#pd4d2a00d86)" style="fill: none; stroke: #b0b0b0; stroke-width: 0.8; stroke-linecap: square"/>
     </g>
     <g id="line2d_39">
      <g>
       <use xlink:href="#md5aa9b59cf" x="681.830436" y="188.638125" style="stroke: #000000; stroke-width: 0.8"/>
      </g>
     </g>
     <g id="text_22">
      <!-- 400 -->
      <g transform="translate(672.286686 203.236563) scale(0.1 -0.1)">
       <use xlink:href="#DejaVuSans-34"/>
       <use xlink:href="#DejaVuSans-30" x="63.623047"/>
       <use xlink:href="#DejaVuSans-30" x="127.246094"/>
      </g>
     </g>
    </g>
    <g id="xtick_15">
     <g id="line2d_40">
      <path d="M 724.81965 188.638125 
L 724.81965 22.318125 
" clip-path="url(#pd4d2a00d86)" style="fill: none; stroke: #b0b0b0; stroke-width: 0.8; stroke-linecap: square"/>
     </g>
     <g id="line2d_41">
      <g>
       <use xlink:href="#md5aa9b59cf" x="724.81965" y="188.638125" style="stroke: #000000; stroke-width: 0.8"/>
      </g>
     </g>
     <g id="text_23">
      <!-- 500 -->
      <g transform="translate(715.2759 203.236563) scale(0.1 -0.1)">
       <use xlink:href="#DejaVuSans-35"/>
       <use xlink:href="#DejaVuSans-30" x="63.623047"/>
       <use xlink:href="#DejaVuSans-30" x="127.246094"/>
      </g>
     </g>
    </g>
    <g id="xtick_16">
     <g id="line2d_42">
      <path d="M 767.808865 188.638125 
L 767.808865 22.318125 
" clip-path="url(#pd4d2a00d86)" style="fill: none; stroke: #b0b0b0; stroke-width: 0.8; stroke-linecap: square"/>
     </g>
     <g id="line2d_43">
      <g>
       <use xlink:href="#md5aa9b59cf" x="767.808865" y="188.638125" style="stroke: #000000; stroke-width: 0.8"/>
      </g>
     </g>
     <g id="text_24">
      <!-- 600 -->
      <g transform="translate(758.265115 203.236563) scale(0.1 -0.1)">
       <use xlink:href="#DejaVuSans-36"/>
       <use xlink:href="#DejaVuSans-30" x="63.623047"/>
       <use xlink:href="#DejaVuSans-30" x="127.246094"/>
      </g>
     </g>
    </g>
    <g id="xtick_17">
     <g id="line2d_44">
      <path d="M 810.798079 188.638125 
L 810.798079 22.318125 
" clip-path="url(#pd4d2a00d86)" style="fill: none; stroke: #b0b0b0; stroke-width: 0.8; stroke-linecap: square"/>
     </g>
     <g id="line2d_45">
      <g>
       <use xlink:href="#md5aa9b59cf" x="810.798079" y="188.638125" style="stroke: #000000; stroke-width: 0.8"/>
      </g>
     </g>
     <g id="text_25">
      <!-- 700 -->
      <g transform="translate(801.254329 203.236563) scale(0.1 -0.1)">
       <use xlink:href="#DejaVuSans-37"/>
       <use xlink:href="#DejaVuSans-30" x="63.623047"/>
       <use xlink:href="#DejaVuSans-30" x="127.246094"/>
      </g>
     </g>
    </g>
    <g id="xtick_18">
     <g id="line2d_46">
      <path d="M 853.787293 188.638125 
L 853.787293 22.318125 
" clip-path="url(#pd4d2a00d86)" style="fill: none; stroke: #b0b0b0; stroke-width: 0.8; stroke-linecap: square"/>
     </g>
     <g id="line2d_47">
      <g>
       <use xlink:href="#md5aa9b59cf" x="853.787293" y="188.638125" style="stroke: #000000; stroke-width: 0.8"/>
      </g>
     </g>
     <g id="text_26">
      <!-- 800 -->
      <g transform="translate(844.243543 203.236563) scale(0.1 -0.1)">
       <use xlink:href="#DejaVuSans-38"/>
       <use xlink:href="#DejaVuSans-30" x="63.623047"/>
       <use xlink:href="#DejaVuSans-30" x="127.246094"/>
      </g>
     </g>
    </g>
    <g id="text_27">
     <!-- Time in seconds -->
     <g transform="translate(659.693821 216.914688) scale(0.1 -0.1)">
      <use xlink:href="#DejaVuSans-54"/>
      <use xlink:href="#DejaVuSans-69" x="57.958984"/>
      <use xlink:href="#DejaVuSans-6d" x="85.742188"/>
      <use xlink:href="#DejaVuSans-65" x="183.154297"/>
      <use xlink:href="#DejaVuSans-20" x="244.677734"/>
      <use xlink:href="#DejaVuSans-69" x="276.464844"/>
      <use xlink:href="#DejaVuSans-6e" x="304.248047"/>
      <use xlink:href="#DejaVuSans-20" x="367.626953"/>
      <use xlink:href="#DejaVuSans-73" x="399.414062"/>
      <use xlink:href="#DejaVuSans-65" x="451.513672"/>
      <use xlink:href="#DejaVuSans-63" x="513.037109"/>
      <use xlink:href="#DejaVuSans-6f" x="568.017578"/>
      <use xlink:href="#DejaVuSans-6e" x="629.199219"/>
      <use xlink:href="#DejaVuSans-64" x="692.578125"/>
      <use xlink:href="#DejaVuSans-73" x="756.054688"/>
     </g>
    </g>
   </g>
   <g id="matplotlib.axis_4">
    <g id="ytick_6">
     <g id="line2d_48">
      <path d="M 509.87358 188.638125 
L 890.328125 188.638125 
" clip-path="url(#pd4d2a00d86)" style="fill: none; stroke: #b0b0b0; stroke-width: 0.8; stroke-linecap: square"/>
     </g>
     <g id="line2d_49">
      <g>
       <use xlink:href="#mb933ee4bc7" x="509.87358" y="188.638125" style="stroke: #000000; stroke-width: 0.8"/>
      </g>
     </g>
     <g id="text_28">
      <!-- 0 -->
      <g transform="translate(496.51108 192.437344) scale(0.1 -0.1)">
       <use xlink:href="#DejaVuSans-30"/>
      </g>
     </g>
    </g>
    <g id="ytick_7">
     <g id="line2d_50">
      <path d="M 509.87358 161.807039 
L 890.328125 161.807039 
" clip-path="url(#pd4d2a00d86)" style="fill: none; stroke: #b0b0b0; stroke-width: 0.8; stroke-linecap: square"/>
     </g>
     <g id="line2d_51">
      <g>
       <use xlink:href="#mb933ee4bc7" x="509.87358" y="161.807039" style="stroke: #000000; stroke-width: 0.8"/>
      </g>
     </g>
     <g id="text_29">
      <!-- 50 -->
      <g transform="translate(490.14858 165.606258) scale(0.1 -0.1)">
       <use xlink:href="#DejaVuSans-35"/>
       <use xlink:href="#DejaVuSans-30" x="63.623047"/>
      </g>
     </g>
    </g>
    <g id="ytick_8">
     <g id="line2d_52">
      <path d="M 509.87358 134.975953 
L 890.328125 134.975953 
" clip-path="url(#pd4d2a00d86)" style="fill: none; stroke: #b0b0b0; stroke-width: 0.8; stroke-linecap: square"/>
     </g>
     <g id="line2d_53">
      <g>
       <use xlink:href="#mb933ee4bc7" x="509.87358" y="134.975953" style="stroke: #000000; stroke-width: 0.8"/>
      </g>
     </g>
     <g id="text_30">
      <!-- 100 -->
      <g transform="translate(483.78608 138.775172) scale(0.1 -0.1)">
       <use xlink:href="#DejaVuSans-31"/>
       <use xlink:href="#DejaVuSans-30" x="63.623047"/>
       <use xlink:href="#DejaVuSans-30" x="127.246094"/>
      </g>
     </g>
    </g>
    <g id="ytick_9">
     <g id="line2d_54">
      <path d="M 509.87358 108.144867 
L 890.328125 108.144867 
" clip-path="url(#pd4d2a00d86)" style="fill: none; stroke: #b0b0b0; stroke-width: 0.8; stroke-linecap: square"/>
     </g>
     <g id="line2d_55">
      <g>
       <use xlink:href="#mb933ee4bc7" x="509.87358" y="108.144867" style="stroke: #000000; stroke-width: 0.8"/>
      </g>
     </g>
     <g id="text_31">
      <!-- 150 -->
      <g transform="translate(483.78608 111.944085) scale(0.1 -0.1)">
       <use xlink:href="#DejaVuSans-31"/>
       <use xlink:href="#DejaVuSans-35" x="63.623047"/>
       <use xlink:href="#DejaVuSans-30" x="127.246094"/>
      </g>
     </g>
    </g>
    <g id="ytick_10">
     <g id="line2d_56">
      <path d="M 509.87358 81.313781 
L 890.328125 81.313781 
" clip-path="url(#pd4d2a00d86)" style="fill: none; stroke: #b0b0b0; stroke-width: 0.8; stroke-linecap: square"/>
     </g>
     <g id="line2d_57">
      <g>
       <use xlink:href="#mb933ee4bc7" x="509.87358" y="81.313781" style="stroke: #000000; stroke-width: 0.8"/>
      </g>
     </g>
     <g id="text_32">
      <!-- 200 -->
      <g transform="translate(483.78608 85.112999) scale(0.1 -0.1)">
       <use xlink:href="#DejaVuSans-32"/>
       <use xlink:href="#DejaVuSans-30" x="63.623047"/>
       <use xlink:href="#DejaVuSans-30" x="127.246094"/>
      </g>
     </g>
    </g>
    <g id="ytick_11">
     <g id="line2d_58">
      <path d="M 509.87358 54.482694 
L 890.328125 54.482694 
" clip-path="url(#pd4d2a00d86)" style="fill: none; stroke: #b0b0b0; stroke-width: 0.8; stroke-linecap: square"/>
     </g>
     <g id="line2d_59">
      <g>
       <use xlink:href="#mb933ee4bc7" x="509.87358" y="54.482694" style="stroke: #000000; stroke-width: 0.8"/>
      </g>
     </g>
     <g id="text_33">
      <!-- 250 -->
      <g transform="translate(483.78608 58.281913) scale(0.1 -0.1)">
       <use xlink:href="#DejaVuSans-32"/>
       <use xlink:href="#DejaVuSans-35" x="63.623047"/>
       <use xlink:href="#DejaVuSans-30" x="127.246094"/>
      </g>
     </g>
    </g>
    <g id="ytick_12">
     <g id="line2d_60">
      <path d="M 509.87358 27.651608 
L 890.328125 27.651608 
" clip-path="url(#pd4d2a00d86)" style="fill: none; stroke: #b0b0b0; stroke-width: 0.8; stroke-linecap: square"/>
     </g>
     <g id="line2d_61">
      <g>
       <use xlink:href="#mb933ee4bc7" x="509.87358" y="27.651608" style="stroke: #000000; stroke-width: 0.8"/>
      </g>
     </g>
     <g id="text_34">
      <!-- 300 -->
      <g transform="translate(483.78608 31.450827) scale(0.1 -0.1)">
       <use xlink:href="#DejaVuSans-33"/>
       <use xlink:href="#DejaVuSans-30" x="63.623047"/>
       <use xlink:href="#DejaVuSans-30" x="127.246094"/>
      </g>
     </g>
    </g>
    <g id="text_35">
     <!-- ops/s -->
     <g transform="translate(477.706392 118.605469) rotate(-90) scale(0.1 -0.1)">
      <defs>
       <path id="DejaVuSans-70" d="M 1159 525 
L 1159 -1331 
L 581 -1331 
L 581 3500 
L 1159 3500 
L 1159 2969 
Q 1341 3281 1617 3432 
Q 1894 3584 2278 3584 
Q 2916 3584 3314 3078 
Q 3713 2572 3713 1747 
Q 3713 922 3314 415 
Q 2916 -91 2278 -91 
Q 1894 -91 1617 61 
Q 1341 213 1159 525 
z
M 3116 1747 
Q 3116 2381 2855 2742 
Q 2594 3103 2138 3103 
Q 1681 3103 1420 2742 
Q 1159 2381 1159 1747 
Q 1159 1113 1420 752 
Q 1681 391 2138 391 
Q 2594 391 2855 752 
Q 3116 1113 3116 1747 
z
" transform="scale(0.015625)"/>
       <path id="DejaVuSans-2f" d="M 1625 4666 
L 2156 4666 
L 531 -594 
L 0 -594 
L 1625 4666 
z
" transform="scale(0.015625)"/>
      </defs>
      <use xlink:href="#DejaVuSans-6f"/>
      <use xlink:href="#DejaVuSans-70" x="61.181641"/>
      <use xlink:href="#DejaVuSans-73" x="124.658203"/>
      <use xlink:href="#DejaVuSans-2f" x="176.757812"/>
      <use xlink:href="#DejaVuSans-73" x="210.449219"/>
     </g>
    </g>
   </g>
   <g id="line2d_62">
    <path d="M 509.87358 187.263926 
L 516.321962 185.922372 
L 522.770344 184.580818 
L 529.218726 183.28264 
L 535.667108 183.28264 
L 542.11549 183.261175 
L 548.563872 183.271908 
L 555.012254 183.261175 
L 561.460637 183.28264 
L 567.909019 183.261175 
L 574.357401 183.271908 
L 580.805783 183.271908 
L 587.254165 183.28264 
L 593.702547 183.271908 
L 600.150929 183.261175 
L 606.599311 183.28264 
L 613.047694 183.271908 
L 619.496076 183.261175 
L 625.944458 183.271908 
L 632.39284 183.271908 
L 638.841222 183.271908 
L 645.289604 183.28264 
L 651.737986 183.271908 
L 658.186368 183.271908 
L 664.634751 183.261175 
L 671.083133 183.261175 
L 677.531515 183.271908 
L 683.979897 183.261175 
L 690.428279 183.28264 
L 696.876661 183.271908 
L 703.325043 183.271908 
L 709.773425 183.261175 
L 716.221808 183.28264 
L 722.67019 183.28264 
L 729.118572 183.28264 
L 735.566954 183.271908 
L 742.015336 183.261175 
L 748.463718 183.271908 
L 754.9121 183.271908 
L 761.360482 183.271908 
L 767.808865 183.271908 
L 774.257247 183.28264 
L 780.705629 183.261175 
L 787.154011 183.261175 
L 793.602393 183.261175 
L 800.050775 183.271908 
L 806.499157 183.271908 
L 812.947539 183.28264 
L 819.395922 183.28264 
L 825.844304 183.28264 
L 832.292686 183.261175 
L 838.741068 183.271908 
L 845.18945 183.261175 
L 851.637832 183.261175 
L 858.086214 183.261175 
L 864.534596 183.28264 
L 870.982979 183.271908 
L 877.431361 183.28264 
L 883.879743 183.261175 
L 890.328125 183.271908 
" clip-path="url(#pd4d2a00d86)" style="fill: none; stroke: #1f77b4; stroke-width: 1.5; stroke-linecap: square"/>
   </g>
   <g id="line2d_63">
    <path d="M 509.87358 187.263926 
L 516.321962 185.922372 
L 522.770344 183.221373 
L 529.218726 180.801388 
L 535.667108 177.878991 
L 542.11549 175.390005 
L 548.563872 171.476962 
L 555.012254 169.824167 
L 561.460637 166.121478 
L 567.909019 164.45795 
L 574.357401 160.75526 
L 580.805783 159.102465 
L 587.254165 155.389043 
L 593.702547 153.746981 
L 600.150929 150.001361 
L 606.599311 148.402228 
L 613.047694 144.635144 
L 619.496076 143.036011 
L 625.944458 139.279659 
L 632.39284 137.648329 
L 638.841222 133.902709 
L 645.289604 132.292844 
L 651.737986 128.536492 
L 658.186368 126.926627 
L 664.634751 123.170275 
L 671.083133 121.538945 
L 677.531515 117.804058 
L 683.979897 116.215657 
L 690.428279 112.448573 
L 696.876661 110.84944 
L 703.325043 107.028693 
L 709.773425 105.461758 
L 716.221808 101.694674 
L 722.67019 100.149203 
L 729.118572 96.349921 
L 735.566954 94.815183 
L 742.015336 90.962239 
L 748.463718 89.459698 
L 754.9121 85.563825 
L 761.360482 84.039819 
L 767.808865 80.20834 
L 774.257247 78.705799 
L 780.705629 74.852855 
L 787.154011 73.318117 
L 793.602393 69.443708 
L 800.050775 67.86604 
L 806.499157 64.098956 
L 812.947539 62.521288 
L 819.395922 58.936655 
L 825.844304 57.133606 
L 832.292686 53.53824 
L 838.741068 51.649332 
L 845.18945 48.161291 
L 851.637832 46.21872 
L 858.086214 42.795073 
L 864.534596 40.895432 
L 870.982979 37.418124 
L 877.431361 35.604342 
L 883.879743 32.030442 
L 890.328125 30.238125 
" clip-path="url(#pd4d2a00d86)" style="fill: none; stroke: #ff7f0e; stroke-width: 1.5; stroke-linecap: square"/>
   </g>
   <g id="patch_8">
    <path d="M 509.87358 188.638125 
L 509.87358 22.318125 
" style="fill: none; stroke: #000000; stroke-width: 0.8; stroke-linejoin: miter; stroke-linecap: square"/>
   </g>
   <g id="patch_9">
    <path d="M 890.328125 188.638125 
L 890.328125 22.318125 
" style="fill: none; stroke: #000000; stroke-width: 0.8; stroke-linejoin: miter; stroke-linecap: square"/>
   </g>
   <g id="patch_10">
    <path d="M 509.87358 188.638125 
L 890.328125 188.638125 
" style="fill: none; stroke: #000000; stroke-width: 0.8; stroke-linejoin: miter; stroke-linecap: square"/>
   </g>
   <g id="patch_11">
    <path d="M 509.87358 22.318125 
L 890.328125 22.318125 
" style="fill: none; stroke: #000000; stroke-width: 0.8; stroke-linejoin: miter; stroke-linecap: square"/>
   </g>
   <g id="text_36">
    <!-- Website Churn -->
    <g transform="translate(656.317727 16.318125) scale(0.12 -0.12)">
     <defs>
      <path id="DejaVuSans-68" d="M 3513 2113 
L 3513 0 
L 2938 0 
L 2938 2094 
Q 2938 2591 2744 2837 
Q 2550 3084 2163 3084 
Q 1697 3084 1428 2787 
Q 1159 2491 1159 1978 
L 1159 0 
L 581 0 
L 581 4863 
L 1159 4863 
L 1159 2956 
Q 1366 3272 1645 3428 
Q 1925 3584 2291 3584 
Q 2894 3584 3203 3211 
Q 3513 2838 3513 2113 
z
" transform="scale(0.015625)"/>
      <path id="DejaVuSans-72" d="M 2631 2963 
Q 2534 3019 2420 3045 
Q 2306 3072 2169 3072 
Q 1681 3072 1420 2755 
Q 1159 2438 1159 1844 
L 1159 0 
L 581 0 
L 581 3500 
L 1159 3500 
L 1159 2956 
Q 1341 3275 1631 3429 
Q 1922 3584 2338 3584 
Q 2397 3584 2469 3576 
Q 2541 3569 2628 3553 
L 2631 2963 
z
" transform="scale(0.015625)"/>
     </defs>
     <use xlink:href="#DejaVuSans-57"/>
     <use xlink:href="#DejaVuSans-65" x="93.001953"/>
     <use xlink:href="#DejaVuSans-62" x="154.525391"/>
     <use xlink:href="#DejaVuSans-73" x="218.001953"/>
     <use xlink:href="#DejaVuSans-69" x="270.101562"/>
     <use xlink:href="#DejaVuSans-74" x="297.884766"/>
     <use xlink:href="#DejaVuSans-65" x="337.09375"/>
     <use xlink:href="#DejaVuSans-20" x="398.617188"/>
     <use xlink:href="#DejaVuSans-43" x="430.404297"/>
     <use xlink:href="#DejaVuSans-68" x="500.228516"/>
     <use xlink:href="#DejaVuSans-75" x="563.607422"/>
     <use xlink:href="#DejaVuSans-72" x="626.986328"/>
     <use xlink:href="#DejaVuSans-6e" x="666.349609"/>
    </g>
   </g>
   <g id="legend_1">
    <g id="patch_12">
     <path d="M 515.70458 53.435881 
L 618.771409 53.435881 
Q 620.437409 53.435881 620.437409 51.769881 
L 620.437409 28.149125 
Q 620.437409 26.483125 618.771409 26.483125 
L 515.70458 26.483125 
Q 514.03858 26.483125 514.03858 28.149125 
L 514.03858 51.769881 
Q 514.03858 53.435881 515.70458 53.435881 
z
" style="fill: #ffffff; opacity: 0.8; stroke: #cccccc; stroke-linejoin: miter"/>
    </g>
    <g id="patch_13">
     <path d="M 517.37058 36.144623 
L 534.03058 36.144623 
L 534.03058 30.313623 
L 517.37058 30.313623 
z
" style="fill: #1f77b4; stroke: #1f77b4; stroke-linejoin: miter"/>
    </g>
    <g id="text_37">
     <!-- website-generator -->
     <g transform="translate(540.69458 36.144623) scale(0.0833 -0.0833)">
      <defs>
       <path id="DejaVuSans-77" d="M 269 3500 
L 844 3500 
L 1563 769 
L 2278 3500 
L 2956 3500 
L 3675 769 
L 4391 3500 
L 4966 3500 
L 4050 0 
L 3372 0 
L 2619 2869 
L 1863 0 
L 1184 0 
L 269 3500 
z
" transform="scale(0.015625)"/>
       <path id="DejaVuSans-2d" d="M 313 2009 
L 1997 2009 
L 1997 1497 
L 313 1497 
L 313 2009 
z
" transform="scale(0.015625)"/>
       <path id="DejaVuSans-67" d="M 2906 1791 
Q 2906 2416 2648 2759 
Q 2391 3103 1925 3103 
Q 1463 3103 1205 2759 
Q 947 2416 947 1791 
Q 947 1169 1205 825 
Q 1463 481 1925 481 
Q 2391 481 2648 825 
Q 2906 1169 2906 1791 
z
M 3481 434 
Q 3481 -459 3084 -895 
Q 2688 -1331 1869 -1331 
Q 1566 -1331 1297 -1286 
Q 1028 -1241 775 -1147 
L 775 -588 
Q 1028 -725 1275 -790 
Q 1522 -856 1778 -856 
Q 2344 -856 2625 -561 
Q 2906 -266 2906 331 
L 2906 616 
Q 2728 306 2450 153 
Q 2172 0 1784 0 
Q 1141 0 747 490 
Q 353 981 353 1791 
Q 353 2603 747 3093 
Q 1141 3584 1784 3584 
Q 2172 3584 2450 3431 
Q 2728 3278 2906 2969 
L 2906 3500 
L 3481 3500 
L 3481 434 
z
" transform="scale(0.015625)"/>
       <path id="DejaVuSans-61" d="M 2194 1759 
Q 1497 1759 1228 1600 
Q 959 1441 959 1056 
Q 959 750 1161 570 
Q 1363 391 1709 391 
Q 2188 391 2477 730 
Q 2766 1069 2766 1631 
L 2766 1759 
L 2194 1759 
z
M 3341 1997 
L 3341 0 
L 2766 0 
L 2766 531 
Q 2569 213 2275 61 
Q 1981 -91 1556 -91 
Q 1019 -91 701 211 
Q 384 513 384 1019 
Q 384 1609 779 1909 
Q 1175 2209 1959 2209 
L 2766 2209 
L 2766 2266 
Q 2766 2663 2505 2880 
Q 2244 3097 1772 3097 
Q 1472 3097 1187 3025 
Q 903 2953 641 2809 
L 641 3341 
Q 956 3463 1253 3523 
Q 1550 3584 1831 3584 
Q 2591 3584 2966 3190 
Q 3341 2797 3341 1997 
z
" transform="scale(0.015625)"/>
      </defs>
      <use xlink:href="#DejaVuSans-77"/>
      <use xlink:href="#DejaVuSans-65" x="81.787109"/>
      <use xlink:href="#DejaVuSans-62" x="143.310547"/>
      <use xlink:href="#DejaVuSans-73" x="206.787109"/>
      <use xlink:href="#DejaVuSans-69" x="258.886719"/>
      <use xlink:href="#DejaVuSans-74" x="286.669922"/>
      <use xlink:href="#DejaVuSans-65" x="325.878906"/>
      <use xlink:href="#DejaVuSans-2d" x="387.402344"/>
      <use xlink:href="#DejaVuSans-67" x="423.486328"/>
      <use xlink:href="#DejaVuSans-65" x="486.962891"/>
      <use xlink:href="#DejaVuSans-6e" x="548.486328"/>
      <use xlink:href="#DejaVuSans-65" x="611.865234"/>
      <use xlink:href="#DejaVuSans-72" x="673.388672"/>
      <use xlink:href="#DejaVuSans-61" x="714.501953"/>
      <use xlink:href="#DejaVuSans-74" x="775.78125"/>
      <use xlink:href="#DejaVuSans-6f" x="814.990234"/>
      <use xlink:href="#DejaVuSans-72" x="876.171875"/>
     </g>
    </g>
    <g id="patch_14">
     <path d="M 517.37058 48.371502 
L 534.03058 48.371502 
L 534.03058 42.540502 
L 517.37058 42.540502 
z
" style="fill: #ff7f0e; stroke: #ff7f0e; stroke-linejoin: miter"/>
    </g>
    <g id="text_38">
     <!-- website-mutator -->
     <g transform="translate(540.69458 48.371502) scale(0.0833 -0.0833)">
      <use xlink:href="#DejaVuSans-77"/>
      <use xlink:href="#DejaVuSans-65" x="81.787109"/>
      <use xlink:href="#DejaVuSans-62" x="143.310547"/>
      <use xlink:href="#DejaVuSans-73" x="206.787109"/>
      <use xlink:href="#DejaVuSans-69" x="258.886719"/>
      <use xlink:href="#DejaVuSans-74" x="286.669922"/>
      <use xlink:href="#DejaVuSans-65" x="325.878906"/>
      <use xlink:href="#DejaVuSans-2d" x="387.402344"/>
      <use xlink:href="#DejaVuSans-6d" x="423.486328"/>
      <use xlink:href="#DejaVuSans-75" x="520.898438"/>
      <use xlink:href="#DejaVuSans-74" x="584.277344"/>
      <use xlink:href="#DejaVuSans-61" x="623.486328"/>
      <use xlink:href="#DejaVuSans-74" x="684.765625"/>
      <use xlink:href="#DejaVuSans-6f" x="723.974609"/>
      <use xlink:href="#DejaVuSans-72" x="785.15625"/>
     </g>
    </g>
   </g>
  </g>
 </g>
 <defs>
  <clipPath id="pda456b9420">
   <rect x="53.328125" y="22.318125" width="380.454545" height="166.32"/>
  </clipPath>
  <clipPath id="pd4d2a00d86">
   <rect x="509.87358" y="22.318125" width="380.454545" height="166.32"/>
  </clipPath>
 </defs>
</svg>
